<svg version="1.1" viewBox="0.0 0.0 881.0 452.0" fill="none" stroke="none" stroke-linecap="square" stroke-miterlimit="10" width="881" height="452" xmlns:xlink="http://www.w3.org/1999/xlink" xmlns="http://www.w3.org/2000/svg"><path fill="#ffffff" d="M0 0L881.0 0L881.0 452.0L0 452.0L0 0Z" fill-rule="nonzero"/><path stroke="#333333" stroke-width="1.0" stroke-linecap="butt" d="M75.5 349.5L858.5 349.5" fill-rule="nonzero"/><path stroke="#cccccc" stroke-width="1.0" stroke-linecap="butt" d="M75.5 282.5L858.5 282.5" fill-rule="nonzero"/><path stroke="#cccccc" stroke-width="1.0" stroke-linecap="butt" d="M75.5 214.5L858.5 214.5" fill-rule="nonzero"/><path stroke="#cccccc" stroke-width="1.0" stroke-linecap="butt" d="M75.5 147.5L858.5 147.5" fill-rule="nonzero"/><path stroke="#cccccc" stroke-width="1.0" stroke-linecap="butt" d="M75.5 80.5L858.5 80.5" fill-rule="nonzero"/><clipPath id="id_0"><path d="M75.6 80.166664L858.4 80.166664L858.4 349.33334L75.6 349.33334L75.6 80.166664Z" clip-rule="nonzero"/></clipPath><path stroke="#000000" stroke-width="0.0" stroke-linecap="butt" stroke-opacity="0.0" clip-path="url(#id_0)" d="M158.0 349.0L119.0 349.0L119.0 237.0C119.0 235.89543 119.89543 235.0 121.0 235.0L156.0 235.0C157.10457 235.0 158.0 235.89543 158.0 237.0Z" fill-rule="nonzero"/><path fill="#4285f4" clip-path="url(#id_0)" d="M158.0 349.0L119.0 349.0L119.0 237.0C119.0 235.89543 119.89543 235.0 121.0 235.0L156.0 235.0C157.10457 235.0 158.0 235.89543 158.0 237.0Z" fill-rule="nonzero"/><path stroke="#000000" stroke-width="0.0" stroke-linecap="butt" stroke-opacity="0.0" clip-path="url(#id_0)" d="M281.0 349.0L242.0 349.0L242.0 95.0C242.0 93.89543 242.89543 93.0 244.0 93.0L279.0 93.0C280.10458 93.0 281.0 93.89543 281.0 95.0Z" fill-rule="nonzero"/><path fill="#4285f4" clip-path="url(#id_0)" d="M281.0 349.0L242.0 349.0L242.0 95.0C242.0 93.89543 242.89543 93.0 244.0 93.0L279.0 93.0C280.10458 93.0 281.0 93.89543 281.0 95.0Z" fill-rule="nonzero"/><path stroke="#000000" stroke-width="0.0" stroke-linecap="butt" stroke-opacity="0.0" clip-path="url(#id_0)" d="M404.0 349.0L365.0 349.0L365.0 129.0C365.0 127.89543 365.89542 127.0 367.0 127.0L402.0 127.0C403.10458 127.0 404.0 127.89543 404.0 129.0Z" fill-rule="nonzero"/><path fill="#4285f4" clip-path="url(#id_0)" d="M404.0 349.0L365.0 349.0L365.0 129.0C365.0 127.89543 365.89542 127.0 367.0 127.0L402.0 127.0C403.10458 127.0 404.0 127.89543 404.0 129.0Z" fill-rule="nonzero"/><path stroke="#000000" stroke-width="0.0" stroke-linecap="butt" stroke-opacity="0.0" clip-path="url(#id_0)" d="M528.0 349.0L489.0 349.0L489.0 250.0C489.0 248.89543 489.89542 248.0 491.0 248.0L526.0 248.0C527.10455 248.0 528.0 248.89543 528.0 250.0Z" fill-rule="nonzero"/><path fill="#4285f4" clip-path="url(#id_0)" d="M528.0 349.0L489.0 349.0L489.0 250.0C489.0 248.89543 489.89542 248.0 491.0 248.0L526.0 248.0C527.10455 248.0 528.0 248.89543 528.0 250.0Z" fill-rule="nonzero"/><path stroke="#000000" stroke-width="0.0" stroke-linecap="butt" stroke-opacity="0.0" clip-path="url(#id_0)" d="M651.0 349.0L612.0 349.0L612.0 88.0C612.0 86.89543 612.89545 86.0 614.0 86.0L649.0 86.0C650.10455 86.0 651.0 86.89543 651.0 88.0Z" fill-rule="nonzero"/><path fill="#4285f4" clip-path="url(#id_0)" d="M651.0 349.0L612.0 349.0L612.0 88.0C612.0 86.89543 612.89545 86.0 614.0 86.0L649.0 86.0C650.10455 86.0 651.0 86.89543 651.0 88.0Z" fill-rule="nonzero"/><path stroke="#000000" stroke-width="0.0" stroke-linecap="butt" stroke-opacity="0.0" clip-path="url(#id_0)" d="M774.0 349.0L735.0 349.0L735.0 167.0C735.0 165.89543 735.89545 165.0 737.0 165.0L772.0 165.0C773.10455 165.0 774.0 165.89543 774.0 167.0Z" fill-rule="nonzero"/><path fill="#4285f4" clip-path="url(#id_0)" d="M774.0 349.0L735.0 349.0L735.0 167.0C735.0 165.89543 735.89545 165.0 737.0 165.0L772.0 165.0C773.10455 165.0 774.0 165.89543 774.0 167.0Z" fill-rule="nonzero"/><path stroke="#000000" stroke-width="0.0" stroke-linecap="butt" stroke-opacity="0.0" clip-path="url(#id_0)" d="M198.0 349.0L159.0 349.0L159.0 215.0C159.0 213.89543 159.89543 213.0 161.0 213.0L196.0 213.0C197.10457 213.0 198.0 213.89543 198.0 215.0Z" fill-rule="nonzero"/><path fill="#db4437" clip-path="url(#id_0)" d="M198.0 349.0L159.0 349.0L159.0 215.0C159.0 213.89543 159.89543 213.0 161.0 213.0L196.0 213.0C197.10457 213.0 198.0 213.89543 198.0 215.0Z" fill-rule="nonzero"/><path stroke="#000000" stroke-width="0.0" stroke-linecap="butt" stroke-opacity="0.0" clip-path="url(#id_0)" d="M321.0 349.0L282.0 349.0L282.0 93.0C282.0 91.89543 282.89542 91.0 284.0 91.0L319.0 91.0C320.10458 91.0 321.0 91.89543 321.0 93.0Z" fill-rule="nonzero"/><path fill="#db4437" clip-path="url(#id_0)" d="M321.0 349.0L282.0 349.0L282.0 93.0C282.0 91.89543 282.89542 91.0 284.0 91.0L319.0 91.0C320.10458 91.0 321.0 91.89543 321.0 93.0Z" fill-rule="nonzero"/><path stroke="#000000" stroke-width="0.0" stroke-linecap="butt" stroke-opacity="0.0" clip-path="url(#id_0)" d="M444.0 349.0L405.0 349.0L405.0 135.0C405.0 133.89543 405.89542 133.0 407.0 133.0L442.0 133.0C443.10458 133.0 444.0 133.89543 444.0 135.0Z" fill-rule="nonzero"/><path fill="#db4437" clip-path="url(#id_0)" d="M444.0 349.0L405.0 349.0L405.0 135.0C405.0 133.89543 405.89542 133.0 407.0 133.0L442.0 133.0C443.10458 133.0 444.0 133.89543 444.0 135.0Z" fill-rule="nonzero"/><path stroke="#000000" stroke-width="0.0" stroke-linecap="butt" stroke-opacity="0.0" clip-path="url(#id_0)" d="M568.0 349.0L529.0 349.0L529.0 216.0C529.0 214.89543 529.89545 214.0 531.0 214.0L566.0 214.0C567.10455 214.0 568.0 214.89543 568.0 216.0Z" fill-rule="nonzero"/><path fill="#db4437" clip-path="url(#id_0)" d="M568.0 349.0L529.0 349.0L529.0 216.0C529.0 214.89543 529.89545 214.0 531.0 214.0L566.0 214.0C567.10455 214.0 568.0 214.89543 568.0 216.0Z" fill-rule="nonzero"/><path stroke="#000000" stroke-width="0.0" stroke-linecap="butt" stroke-opacity="0.0" clip-path="url(#id_0)" d="M691.0 349.0L652.0 349.0L652.0 88.0C652.0 86.89543 652.89545 86.0 654.0 86.0L689.0 86.0C690.10455 86.0 691.0 86.89543 691.0 88.0Z" fill-rule="nonzero"/><path fill="#db4437" clip-path="url(#id_0)" d="M691.0 349.0L652.0 349.0L652.0 88.0C652.0 86.89543 652.89545 86.0 654.0 86.0L689.0 86.0C690.10455 86.0 691.0 86.89543 691.0 88.0Z" fill-rule="nonzero"/><path stroke="#000000" stroke-width="0.0" stroke-linecap="butt" stroke-opacity="0.0" clip-path="url(#id_0)" d="M814.0 349.0L775.0 349.0L775.0 160.0C775.0 158.89543 775.89545 158.0 777.0 158.0L812.0 158.0C813.10455 158.0 814.0 158.89543 814.0 160.0Z" fill-rule="nonzero"/><path fill="#db4437" clip-path="url(#id_0)" d="M814.0 349.0L775.0 349.0L775.0 160.0C775.0 158.89543 775.89545 158.0 777.0 158.0L812.0 158.0C813.10455 158.0 814.0 158.89543 814.0 160.0Z" fill-rule="nonzero"/><path fill="#000000" d="M63.709373 350.16147Q63.709373 353.64584 62.50625 355.34897Q61.31875 357.0521 58.7875 357.0521Q56.2875 357.0521 55.084373 355.39584Q53.88125 353.72397 53.834373 350.4271L53.834373 347.77084Q53.834373 344.33334 55.021873 342.66147Q56.225 340.97397 58.771873 340.97397Q61.2875 340.97397 62.475 342.59897Q63.678123 344.20834 63.709373 347.58334L63.709373 350.16147ZM61.725 347.44272Q61.725 344.9271 61.00625 343.77084Q60.303123 342.6146 58.771873 342.6146Q57.240623 342.6146 56.5375 343.77084Q55.85 344.91147 55.81875 347.28647L55.81875 350.47397Q55.81875 353.00522 56.553123 354.22397Q57.2875 355.4271 58.7875 355.4271Q60.25625 355.4271 60.975 354.28647Q61.69375 353.14584 61.725 350.69272L61.725 347.44272Z" fill-rule="nonzero"/><path fill="#000000" d="M33.709373 282.86978Q33.709373 286.35416 32.50625 288.05728Q31.31875 289.7604 28.7875 289.7604Q26.2875 289.7604 25.084375 288.10416Q23.88125 286.43228 23.834375 283.1354L23.834375 280.47916Q23.834375 277.04166 25.021875 275.36978Q26.225 273.68228 28.771875 273.68228Q31.2875 273.68228 32.475 275.30728Q33.678123 276.91666 33.709373 280.29166L33.709373 282.86978ZM31.725 280.15103Q31.725 277.6354 31.00625 276.47916Q30.303125 275.3229 28.771875 275.3229Q27.240625 275.3229 26.5375 276.47916Q25.85 277.61978 25.81875 279.99478L25.81875 283.18228Q25.81875 285.71353 26.553125 286.93228Q27.2875 288.1354 28.7875 288.1354Q30.25625 288.1354 30.975 286.99478Q31.69375 285.85416 31.725 283.40103L31.725 280.15103ZM36.146873 288.49478Q36.146873 287.97916 36.44375 287.6354Q36.75625 287.29166 37.365623 287.29166Q37.990623 287.29166 38.303123 287.6354Q38.615623 287.97916 38.615623 288.49478Q38.615623 288.99478 38.303123 289.33853Q37.990623 289.66666 37.365623 289.66666Q36.75625 289.66666 36.44375 289.33853Q36.146873 288.99478 36.146873 288.49478ZM52.146873 289.54166L41.896873 289.54166L41.896873 288.11978L47.31875 282.10416Q48.521873 280.72916 48.975 279.8854Q49.428123 279.02603 49.428123 278.10416Q49.428123 276.8854 48.678123 276.10416Q47.94375 275.3229 46.709373 275.3229Q45.225 275.3229 44.396873 276.16666Q43.584373 277.0104 43.584373 278.5104L41.6 278.5104Q41.6 276.35416 42.990623 275.02603Q44.38125 273.68228 46.709373 273.68228Q48.896873 273.68228 50.1625 274.83853Q51.428123 275.97916 51.428123 277.86978Q51.428123 280.18228 48.490623 283.36978L44.303123 287.91666L52.146873 287.91666L52.146873 289.54166ZM54.81875 281.6979L55.615623 273.90103L63.615623 273.90103L63.615623 275.74478L57.2875 275.74478L56.81875 279.99478Q57.975 279.3229 59.428123 279.3229Q61.56875 279.3229 62.81875 280.74478Q64.08437 282.15103 64.08437 284.55728Q64.08437 286.97916 62.771873 288.36978Q61.475 289.7604 59.13125 289.7604Q57.053123 289.7604 55.740623 288.61978Q54.44375 287.46353 54.25625 285.43228L56.13125 285.43228Q56.31875 286.77603 57.084373 287.46353Q57.865623 288.1354 59.13125 288.1354Q60.521873 288.1354 61.303123 287.1979Q62.1 286.24478 62.1 284.5729Q62.1 283.0104 61.240623 282.05728Q60.38125 281.10416 58.975 281.10416Q57.678123 281.10416 56.928123 281.68228L56.396873 282.10416L54.81875 281.6979Z" fill-rule="nonzero"/><path fill="#000000" d="M45.709373 215.57812Q45.709373 219.0625 44.50625 220.76562Q43.31875 222.46875 40.7875 222.46875Q38.2875 222.46875 37.084373 220.8125Q35.88125 219.14062 35.834373 215.84375L35.834373 213.1875Q35.834373 209.75 37.021873 208.07812Q38.225 206.39062 40.771873 206.39062Q43.2875 206.39062 44.475 208.01562Q45.678123 209.625 45.709373 213.0L45.709373 215.57812ZM43.725 212.85938Q43.725 210.34375 43.00625 209.1875Q42.303123 208.03125 40.771873 208.03125Q39.240623 208.03125 38.5375 209.1875Q37.85 210.32812 37.81875 212.70312L37.81875 215.89062Q37.81875 218.42188 38.553123 219.64062Q39.2875 220.84375 40.7875 220.84375Q42.25625 220.84375 42.975 219.70312Q43.69375 218.5625 43.725 216.10938L43.725 212.85938ZM48.146873 221.20312Q48.146873 220.6875 48.44375 220.34375Q48.75625 220.0 49.365623 220.0Q49.990623 220.0 50.303123 220.34375Q50.615623 220.6875 50.615623 221.20312Q50.615623 221.70312 50.303123 222.04688Q49.990623 222.375 49.365623 222.375Q48.75625 222.375 48.44375 222.04688Q48.146873 221.70312 48.146873 221.20312ZM54.81875 214.40625L55.615623 206.60938L63.615623 206.60938L63.615623 208.45312L57.2875 208.45312L56.81875 212.70312Q57.975 212.03125 59.428123 212.03125Q61.56875 212.03125 62.81875 213.45312Q64.08437 214.85938 64.08437 217.26562Q64.08437 219.6875 62.771873 221.07812Q61.475 222.46875 59.13125 222.46875Q57.053123 222.46875 55.740623 221.32812Q54.44375 220.17188 54.25625 218.14062L56.13125 218.14062Q56.31875 219.48438 57.084373 220.17188Q57.865623 220.84375 59.13125 220.84375Q60.521873 220.84375 61.303123 219.90625Q62.1 218.95312 62.1 217.28125Q62.1 215.71875 61.240623 214.76562Q60.38125 213.8125 58.975 213.8125Q57.678123 213.8125 56.928123 214.39062L56.396873 214.8125L54.81875 214.40625Z" fill-rule="nonzero"/><path fill="#000000" d="M33.709373 148.28645Q33.709373 151.77083 32.50625 153.47395Q31.31875 155.17708 28.7875 155.17708Q26.2875 155.17708 25.084375 153.52083Q23.88125 151.84895 23.834375 148.55208L23.834375 145.89583Q23.834375 142.45833 25.021875 140.78645Q26.225 139.09895 28.771875 139.09895Q31.2875 139.09895 32.475 140.72395Q33.678123 142.33333 33.709373 145.70833L33.709373 148.28645ZM31.725 145.5677Q31.725 143.05208 31.00625 141.89583Q30.303125 140.73958 28.771875 140.73958Q27.240625 140.73958 26.5375 141.89583Q25.85 143.03645 25.81875 145.41145L25.81875 148.59895Q25.81875 151.1302 26.553125 152.34895Q27.2875 153.55208 28.7875 153.55208Q30.25625 153.55208 30.975 152.41145Q31.69375 151.27083 31.725 148.8177L31.725 145.5677ZM36.146873 153.91145Q36.146873 153.39583 36.44375 153.05208Q36.75625 152.70833 37.365623 152.70833Q37.990623 152.70833 38.303123 153.05208Q38.615623 153.39583 38.615623 153.91145Q38.615623 154.41145 38.303123 154.7552Q37.990623 155.08333 37.365623 155.08333Q36.75625 155.08333 36.44375 154.7552Q36.146873 154.41145 36.146873 153.91145ZM51.990623 140.42708L45.521873 154.95833L43.44375 154.95833L49.896873 140.9427L41.428123 140.9427L41.428123 139.3177L51.990623 139.3177L51.990623 140.42708ZM54.81875 147.11458L55.615623 139.3177L63.615623 139.3177L63.615623 141.16145L57.2875 141.16145L56.81875 145.41145Q57.975 144.73958 59.428123 144.73958Q61.56875 144.73958 62.81875 146.16145Q64.08437 147.5677 64.08437 149.97395Q64.08437 152.39583 62.771873 153.78645Q61.475 155.17708 59.13125 155.17708Q57.053123 155.17708 55.740623 154.03645Q54.44375 152.8802 54.25625 150.84895L56.13125 150.84895Q56.31875 152.1927 57.084373 152.8802Q57.865623 153.55208 59.13125 153.55208Q60.521873 153.55208 61.303123 152.61458Q62.1 151.66145 62.1 149.98958Q62.1 148.42708 61.240623 147.47395Q60.38125 146.52083 58.975 146.52083Q57.678123 146.52083 56.928123 147.09895L56.396873 147.52083L54.81875 147.11458Z" fill-rule="nonzero"/><path fill="#000000" d="M60.428123 87.666664L58.428123 87.666664L58.428123 74.416664L54.428123 75.885414L54.428123 74.08854L60.115623 71.947914L60.428123 71.947914L60.428123 87.666664Z" fill-rule="nonzero"/><path fill="#000000" d="M144.63914 376.3646Q144.34227 378.84897 142.7954 380.20834Q141.26414 381.5521 138.70164 381.5521Q135.93602 381.5521 134.26414 379.56772Q132.59227 377.56772 132.59227 374.2396L132.59227 372.7396Q132.59227 370.5521 133.37352 368.91147Q134.15477 367.25522 135.57664 366.3646Q136.99852 365.47397 138.88914 365.47397Q141.37352 365.47397 142.87352 366.8646Q144.38914 368.25522 144.63914 370.72397L142.56102 370.72397Q142.2954 368.84897 141.38914 368.02084Q140.49852 367.1771 138.88914 367.1771Q136.90477 367.1771 135.77977 368.64584Q134.6704 370.09897 134.6704 372.78647L134.6704 374.3021Q134.6704 376.84897 135.7329 378.3646Q136.7954 379.8646 138.70164 379.8646Q140.4204 379.8646 141.34227 379.08334Q142.26414 378.3021 142.56102 376.3646L144.63914 376.3646ZM148.96727 381.33334L146.9829 381.33334L146.9829 364.83334L148.96727 364.83334L148.96727 381.33334ZM158.99852 381.33334Q158.82664 380.9896 158.71727 380.1146Q157.32664 381.5521 155.40477 381.5521Q153.68602 381.5521 152.57664 380.58334Q151.4829 379.59897 151.4829 378.1146Q151.4829 376.3021 152.8579 375.3021Q154.24852 374.28647 156.74852 374.28647L158.68602 374.28647L158.68602 373.38022Q158.68602 372.33334 158.06102 371.72397Q157.43602 371.09897 156.21727 371.09897Q155.15477 371.09897 154.43602 371.64584Q153.71727 372.1771 153.71727 372.9271L151.71727 372.9271Q151.71727 372.06772 152.32664 371.25522Q152.95164 370.44272 154.01414 369.97397Q155.07664 369.4896 156.34227 369.4896Q158.34227 369.4896 159.4829 370.50522Q160.62352 371.50522 160.6704 373.27084L160.6704 378.6146Q160.6704 380.20834 161.07664 381.16147L161.07664 381.33334L158.99852 381.33334ZM155.68602 379.81772Q156.62352 379.81772 157.46727 379.33334Q158.31102 378.84897 158.68602 378.08334L158.68602 375.69272L157.12352 375.69272Q153.46727 375.69272 153.46727 377.83334Q153.46727 378.77084 154.09227 379.3021Q154.71727 379.81772 155.68602 379.81772ZM165.70164 369.70834L165.76414 371.1771Q167.09227 369.4896 169.2329 369.4896Q172.9204 369.4896 172.95164 373.64584L172.95164 381.33334L170.96727 381.33334L170.96727 373.64584Q170.95164 372.38022 170.38914 371.78647Q169.82664 371.1771 168.63914 371.1771Q167.6704 371.1771 166.93602 371.69272Q166.21727 372.20834 165.7954 373.0521L165.7954 381.33334L163.81102 381.33334L163.81102 369.70834L165.70164 369.70834ZM175.34227 375.4271Q175.34227 372.70834 176.59227 371.09897Q177.8579 369.4896 179.93602 369.4896Q182.06102 369.4896 183.24852 371.00522L183.34227 369.70834L185.15477 369.70834L185.15477 381.0521Q185.15477 383.31772 183.81102 384.6146Q182.4829 385.91147 180.2329 385.91147Q178.96727 385.91147 177.76414 385.3646Q176.56102 384.83334 175.93602 383.89584L176.96727 382.70834Q178.24852 384.28647 180.09227 384.28647Q181.5454 384.28647 182.3579 383.47397Q183.1704 382.66147 183.1704 381.1771L183.1704 380.1771Q181.96727 381.5521 179.90477 381.5521Q177.87352 381.5521 176.6079 379.91147Q175.34227 378.25522 175.34227 375.4271ZM177.34227 375.64584Q177.34227 377.6146 178.13914 378.7396Q178.95164 379.8646 180.40477 379.8646Q182.27977 379.8646 183.1704 378.14584L183.1704 372.84897Q182.24852 371.1771 180.4204 371.1771Q178.96727 371.1771 178.15477 372.31772Q177.34227 373.44272 177.34227 375.64584Z" fill-rule="nonzero"/><path fill="#000000" d="M227.96161 375.20834L227.96161 381.33334L225.89911 381.33334L225.89911 365.69272L231.66473 365.69272Q234.24286 365.69272 235.69598 367.00522Q237.14911 368.31772 237.14911 370.47397Q237.14911 372.75522 235.72723 373.9896Q234.30536 375.20834 231.64911 375.20834L227.96161 375.20834ZM227.96161 373.52084L231.66473 373.52084Q233.32098 373.52084 234.19598 372.7396Q235.08661 371.95834 235.08661 370.4896Q235.08661 369.09897 234.19598 368.27084Q233.32098 367.4271 231.78973 367.39584L227.96161 367.39584L227.96161 373.52084ZM239.07098 375.41147Q239.07098 373.70834 239.74286 372.34897Q240.41473 370.97397 241.60223 370.2396Q242.80536 369.4896 244.33661 369.4896Q246.71161 369.4896 248.18036 371.14584Q249.64911 372.78647 249.64911 375.50522L249.64911 375.64584Q249.64911 377.34897 248.99286 378.69272Q248.35223 380.03647 247.13348 380.8021Q245.93036 381.5521 244.36786 381.5521Q241.99286 381.5521 240.52411 379.91147Q239.07098 378.25522 239.07098 375.5521L239.07098 375.41147ZM241.05536 375.64584Q241.05536 377.58334 241.94598 378.75522Q242.85223 379.9271 244.36786 379.9271Q245.86786 379.9271 246.75848 378.7396Q247.66473 377.5521 247.66473 375.41147Q247.66473 373.50522 246.74286 372.31772Q245.83661 371.13022 244.33661 371.13022Q242.86786 371.13022 241.96161 372.3021Q241.05536 373.47397 241.05536 375.64584ZM259.35223 378.25522Q259.35223 377.44272 258.74286 377.00522Q258.1491 376.5521 256.63348 376.2396Q255.13348 375.91147 254.24286 375.45834Q253.35223 375.00522 252.93036 374.38022Q252.50848 373.75522 252.50848 372.89584Q252.50848 371.47397 253.71161 370.4896Q254.91473 369.4896 256.80536 369.4896Q258.7741 369.4896 260.00848 370.52084Q261.24286 371.53647 261.24286 373.13022L259.24286 373.13022Q259.24286 372.3021 258.53973 371.72397Q257.85223 371.13022 256.80536 371.13022Q255.71161 371.13022 255.10223 371.59897Q254.49286 372.06772 254.49286 372.83334Q254.49286 373.5521 255.05536 373.9271Q255.63348 374.28647 257.11786 374.63022Q258.60223 374.95834 259.5241 375.4271Q260.4616 375.88022 260.8991 376.53647Q261.35223 377.1771 261.35223 378.1146Q261.35223 379.66147 260.10223 380.6146Q258.85223 381.5521 256.86786 381.5521Q255.47723 381.5521 254.39911 381.0521Q253.32098 380.5521 252.71161 379.6771Q252.10223 378.78647 252.10223 377.75522L254.10223 377.75522Q254.14911 378.75522 254.89911 379.34897Q255.64911 379.9271 256.86786 379.9271Q257.99286 379.9271 258.66473 379.47397Q259.35223 379.00522 259.35223 378.25522ZM266.28973 366.89584L266.28973 369.70834L268.4616 369.70834L268.4616 371.2396L266.28973 371.2396L266.28973 378.45834Q266.28973 379.14584 266.57098 379.50522Q266.86786 379.84897 267.57098 379.84897Q267.91473 379.84897 268.50848 379.72397L268.50848 381.33334Q267.72723 381.5521 266.99286 381.5521Q265.6491 381.5521 264.97723 380.75522Q264.30536 379.94272 264.30536 378.45834L264.30536 371.2396L262.18036 371.2396L262.18036 369.70834L264.30536 369.70834L264.30536 366.89584L266.28973 366.89584ZM270.11786 375.4271Q270.11786 372.70834 271.36786 371.09897Q272.63348 369.4896 274.7116 369.4896Q276.8366 369.4896 278.0241 371.00522L278.11786 369.70834L279.93036 369.70834L279.93036 381.0521Q279.93036 383.31772 278.5866 384.6146Q277.25848 385.91147 275.00848 385.91147Q273.74286 385.91147 272.53973 385.3646Q271.3366 384.83334 270.7116 383.89584L271.74286 382.70834Q273.0241 384.28647 274.86786 384.28647Q276.32098 384.28647 277.13348 383.47397Q277.94598 382.66147 277.94598 381.1771L277.94598 380.1771Q276.74286 381.5521 274.68036 381.5521Q272.6491 381.5521 271.38348 379.91147Q270.11786 378.25522 270.11786 375.4271ZM272.11786 375.64584Q272.11786 377.6146 272.91473 378.7396Q273.72723 379.8646 275.18036 379.8646Q277.05536 379.8646 277.94598 378.14584L277.94598 372.84897Q277.0241 371.1771 275.19598 371.1771Q273.74286 371.1771 272.93036 372.31772Q272.11786 373.44272 272.11786 375.64584ZM288.2116 371.4896Q287.75848 371.41147 287.22723 371.41147Q285.2741 371.41147 284.57098 373.08334L284.57098 381.33334L282.5866 381.33334L282.5866 369.70834L284.5241 369.70834L284.55536 371.0521Q285.53973 369.4896 287.32098 369.4896Q287.91473 369.4896 288.2116 369.64584L288.2116 371.4896ZM294.41473 381.5521Q292.05536 381.5521 290.57098 380.00522Q289.0866 378.44272 289.0866 375.84897L289.0866 375.47397Q289.0866 373.75522 289.74286 372.39584Q290.41473 371.03647 291.5866 370.27084Q292.7741 369.4896 294.16473 369.4896Q296.43036 369.4896 297.68036 370.9896Q298.94598 372.47397 298.94598 375.27084L298.94598 376.08334L291.07098 376.08334Q291.11786 377.8021 292.07098 378.8646Q293.03973 379.9271 294.5241 379.9271Q295.57098 379.9271 296.30536 379.50522Q297.03973 379.06772 297.5866 378.3646L298.78973 379.3021Q297.3366 381.5521 294.41473 381.5521ZM294.16473 371.13022Q292.9616 371.13022 292.1491 372.00522Q291.3366 372.88022 291.13348 374.45834L296.9616 374.45834L296.9616 374.3021Q296.86786 372.78647 296.13348 371.95834Q295.41473 371.13022 294.16473 371.13022ZM306.50848 374.3646Q303.85223 373.59897 302.6491 372.4896Q301.44598 371.38022 301.44598 369.7396Q301.44598 367.89584 302.91473 366.69272Q304.3991 365.47397 306.75848 365.47397Q308.36786 365.47397 309.63348 366.09897Q310.8991 366.72397 311.5866 367.81772Q312.2741 368.91147 312.2741 370.20834L310.2116 370.20834Q310.2116 368.8021 309.30536 367.9896Q308.3991 367.1771 306.75848 367.1771Q305.22723 367.1771 304.36786 367.84897Q303.5241 368.52084 303.5241 369.70834Q303.5241 370.66147 304.3366 371.33334Q305.1491 371.9896 307.0866 372.53647Q309.03973 373.08334 310.13348 373.75522Q311.24286 374.41147 311.7741 375.28647Q312.30536 376.16147 312.30536 377.3646Q312.30536 379.25522 310.82098 380.41147Q309.35223 381.5521 306.86786 381.5521Q305.25848 381.5521 303.85223 380.94272Q302.4616 380.31772 301.69598 379.2396Q300.94598 378.16147 300.94598 376.8021L303.0241 376.8021Q303.0241 378.22397 304.07098 379.0521Q305.11786 379.8646 306.86786 379.8646Q308.49286 379.8646 309.36786 379.20834Q310.24286 378.53647 310.24286 377.38022Q310.24286 376.22397 309.43036 375.59897Q308.63348 374.97397 306.50848 374.3646ZM326.85223 374.02084Q326.85223 376.28647 326.13348 377.9271Q325.41473 379.56772 324.10223 380.4896L326.8991 382.6771L325.49286 383.97397L322.19598 381.34897Q321.43036 381.5521 320.57098 381.5521Q318.7116 381.5521 317.2741 380.64584Q315.85223 379.7396 315.05536 378.0521Q314.2741 376.3646 314.25848 374.16147L314.25848 373.03647Q314.25848 370.77084 315.03973 369.0521Q315.82098 367.31772 317.25848 366.39584Q318.69598 365.47397 320.53973 365.47397Q322.43036 365.47397 323.86786 366.39584Q325.30536 367.3021 326.07098 369.02084Q326.85223 370.72397 326.85223 373.02084L326.85223 374.02084ZM324.78973 373.00522Q324.78973 370.2396 323.68036 368.75522Q322.5866 367.25522 320.53973 367.25522Q318.60223 367.25522 317.47723 368.7396Q316.35223 370.22397 316.32098 372.8646L316.32098 374.02084Q316.32098 376.70834 317.44598 378.25522Q318.57098 379.8021 320.55536 379.8021Q322.55536 379.8021 323.6491 378.34897Q324.75848 376.88022 324.78973 374.16147L324.78973 373.00522ZM331.97723 379.64584L339.38348 379.64584L339.38348 381.33334L329.8991 381.33334L329.8991 365.69272L331.97723 365.69272L331.97723 379.64584Z" fill-rule="nonzero"/><path fill="#000000" d="M384.2372 365.69272L386.2997 365.69272L386.2997 376.77084Q386.2997 379.00522 384.95596 380.28647Q383.6122 381.5521 381.3622 381.5521Q379.0341 381.5521 377.7216 380.3646Q376.4247 379.16147 376.4247 377.02084L378.4872 377.02084Q378.4872 378.3646 379.2216 379.1146Q379.9716 379.8646 381.3622 379.8646Q382.64346 379.8646 383.4247 379.06772Q384.2216 378.25522 384.2372 376.8021L384.2372 365.69272ZM396.5497 381.33334Q396.37784 380.9896 396.26846 380.1146Q394.87784 381.5521 392.95596 381.5521Q391.2372 381.5521 390.12784 380.58334Q389.0341 379.59897 389.0341 378.1146Q389.0341 376.3021 390.4091 375.3021Q391.7997 374.28647 394.2997 374.28647L396.2372 374.28647L396.2372 373.38022Q396.2372 372.33334 395.6122 371.72397Q394.9872 371.09897 393.76846 371.09897Q392.70596 371.09897 391.9872 371.64584Q391.26846 372.1771 391.26846 372.9271L389.26846 372.9271Q389.26846 372.06772 389.87784 371.25522Q390.50284 370.44272 391.56534 369.97397Q392.62784 369.4896 393.89346 369.4896Q395.89346 369.4896 397.0341 370.50522Q398.1747 371.50522 398.2216 373.27084L398.2216 378.6146Q398.2216 380.20834 398.62784 381.16147L398.62784 381.33334L396.5497 381.33334ZM393.2372 379.81772Q394.1747 379.81772 395.01846 379.33334Q395.8622 378.84897 396.2372 378.08334L396.2372 375.69272L394.6747 375.69272Q391.01846 375.69272 391.01846 377.83334Q391.01846 378.77084 391.64346 379.3021Q392.26846 379.81772 393.2372 379.81772ZM405.20596 378.63022L408.08096 369.70834L410.1122 369.70834L405.94034 381.33334L404.4247 381.33334L400.2216 369.70834L402.25284 369.70834L405.20596 378.63022ZM419.5497 381.33334Q419.37784 380.9896 419.26846 380.1146Q417.87784 381.5521 415.95596 381.5521Q414.2372 381.5521 413.12784 380.58334Q412.0341 379.59897 412.0341 378.1146Q412.0341 376.3021 413.4091 375.3021Q414.7997 374.28647 417.2997 374.28647L419.2372 374.28647L419.2372 373.38022Q419.2372 372.33334 418.6122 371.72397Q417.9872 371.09897 416.76846 371.09897Q415.70596 371.09897 414.9872 371.64584Q414.26846 372.1771 414.26846 372.9271L412.26846 372.9271Q412.26846 372.06772 412.87784 371.25522Q413.50284 370.44272 414.56534 369.97397Q415.62784 369.4896 416.89346 369.4896Q418.89346 369.4896 420.0341 370.50522Q421.1747 371.50522 421.2216 373.27084L421.2216 378.6146Q421.2216 380.20834 421.62784 381.16147L421.62784 381.33334L419.5497 381.33334ZM416.2372 379.81772Q417.1747 379.81772 418.01846 379.33334Q418.8622 378.84897 419.2372 378.08334L419.2372 375.69272L417.6747 375.69272Q414.01846 375.69272 414.01846 377.83334Q414.01846 378.77084 414.64346 379.3021Q415.26846 379.81772 416.2372 379.81772ZM429.0341 379.9271Q430.0966 379.9271 430.87784 379.28647Q431.6747 378.63022 431.76846 377.6771L433.64346 377.6771Q433.5966 378.66147 432.95596 379.56772Q432.33096 380.47397 431.26846 381.02084Q430.20596 381.5521 429.0341 381.5521Q426.6591 381.5521 425.25284 379.97397Q423.8466 378.38022 423.8466 375.63022L423.8466 375.3021Q423.8466 373.59897 424.4716 372.28647Q425.0966 370.95834 426.25284 370.22397Q427.4247 369.4896 429.01846 369.4896Q430.9716 369.4896 432.26846 370.66147Q433.56534 371.83334 433.64346 373.70834L431.76846 373.70834Q431.6747 372.58334 430.9091 371.8646Q430.14346 371.13022 429.01846 371.13022Q427.50284 371.13022 426.6591 372.22397Q425.83096 373.3021 425.83096 375.3646L425.83096 375.7396Q425.83096 377.75522 426.6591 378.84897Q427.4872 379.9271 429.0341 379.9271Z" fill-rule="nonzero"/><path fill="#000000" d="M502.9503 381.33334L502.9503 365.69272L507.37216 365.69272Q509.4034 365.69272 510.9659 366.59897Q512.54407 367.4896 513.3878 369.16147Q514.2472 370.83334 514.2628 372.9896L514.2628 373.9896Q514.2628 376.19272 513.40344 377.8646Q512.5597 379.52084 510.9659 380.4271Q509.3878 381.31772 507.2784 381.33334L502.9503 381.33334ZM505.0128 367.39584L505.0128 379.64584L507.18466 379.64584Q509.5753 379.64584 510.9034 378.16147Q512.23157 376.6771 512.23157 373.94272L512.23157 373.03647Q512.23157 370.3646 510.9659 368.89584Q509.7159 367.41147 507.41904 367.39584L505.0128 367.39584ZM521.46594 381.5521Q519.10657 381.5521 517.6222 380.00522Q516.1378 378.44272 516.1378 375.84897L516.1378 375.47397Q516.1378 373.75522 516.79407 372.39584Q517.46594 371.03647 518.6378 370.27084Q519.8253 369.4896 521.21594 369.4896Q523.48157 369.4896 524.73157 370.9896Q525.9972 372.47397 525.9972 375.27084L525.9972 376.08334L518.1222 376.08334Q518.16907 377.8021 519.1222 378.8646Q520.09094 379.9271 521.5753 379.9271Q522.6222 379.9271 523.35657 379.50522Q524.09094 379.06772 524.6378 378.3646L525.84094 379.3021Q524.3878 381.5521 521.46594 381.5521ZM521.21594 371.13022Q520.0128 371.13022 519.2003 372.00522Q518.3878 372.88022 518.1847 374.45834L524.0128 374.45834L524.0128 374.3021Q523.91907 372.78647 523.1847 371.95834Q522.46594 371.13022 521.21594 371.13022ZM534.2628 371.4896Q533.8097 371.41147 533.27844 371.41147Q531.3253 371.41147 530.6222 373.08334L530.6222 381.33334L528.6378 381.33334L528.6378 369.70834L530.5753 369.70834L530.60657 371.0521Q531.59094 369.4896 533.3722 369.4896Q533.96594 369.4896 534.2628 369.64584L534.2628 371.4896ZM545.48157 375.64584Q545.48157 378.31772 544.2472 379.94272Q543.02844 381.5521 540.96594 381.5521Q538.7628 381.5521 537.5597 379.9896L537.46594 381.33334L535.6378 381.33334L535.6378 364.83334L537.6222 364.83334L537.6222 370.9896Q538.8253 369.4896 540.9347 369.4896Q543.0597 369.4896 544.2628 371.09897Q545.48157 372.69272 545.48157 375.47397L545.48157 375.64584ZM543.4972 375.4271Q543.4972 373.39584 542.7003 372.28647Q541.91907 371.1771 540.4503 371.1771Q538.48157 371.1771 537.6222 373.00522L537.6222 378.03647Q538.54407 379.8646 540.48157 379.8646Q541.90344 379.8646 542.7003 378.75522Q543.4972 377.64584 543.4972 375.4271ZM551.4503 378.4271L554.15344 369.70834L556.27844 369.70834L551.60657 383.13022Q550.52844 386.02084 548.15344 386.02084L547.77844 385.9896L547.04407 385.84897L547.04407 384.2396L547.5753 384.28647Q548.59094 384.28647 549.15344 383.88022Q549.71594 383.47397 550.0753 382.38022L550.52844 381.20834L546.3722 369.70834L548.54407 369.70834L551.4503 378.4271Z" fill-rule="nonzero"/><path fill="#000000" d="M628.25714 381.33334L626.179 381.33334L618.304 369.28647L618.304 381.33334L616.2259 381.33334L616.2259 365.69272L618.304 365.69272L626.19464 377.8021L626.19464 365.69272L628.25714 365.69272L628.25714 381.33334ZM631.39777 375.41147Q631.39777 373.70834 632.06964 372.34897Q632.7415 370.97397 633.929 370.2396Q635.13214 369.4896 636.6634 369.4896Q639.0384 369.4896 640.50714 371.14584Q641.9759 372.78647 641.9759 375.50522L641.9759 375.64584Q641.9759 377.34897 641.31964 378.69272Q640.679 380.03647 639.46027 380.8021Q638.25714 381.5521 636.69464 381.5521Q634.31964 381.5521 632.8509 379.91147Q631.39777 378.25522 631.39777 375.5521L631.39777 375.41147ZM633.38214 375.64584Q633.38214 377.58334 634.27277 378.75522Q635.179 379.9271 636.69464 379.9271Q638.19464 379.9271 639.08527 378.7396Q639.9915 377.5521 639.9915 375.41147Q639.9915 373.50522 639.06964 372.31772Q638.1634 371.13022 636.6634 371.13022Q635.19464 371.13022 634.2884 372.3021Q633.38214 373.47397 633.38214 375.64584ZM644.429 375.4271Q644.429 372.75522 645.69464 371.13022Q646.9759 369.4896 649.02277 369.4896Q651.06964 369.4896 652.25714 370.89584L652.25714 364.83334L654.2415 364.83334L654.2415 381.33334L652.4134 381.33334L652.31964 380.08334Q651.13214 381.5521 649.00714 381.5521Q646.9759 381.5521 645.69464 379.89584Q644.429 378.2396 644.429 375.56772L644.429 375.4271ZM646.429 375.64584Q646.429 377.63022 647.2415 378.75522Q648.054 379.8646 649.4915 379.8646Q651.38214 379.8646 652.25714 378.16147L652.25714 372.81772Q651.3665 371.1771 649.52277 371.1771Q648.054 371.1771 647.2415 372.31772Q646.429 373.44272 646.429 375.64584ZM661.7415 381.5521Q659.38214 381.5521 657.89777 380.00522Q656.4134 378.44272 656.4134 375.84897L656.4134 375.47397Q656.4134 373.75522 657.06964 372.39584Q657.7415 371.03647 658.9134 370.27084Q660.1009 369.4896 661.4915 369.4896Q663.75714 369.4896 665.00714 370.9896Q666.27277 372.47397 666.27277 375.27084L666.27277 376.08334L658.39777 376.08334Q658.44464 377.8021 659.39777 378.8646Q660.3665 379.9271 661.8509 379.9271Q662.89777 379.9271 663.63214 379.50522Q664.3665 379.06772 664.9134 378.3646L666.1165 379.3021Q664.6634 381.5521 661.7415 381.5521ZM661.4915 371.13022Q660.2884 371.13022 659.4759 372.00522Q658.6634 372.88022 658.46027 374.45834L664.2884 374.45834L664.2884 374.3021Q664.19464 372.78647 663.46027 371.95834Q662.7415 371.13022 661.4915 371.13022ZM668.96027 380.28647Q668.96027 379.77084 669.25714 379.4271Q669.56964 379.08334 670.179 379.08334Q670.804 379.08334 671.1165 379.4271Q671.429 379.77084 671.429 380.28647Q671.429 380.78647 671.1165 381.13022Q670.804 381.45834 670.179 381.45834Q669.56964 381.45834 669.25714 381.13022Q668.96027 380.78647 668.96027 380.28647ZM676.9759 369.70834L676.9759 382.6771Q676.9759 386.02084 673.929 386.02084Q673.27277 386.02084 672.71027 385.83334L672.71027 384.2396Q673.054 384.33334 673.6165 384.33334Q674.2884 384.33334 674.63214 383.97397Q674.9759 383.6146 674.9759 382.72397L674.9759 369.70834L676.9759 369.70834ZM674.77277 366.63022Q674.77277 366.16147 675.06964 365.81772Q675.3665 365.47397 675.94464 365.47397Q676.52277 365.47397 676.81964 365.81772Q677.1165 366.14584 677.1165 366.63022Q677.1165 367.1146 676.81964 367.44272Q676.52277 367.75522 675.929 367.75522Q675.3509 367.75522 675.054 367.44272Q674.77277 367.1146 674.77277 366.63022ZM686.679 378.25522Q686.679 377.44272 686.06964 377.00522Q685.4759 376.5521 683.96027 376.2396Q682.46027 375.91147 681.56964 375.45834Q680.679 375.00522 680.25714 374.38022Q679.83527 373.75522 679.83527 372.89584Q679.83527 371.47397 681.0384 370.4896Q682.2415 369.4896 684.13214 369.4896Q686.1009 369.4896 687.33527 370.52084Q688.56964 371.53647 688.56964 373.13022L686.56964 373.13022Q686.56964 372.3021 685.8665 371.72397Q685.179 371.13022 684.13214 371.13022Q683.0384 371.13022 682.429 371.59897Q681.81964 372.06772 681.81964 372.83334Q681.81964 373.5521 682.38214 373.9271Q682.96027 374.28647 684.44464 374.63022Q685.929 374.95834 686.8509 375.4271Q687.7884 375.88022 688.2259 376.53647Q688.679 377.1771 688.679 378.1146Q688.679 379.66147 687.429 380.6146Q686.179 381.5521 684.19464 381.5521Q682.804 381.5521 681.7259 381.0521Q680.64777 380.5521 680.0384 379.6771Q679.429 378.78647 679.429 377.75522L681.429 377.75522Q681.4759 378.75522 682.2259 379.34897Q682.9759 379.9271 684.19464 379.9271Q685.31964 379.9271 685.9915 379.47397Q686.679 379.00522 686.679 378.25522Z" fill-rule="nonzero"/><path fill="#000000" d="M745.17334 365.69272L750.2827 378.45834L755.3921 365.69272L758.06396 365.69272L758.06396 381.33334L756.00146 381.33334L756.00146 375.2396L756.2046 368.66147L751.06396 381.33334L749.48584 381.33334L744.36084 368.69272L744.56396 375.2396L744.56396 381.33334L742.50146 381.33334L742.50146 365.69272L745.17334 365.69272ZM765.00146 378.4271L767.7046 369.70834L769.8296 369.70834L765.1577 383.13022Q764.0796 386.02084 761.7046 386.02084L761.3296 385.9896L760.5952 385.84897L760.5952 384.2396L761.12646 384.28647Q762.1421 384.28647 762.7046 383.88022Q763.2671 383.47397 763.62646 382.38022L764.0796 381.20834L759.92334 369.70834L762.0952 369.70834L765.00146 378.4271ZM776.11084 374.3646Q773.4546 373.59897 772.25146 372.4896Q771.04834 371.38022 771.04834 369.7396Q771.04834 367.89584 772.5171 366.69272Q774.00146 365.47397 776.36084 365.47397Q777.9702 365.47397 779.23584 366.09897Q780.50146 366.72397 781.18896 367.81772Q781.87646 368.91147 781.87646 370.20834L779.81396 370.20834Q779.81396 368.8021 778.9077 367.9896Q778.00146 367.1771 776.36084 367.1771Q774.8296 367.1771 773.9702 367.84897Q773.12646 368.52084 773.12646 369.70834Q773.12646 370.66147 773.93896 371.33334Q774.75146 371.9896 776.68896 372.53647Q778.6421 373.08334 779.73584 373.75522Q780.8452 374.41147 781.37646 375.28647Q781.9077 376.16147 781.9077 377.3646Q781.9077 379.25522 780.42334 380.41147Q778.9546 381.5521 776.4702 381.5521Q774.86084 381.5521 773.4546 380.94272Q772.06396 380.31772 771.29834 379.2396Q770.54834 378.16147 770.54834 376.8021L772.62646 376.8021Q772.62646 378.22397 773.67334 379.0521Q774.7202 379.8646 776.4702 379.8646Q778.0952 379.8646 778.9702 379.20834Q779.8452 378.53647 779.8452 377.38022Q779.8452 376.22397 779.0327 375.59897Q778.23584 374.97397 776.11084 374.3646ZM796.4546 374.02084Q796.4546 376.28647 795.73584 377.9271Q795.0171 379.56772 793.7046 380.4896L796.50146 382.6771L795.0952 383.97397L791.79834 381.34897Q791.0327 381.5521 790.17334 381.5521Q788.31396 381.5521 786.87646 380.64584Q785.4546 379.7396 784.6577 378.0521Q783.87646 376.3646 783.86084 374.16147L783.86084 373.03647Q783.86084 370.77084 784.6421 369.0521Q785.42334 367.31772 786.86084 366.39584Q788.29834 365.47397 790.1421 365.47397Q792.0327 365.47397 793.4702 366.39584Q794.9077 367.3021 795.67334 369.02084Q796.4546 370.72397 796.4546 373.02084L796.4546 374.02084ZM794.3921 373.00522Q794.3921 370.2396 793.2827 368.75522Q792.18896 367.25522 790.1421 367.25522Q788.2046 367.25522 787.0796 368.7396Q785.9546 370.22397 785.92334 372.8646L785.92334 374.02084Q785.92334 376.70834 787.04834 378.25522Q788.17334 379.8021 790.1577 379.8021Q792.1577 379.8021 793.25146 378.34897Q794.36084 376.88022 794.3921 374.16147L794.3921 373.00522ZM801.5796 379.64584L808.98584 379.64584L808.98584 381.33334L799.50146 381.33334L799.50146 365.69272L801.5796 365.69272L801.5796 379.64584Z" fill-rule="nonzero"/><path fill="#4285f4" d="M210.0 410.9C210.0 410.34772 210.44771 409.9 211.0 409.9L221.0 409.9C221.55229 409.9 222.0 410.34772 222.0 410.9L222.0 420.9C222.0 421.45227 221.55229 421.9 221.0 421.9L211.0 421.9C210.44771 421.9 210.0 421.45227 210.0 420.9Z" fill-rule="nonzero"/><path fill="#000000" d="M238.21875 418.99374L235.375 418.99374L234.51562 423.4L232.98438 423.4L233.84375 418.99374L231.28125 418.99374L231.28125 417.525L234.125 417.525L234.85938 413.72812L232.09375 413.72812L232.09375 412.22812L235.15625 412.22812L236.03125 407.75937L237.57812 407.75937L236.6875 412.22812L239.53125 412.22812L240.40625 407.75937L241.95312 407.75937L241.07812 412.22812L243.26562 412.22812L243.26562 413.72812L240.78125 413.72812L240.04688 417.525L242.46875 417.525L242.46875 418.99374L239.76562 418.99374L238.90625 423.4L237.35938 423.4L238.21875 418.99374ZM235.65625 417.525L238.5 417.525L239.23438 413.72812L236.40625 413.72812L235.65625 417.525ZM250.8125 423.4L250.8125 407.75937L255.23438 407.75937Q257.26562 407.75937 258.82812 408.66562Q260.40625 409.55624 261.25 411.22812Q262.10938 412.9 262.125 415.05624L262.125 416.05624Q262.125 418.25937 261.26562 419.93124Q260.42188 421.5875 258.82812 422.49374Q257.25 423.38437 255.14062 423.4L250.8125 423.4ZM252.875 409.4625L252.875 421.7125L255.04688 421.7125Q257.4375 421.7125 258.76562 420.22812Q260.09375 418.74374 260.09375 416.00937L260.09375 415.10312Q260.09375 412.43124 258.82812 410.9625Q257.57812 409.47812 255.28125 409.4625L252.875 409.4625ZM271.6875 423.4Q271.51562 423.05624 271.40625 422.18124Q270.01562 423.61874 268.09375 423.61874Q266.375 423.61874 265.26562 422.65Q264.17188 421.66562 264.17188 420.18124Q264.17188 418.36874 265.54688 417.36874Q266.9375 416.35312 269.4375 416.35312L271.375 416.35312L271.375 415.44687Q271.375 414.4 270.75 413.79062Q270.125 413.16562 268.90625 413.16562Q267.84375 413.16562 267.125 413.7125Q266.40625 414.24374 266.40625 414.99374L264.40625 414.99374Q264.40625 414.13437 265.01562 413.32187Q265.64062 412.50937 266.70312 412.04062Q267.76562 411.55624 269.03125 411.55624Q271.03125 411.55624 272.17188 412.57187Q273.3125 413.57187 273.35938 415.3375L273.35938 420.68124Q273.35938 422.275 273.76562 423.22812L273.76562 423.4L271.6875 423.4ZM268.375 421.88437Q269.3125 421.88437 270.15625 421.4Q271.0 420.91562 271.375 420.15L271.375 417.75937L269.8125 417.75937Q266.15625 417.75937 266.15625 419.9Q266.15625 420.8375 266.78125 421.36874Q267.40625 421.88437 268.375 421.88437ZM279.20312 408.9625L279.20312 411.775L281.375 411.775L281.375 413.30624L279.20312 413.30624L279.20312 420.525Q279.20312 421.2125 279.48438 421.57187Q279.78125 421.91562 280.48438 421.91562Q280.82812 421.91562 281.42188 421.79062L281.42188 423.4Q280.64062 423.61874 279.90625 423.61874Q278.5625 423.61874 277.89062 422.82187Q277.21875 422.00937 277.21875 420.525L277.21875 413.30624L275.09375 413.30624L275.09375 411.775L277.21875 411.775L277.21875 408.9625L279.20312 408.9625ZM290.6875 423.4Q290.51562 423.05624 290.40625 422.18124Q289.01562 423.61874 287.09375 423.61874Q285.375 423.61874 284.26562 422.65Q283.17188 421.66562 283.17188 420.18124Q283.17188 418.36874 284.54688 417.36874Q285.9375 416.35312 288.4375 416.35312L290.375 416.35312L290.375 415.44687Q290.375 414.4 289.75 413.79062Q289.125 413.16562 287.90625 413.16562Q286.84375 413.16562 286.125 413.7125Q285.40625 414.24374 285.40625 414.99374L283.40625 414.99374Q283.40625 414.13437 284.01562 413.32187Q284.64062 412.50937 285.70312 412.04062Q286.76562 411.55624 288.03125 411.55624Q290.03125 411.55624 291.17188 412.57187Q292.3125 413.57187 292.35938 415.3375L292.35938 420.68124Q292.35938 422.275 292.76562 423.22812L292.76562 423.4L290.6875 423.4ZM287.375 421.88437Q288.3125 421.88437 289.15625 421.4Q290.0 420.91562 290.375 420.15L290.375 417.75937L288.8125 417.75937Q285.15625 417.75937 285.15625 419.9Q285.15625 420.8375 285.78125 421.36874Q286.40625 421.88437 287.375 421.88437ZM302.875 417.275L302.875 423.4L300.8125 423.4L300.8125 407.75937L306.57812 407.75937Q309.15625 407.75937 310.60938 409.07187Q312.0625 410.38437 312.0625 412.54062Q312.0625 414.82187 310.64062 416.05624Q309.21875 417.275 306.5625 417.275L302.875 417.275ZM302.875 415.5875L306.57812 415.5875Q308.23438 415.5875 309.10938 414.80624Q310.0 414.025 310.0 412.55624Q310.0 411.16562 309.10938 410.3375Q308.23438 409.49374 306.70312 409.4625L302.875 409.4625L302.875 415.5875ZM321.6875 423.4Q321.51562 423.05624 321.40625 422.18124Q320.01562 423.61874 318.09375 423.61874Q316.375 423.61874 315.26562 422.65Q314.17188 421.66562 314.17188 420.18124Q314.17188 418.36874 315.54688 417.36874Q316.9375 416.35312 319.4375 416.35312L321.375 416.35312L321.375 415.44687Q321.375 414.4 320.75 413.79062Q320.125 413.16562 318.90625 413.16562Q317.84375 413.16562 317.125 413.7125Q316.40625 414.24374 316.40625 414.99374L314.40625 414.99374Q314.40625 414.13437 315.01562 413.32187Q315.64062 412.50937 316.70312 412.04062Q317.76562 411.55624 319.03125 411.55624Q321.03125 411.55624 322.17188 412.57187Q323.3125 413.57187 323.35938 415.3375L323.35938 420.68124Q323.35938 422.275 323.76562 423.22812L323.76562 423.4L321.6875 423.4ZM318.375 421.88437Q319.3125 421.88437 320.15625 421.4Q321.0 420.91562 321.375 420.15L321.375 417.75937L319.8125 417.75937Q316.15625 417.75937 316.15625 419.9Q316.15625 420.8375 316.78125 421.36874Q317.40625 421.88437 318.375 421.88437ZM326.03125 417.49374Q326.03125 414.775 327.28125 413.16562Q328.54688 411.55624 330.625 411.55624Q332.75 411.55624 333.9375 413.07187L334.03125 411.775L335.84375 411.775L335.84375 423.11874Q335.84375 425.38437 334.5 426.68124Q333.17188 427.97812 330.92188 427.97812Q329.65625 427.97812 328.45312 427.43124Q327.25 426.9 326.625 425.9625L327.65625 424.775Q328.9375 426.35312 330.78125 426.35312Q332.23438 426.35312 333.04688 425.54062Q333.85938 424.72812 333.85938 423.24374L333.85938 422.24374Q332.65625 423.61874 330.59375 423.61874Q328.5625 423.61874 327.29688 421.97812Q326.03125 420.32187 326.03125 417.49374ZM328.03125 417.7125Q328.03125 419.68124 328.82812 420.80624Q329.64062 421.93124 331.09375 421.93124Q332.96875 421.93124 333.85938 420.2125L333.85938 414.91562Q332.9375 413.24374 331.10938 413.24374Q329.65625 413.24374 328.84375 414.38437Q328.03125 415.50937 328.03125 417.7125ZM343.32812 423.61874Q340.96875 423.61874 339.48438 422.07187Q338.0 420.50937 338.0 417.91562L338.0 417.54062Q338.0 415.82187 338.65625 414.4625Q339.32812 413.10312 340.5 412.3375Q341.6875 411.55624 343.07812 411.55624Q345.34375 411.55624 346.59375 413.05624Q347.85938 414.54062 347.85938 417.3375L347.85938 418.15L339.98438 418.15Q340.03125 419.86874 340.98438 420.93124Q341.95312 421.99374 343.4375 421.99374Q344.48438 421.99374 345.21875 421.57187Q345.95312 421.13437 346.5 420.43124L347.70312 421.36874Q346.25 423.61874 343.32812 423.61874ZM343.07812 413.19687Q341.875 413.19687 341.0625 414.07187Q340.25 414.94687 340.04688 416.525L345.875 416.525L345.875 416.36874Q345.78125 414.85312 345.04688 414.025Q344.32812 413.19687 343.07812 413.19687ZM359.1875 418.4625L359.48438 420.525L359.9375 418.66562L363.03125 407.75937L364.76562 407.75937L367.78125 418.66562L368.21875 420.55624L368.54688 418.4625L370.96875 407.75937L373.04688 407.75937L369.25 423.4L367.375 423.4L364.15625 412.00937L363.90625 410.80624L363.65625 412.00937L360.3125 423.4L358.4375 423.4L354.65625 407.75937L356.71875 407.75937L359.1875 418.4625ZM382.6875 423.4Q382.51562 423.05624 382.40625 422.18124Q381.01562 423.61874 379.09375 423.61874Q377.375 423.61874 376.26562 422.65Q375.17188 421.66562 375.17188 420.18124Q375.17188 418.36874 376.54688 417.36874Q377.9375 416.35312 380.4375 416.35312L382.375 416.35312L382.375 415.44687Q382.375 414.4 381.75 413.79062Q381.125 413.16562 379.90625 413.16562Q378.84375 413.16562 378.125 413.7125Q377.40625 414.24374 377.40625 414.99374L375.40625 414.99374Q375.40625 414.13437 376.01562 413.32187Q376.64062 412.50937 377.70312 412.04062Q378.76562 411.55624 380.03125 411.55624Q382.03125 411.55624 383.17188 412.57187Q384.3125 413.57187 384.35938 415.3375L384.35938 420.68124Q384.35938 422.275 384.76562 423.22812L384.76562 423.4L382.6875 423.4ZM379.375 421.88437Q380.3125 421.88437 381.15625 421.4Q382.0 420.91562 382.375 420.15L382.375 417.75937L380.8125 417.75937Q377.15625 417.75937 377.15625 419.9Q377.15625 420.8375 377.78125 421.36874Q378.40625 421.88437 379.375 421.88437ZM389.65625 423.4L387.67188 423.4L387.67188 406.9L389.65625 406.9L389.65625 423.4ZM395.75 418.025L394.5 419.32187L394.5 423.4L392.51562 423.4L392.51562 406.9L394.5 406.9L394.5 416.88437L395.5625 415.60312L399.1875 411.775L401.60938 411.775L397.07812 416.63437L402.125 423.4L399.79688 423.4L395.75 418.025ZM410.26562 420.32187Q410.26562 419.50937 409.65625 419.07187Q409.0625 418.61874 407.54688 418.30624Q406.04688 417.97812 405.15625 417.525Q404.26562 417.07187 403.84375 416.44687Q403.42188 415.82187 403.42188 414.9625Q403.42188 413.54062 404.625 412.55624Q405.82812 411.55624 407.71875 411.55624Q409.6875 411.55624 410.92188 412.5875Q412.15625 413.60312 412.15625 415.19687L410.15625 415.19687Q410.15625 414.36874 409.45312 413.79062Q408.76562 413.19687 407.71875 413.19687Q406.625 413.19687 406.01562 413.66562Q405.40625 414.13437 405.40625 414.9Q405.40625 415.61874 405.96875 415.99374Q406.54688 416.35312 408.03125 416.69687Q409.51562 417.025 410.4375 417.49374Q411.375 417.94687 411.8125 418.60312Q412.26562 419.24374 412.26562 420.18124Q412.26562 421.72812 411.01562 422.68124Q409.76562 423.61874 407.78125 423.61874Q406.39062 423.61874 405.3125 423.11874Q404.23438 422.61874 403.625 421.74374Q403.01562 420.85312 403.01562 419.82187L405.01562 419.82187Q405.0625 420.82187 405.8125 421.41562Q406.5625 421.99374 407.78125 421.99374Q408.90625 421.99374 409.57812 421.54062Q410.26562 421.07187 410.26562 420.32187Z" fill-rule="nonzero"/><path fill="#db4437" d="M429.0 410.9C429.0 410.34772 429.44772 409.9 430.0 409.9L440.0 409.9C440.55228 409.9 441.0 410.34772 441.0 410.9L441.0 420.9C441.0 421.45227 440.55228 421.9 440.0 421.9L430.0 421.9C429.44772 421.9 429.0 421.45227 429.0 420.9Z" fill-rule="nonzero"/><path fill="#000000" d="M450.8125 423.4L450.8125 407.75937L455.23438 407.75937Q457.26562 407.75937 458.82812 408.66562Q460.40625 409.55624 461.25 411.22812Q462.10938 412.9 462.125 415.05624L462.125 416.05624Q462.125 418.25937 461.26562 419.93124Q460.42188 421.5875 458.82812 422.49374Q457.25 423.38437 455.14062 423.4L450.8125 423.4ZM452.875 409.4625L452.875 421.7125L455.04688 421.7125Q457.4375 421.7125 458.76562 420.22812Q460.09375 418.74374 460.09375 416.00937L460.09375 415.10312Q460.09375 412.43124 458.82812 410.9625Q457.57812 409.47812 455.28125 409.4625L452.875 409.4625ZM471.6875 423.4Q471.51562 423.05624 471.40625 422.18124Q470.01562 423.61874 468.09375 423.61874Q466.375 423.61874 465.26562 422.65Q464.17188 421.66562 464.17188 420.18124Q464.17188 418.36874 465.54688 417.36874Q466.9375 416.35312 469.4375 416.35312L471.375 416.35312L471.375 415.44687Q471.375 414.4 470.75 413.79062Q470.125 413.16562 468.90625 413.16562Q467.84375 413.16562 467.125 413.7125Q466.40625 414.24374 466.40625 414.99374L464.40625 414.99374Q464.40625 414.13437 465.01562 413.32187Q465.64062 412.50937 466.70312 412.04062Q467.76562 411.55624 469.03125 411.55624Q471.03125 411.55624 472.17188 412.57187Q473.3125 413.57187 473.35938 415.3375L473.35938 420.68124Q473.35938 422.275 473.76562 423.22812L473.76562 423.4L471.6875 423.4ZM468.375 421.88437Q469.3125 421.88437 470.15625 421.4Q471.0 420.91562 471.375 420.15L471.375 417.75937L469.8125 417.75937Q466.15625 417.75937 466.15625 419.9Q466.15625 420.8375 466.78125 421.36874Q467.40625 421.88437 468.375 421.88437ZM479.20312 408.9625L479.20312 411.775L481.375 411.775L481.375 413.30624L479.20312 413.30624L479.20312 420.525Q479.20312 421.2125 479.48438 421.57187Q479.78125 421.91562 480.48438 421.91562Q480.82812 421.91562 481.42188 421.79062L481.42188 423.4Q480.64062 423.61874 479.90625 423.61874Q478.5625 423.61874 477.89062 422.82187Q477.21875 422.00937 477.21875 420.525L477.21875 413.30624L475.09375 413.30624L475.09375 411.775L477.21875 411.775L477.21875 408.9625L479.20312 408.9625ZM490.6875 423.4Q490.51562 423.05624 490.40625 422.18124Q489.01562 423.61874 487.09375 423.61874Q485.375 423.61874 484.26562 422.65Q483.17188 421.66562 483.17188 420.18124Q483.17188 418.36874 484.54688 417.36874Q485.9375 416.35312 488.4375 416.35312L490.375 416.35312L490.375 415.44687Q490.375 414.4 489.75 413.79062Q489.125 413.16562 487.90625 413.16562Q486.84375 413.16562 486.125 413.7125Q485.40625 414.24374 485.40625 414.99374L483.40625 414.99374Q483.40625 414.13437 484.01562 413.32187Q484.64062 412.50937 485.70312 412.04062Q486.76562 411.55624 488.03125 411.55624Q490.03125 411.55624 491.17188 412.57187Q492.3125 413.57187 492.35938 415.3375L492.35938 420.68124Q492.35938 422.275 492.76562 423.22812L492.76562 423.4L490.6875 423.4ZM487.375 421.88437Q488.3125 421.88437 489.15625 421.4Q490.0 420.91562 490.375 420.15L490.375 417.75937L488.8125 417.75937Q485.15625 417.75937 485.15625 419.9Q485.15625 420.8375 485.78125 421.36874Q486.40625 421.88437 487.375 421.88437ZM502.875 417.275L502.875 423.4L500.8125 423.4L500.8125 407.75937L506.57812 407.75937Q509.15625 407.75937 510.60938 409.07187Q512.0625 410.38437 512.0625 412.54062Q512.0625 414.82187 510.64062 416.05624Q509.21875 417.275 506.5625 417.275L502.875 417.275ZM502.875 415.5875L506.57812 415.5875Q508.23438 415.5875 509.10938 414.80624Q510.0 414.025 510.0 412.55624Q510.0 411.16562 509.10938 410.3375Q508.23438 409.49374 506.70312 409.4625L502.875 409.4625L502.875 415.5875ZM521.6875 423.4Q521.5156 423.05624 521.40625 422.18124Q520.0156 423.61874 518.09375 423.61874Q516.375 423.61874 515.2656 422.65Q514.1719 421.66562 514.1719 420.18124Q514.1719 418.36874 515.5469 417.36874Q516.9375 416.35312 519.4375 416.35312L521.375 416.35312L521.375 415.44687Q521.375 414.4 520.75 413.79062Q520.125 413.16562 518.90625 413.16562Q517.84375 413.16562 517.125 413.7125Q516.40625 414.24374 516.40625 414.99374L514.40625 414.99374Q514.40625 414.13437 515.0156 413.32187Q515.6406 412.50937 516.7031 412.04062Q517.7656 411.55624 519.03125 411.55624Q521.03125 411.55624 522.1719 412.57187Q523.3125 413.57187 523.3594 415.3375L523.3594 420.68124Q523.3594 422.275 523.7656 423.22812L523.7656 423.4L521.6875 423.4ZM518.375 421.88437Q519.3125 421.88437 520.15625 421.4Q521.0 420.91562 521.375 420.15L521.375 417.75937L519.8125 417.75937Q516.15625 417.75937 516.15625 419.9Q516.15625 420.8375 516.78125 421.36874Q517.40625 421.88437 518.375 421.88437ZM526.03125 417.49374Q526.03125 414.775 527.28125 413.16562Q528.5469 411.55624 530.625 411.55624Q532.75 411.55624 533.9375 413.07187L534.03125 411.775L535.84375 411.775L535.84375 423.11874Q535.84375 425.38437 534.5 426.68124Q533.1719 427.97812 530.9219 427.97812Q529.65625 427.97812 528.4531 427.43124Q527.25 426.9 526.625 425.9625L527.65625 424.775Q528.9375 426.35312 530.78125 426.35312Q532.2344 426.35312 533.0469 425.54062Q533.8594 424.72812 533.8594 423.24374L533.8594 422.24374Q532.65625 423.61874 530.59375 423.61874Q528.5625 423.61874 527.2969 421.97812Q526.03125 420.32187 526.03125 417.49374ZM528.03125 417.7125Q528.03125 419.68124 528.8281 420.80624Q529.6406 421.93124 531.09375 421.93124Q532.96875 421.93124 533.8594 420.2125L533.8594 414.91562Q532.9375 413.24374 531.1094 413.24374Q529.65625 413.24374 528.84375 414.38437Q528.03125 415.50937 528.03125 417.7125ZM543.3281 423.61874Q540.96875 423.61874 539.4844 422.07187Q538.0 420.50937 538.0 417.91562L538.0 417.54062Q538.0 415.82187 538.65625 414.4625Q539.3281 413.10312 540.5 412.3375Q541.6875 411.55624 543.0781 411.55624Q545.34375 411.55624 546.59375 413.05624Q547.8594 414.54062 547.8594 417.3375L547.8594 418.15L539.9844 418.15Q540.03125 419.86874 540.9844 420.93124Q541.9531 421.99374 543.4375 421.99374Q544.4844 421.99374 545.21875 421.57187Q545.9531 421.13437 546.5 420.43124L547.7031 421.36874Q546.25 423.61874 543.3281 423.61874ZM543.0781 413.19687Q541.875 413.19687 541.0625 414.07187Q540.25 414.94687 540.0469 416.525L545.875 416.525L545.875 416.36874Q545.78125 414.85312 545.0469 414.025Q544.3281 413.19687 543.0781 413.19687ZM559.1875 418.4625L559.4844 420.525L559.9375 418.66562L563.03125 407.75937L564.7656 407.75937L567.78125 418.66562L568.21875 420.55624L568.5469 418.4625L570.96875 407.75937L573.0469 407.75937L569.25 423.4L567.375 423.4L564.15625 412.00937L563.90625 410.80624L563.65625 412.00937L560.3125 423.4L558.4375 423.4L554.65625 407.75937L556.71875 407.75937L559.1875 418.4625ZM582.6875 423.4Q582.5156 423.05624 582.40625 422.18124Q581.0156 423.61874 579.09375 423.61874Q577.375 423.61874 576.2656 422.65Q575.1719 421.66562 575.1719 420.18124Q575.1719 418.36874 576.5469 417.36874Q577.9375 416.35312 580.4375 416.35312L582.375 416.35312L582.375 415.44687Q582.375 414.4 581.75 413.79062Q581.125 413.16562 579.90625 413.16562Q578.84375 413.16562 578.125 413.7125Q577.40625 414.24374 577.40625 414.99374L575.40625 414.99374Q575.40625 414.13437 576.0156 413.32187Q576.6406 412.50937 577.7031 412.04062Q578.7656 411.55624 580.03125 411.55624Q582.03125 411.55624 583.1719 412.57187Q584.3125 413.57187 584.3594 415.3375L584.3594 420.68124Q584.3594 422.275 584.7656 423.22812L584.7656 423.4L582.6875 423.4ZM579.375 421.88437Q580.3125 421.88437 581.15625 421.4Q582.0 420.91562 582.375 420.15L582.375 417.75937L580.8125 417.75937Q577.15625 417.75937 577.15625 419.9Q577.15625 420.8375 577.78125 421.36874Q578.40625 421.88437 579.375 421.88437ZM589.65625 423.4L587.6719 423.4L587.6719 406.9L589.65625 406.9L589.65625 423.4ZM595.75 418.025L594.5 419.32187L594.5 423.4L592.5156 423.4L592.5156 406.9L594.5 406.9L594.5 416.88437L595.5625 415.60312L599.1875 411.775L601.6094 411.775L597.0781 416.63437L602.125 423.4L599.7969 423.4L595.75 418.025ZM620.3281 418.43124Q620.03125 420.91562 618.4844 422.275Q616.9531 423.61874 614.3906 423.61874Q611.625 423.61874 609.9531 421.63437Q608.28125 419.63437 608.28125 416.30624L608.28125 414.80624Q608.28125 412.61874 609.0625 410.97812Q609.84375 409.32187 611.2656 408.43124Q612.6875 407.54062 614.5781 407.54062Q617.0625 407.54062 618.5625 408.93124Q620.0781 410.32187 620.3281 412.79062L618.25 412.79062Q617.9844 410.91562 617.0781 410.0875Q616.1875 409.24374 614.5781 409.24374Q612.59375 409.24374 611.46875 410.7125Q610.3594 412.16562 610.3594 414.85312L610.3594 416.36874Q610.3594 418.91562 611.4219 420.43124Q612.4844 421.93124 614.3906 421.93124Q616.1094 421.93124 617.03125 421.15Q617.9531 420.36874 618.25 418.43124L620.3281 418.43124ZM626.3125 420.49374L629.0156 411.775L631.1406 411.775L626.46875 425.19687Q625.3906 428.0875 623.0156 428.0875L622.6406 428.05624L621.90625 427.91562L621.90625 426.30624L622.4375 426.35312Q623.4531 426.35312 624.0156 425.94687Q624.5781 425.54062 624.9375 424.44687L625.3906 423.275L621.2344 411.775L623.40625 411.775L626.3125 420.49374ZM637.1719 421.99374Q638.2344 421.99374 639.0156 421.35312Q639.8125 420.69687 639.90625 419.74374L641.78125 419.74374Q641.7344 420.72812 641.09375 421.63437Q640.46875 422.54062 639.40625 423.0875Q638.34375 423.61874 637.1719 423.61874Q634.7969 423.61874 633.3906 422.04062Q631.9844 420.44687 631.9844 417.69687L631.9844 417.36874Q631.9844 415.66562 632.6094 414.35312Q633.2344 413.025 634.3906 412.29062Q635.5625 411.55624 637.15625 411.55624Q639.1094 411.55624 640.40625 412.72812Q641.7031 413.9 641.78125 415.775L639.90625 415.775Q639.8125 414.65 639.0469 413.93124Q638.28125 413.19687 637.15625 413.19687Q635.6406 413.19687 634.7969 414.29062Q633.96875 415.36874 633.96875 417.43124L633.96875 417.80624Q633.96875 419.82187 634.7969 420.91562Q635.625 421.99374 637.1719 421.99374ZM646.65625 423.4L644.6719 423.4L644.6719 406.9L646.65625 406.9L646.65625 423.4ZM654.3281 423.61874Q651.96875 423.61874 650.4844 422.07187Q649.0 420.50937 649.0 417.91562L649.0 417.54062Q649.0 415.82187 649.65625 414.4625Q650.3281 413.10312 651.5 412.3375Q652.6875 411.55624 654.0781 411.55624Q656.34375 411.55624 657.59375 413.05624Q658.8594 414.54062 658.8594 417.3375L658.8594 418.15L650.9844 418.15Q651.03125 419.86874 651.9844 420.93124Q652.9531 421.99374 654.4375 421.99374Q655.4844 421.99374 656.21875 421.57187Q656.9531 421.13437 657.5 420.43124L658.7031 421.36874Q657.25 423.61874 654.3281 423.61874ZM654.0781 413.19687Q652.875 413.19687 652.0625 414.07187Q651.25 414.94687 651.0469 416.525L656.875 416.525L656.875 416.36874Q656.78125 414.85312 656.0469 414.025Q655.3281 413.19687 654.0781 413.19687ZM668.2656 420.32187Q668.2656 419.50937 667.65625 419.07187Q667.0625 418.61874 665.5469 418.30624Q664.0469 417.97812 663.15625 417.525Q662.2656 417.07187 661.84375 416.44687Q661.4219 415.82187 661.4219 414.9625Q661.4219 413.54062 662.625 412.55624Q663.8281 411.55624 665.71875 411.55624Q667.6875 411.55624 668.9219 412.5875Q670.15625 413.60312 670.15625 415.19687L668.15625 415.19687Q668.15625 414.36874 667.4531 413.79062Q666.7656 413.19687 665.71875 413.19687Q664.625 413.19687 664.0156 413.66562Q663.40625 414.13437 663.40625 414.9Q663.40625 415.61874 663.96875 415.99374Q664.5469 416.35312 666.03125 416.69687Q667.5156 417.025 668.4375 417.49374Q669.375 417.94687 669.8125 418.60312Q670.2656 419.24374 670.2656 420.18124Q670.2656 421.72812 669.0156 422.68124Q667.7656 423.61874 665.78125 423.61874Q664.3906 423.61874 663.3125 423.11874Q662.2344 422.61874 661.625 421.74374Q661.0156 420.85312 661.0156 419.82187L663.0156 419.82187Q663.0625 420.82187 663.8125 421.41562Q664.5625 421.99374 665.78125 421.99374Q666.90625 421.99374 667.5781 421.54062Q668.2656 421.07187 668.2656 420.32187Z" fill-rule="nonzero"/><path fill="#000000" d="M36.365623 30.381248L30.88125 30.381248L30.88125 45.6L28.646875 45.6L28.646875 30.381248L23.178125 30.381248L23.178125 28.537498L36.365623 28.537498L36.365623 30.381248ZM40.4125 34.459373Q41.85 32.678123 44.1625 32.678123Q48.178123 32.678123 48.209373 37.225L48.209373 45.6L46.053123 45.6L46.053123 37.209373Q46.0375 35.834373 45.4125 35.178123Q44.803123 34.521873 43.50625 34.521873Q42.44375 34.521873 41.646873 35.084373Q40.85 35.646873 40.4125 36.56875L40.4125 45.6L38.240623 45.6L38.240623 27.599998L40.4125 27.599998L40.4125 34.459373ZM57.365623 34.865623Q56.88125 34.7875 56.303123 34.7875Q54.178123 34.7875 53.4125 36.6L53.4125 45.6L51.240623 45.6L51.240623 32.9125L53.35 32.9125L53.38125 34.38125Q54.459373 32.678123 56.4125 32.678123Q57.0375 32.678123 57.365623 32.85L57.365623 34.865623ZM64.50625 45.834373Q61.928123 45.834373 60.303123 44.146873Q58.69375 42.44375 58.69375 39.615623L58.69375 39.209373Q58.69375 37.31875 59.4125 35.85Q60.13125 34.365623 61.428123 33.521873Q62.725 32.678123 64.24062 32.678123Q66.70937 32.678123 68.06875 34.31875Q69.44375 35.94375 69.44375 38.975L69.44375 39.88125L60.865623 39.88125Q60.9125 41.75625 61.959373 42.9125Q63.00625 44.06875 64.61562 44.06875Q65.77187 44.06875 66.56875 43.6Q67.36562 43.13125 67.95937 42.35L69.2875 43.38125Q67.69375 45.834373 64.50625 45.834373ZM64.24062 34.459373Q62.928123 34.459373 62.0375 35.428123Q61.146873 36.38125 60.928123 38.1L67.2875 38.1L67.2875 37.928123Q67.19375 36.2875 66.39687 35.38125Q65.6 34.459373 64.24062 34.459373ZM79.63125 42.240623Q79.63125 41.35 78.95937 40.865623Q78.30312 40.38125 76.64687 40.0375Q75.00625 39.678123 74.0375 39.19375Q73.06875 38.69375 72.6 38.021873Q72.14687 37.334373 72.14687 36.396873Q72.14687 34.834373 73.45937 33.75625Q74.7875 32.678123 76.83437 32.678123Q78.99062 32.678123 80.33437 33.803123Q81.67812 34.9125 81.67812 36.646873L79.49062 36.646873Q79.49062 35.75625 78.74062 35.115623Q77.99062 34.459373 76.83437 34.459373Q75.64687 34.459373 74.975 34.975Q74.31875 35.490623 74.31875 36.334373Q74.31875 37.115623 74.92812 37.521873Q75.55312 37.9125 77.17812 38.271873Q78.80312 38.63125 79.80312 39.146873Q80.81875 39.646873 81.30312 40.365623Q81.7875 41.06875 81.7875 42.084373Q81.7875 43.7875 80.42812 44.81875Q79.06875 45.834373 76.9125 45.834373Q75.38125 45.834373 74.20937 45.303123Q73.0375 44.75625 72.36562 43.7875Q71.70937 42.81875 71.70937 41.69375L73.88125 41.69375Q73.94375 42.7875 74.75625 43.428123Q75.56875 44.06875 76.9125 44.06875Q78.13125 44.06875 78.88125 43.56875Q79.63125 43.06875 79.63125 42.240623ZM86.4125 34.459373Q87.85 32.678123 90.1625 32.678123Q94.17812 32.678123 94.20937 37.225L94.20937 45.6L92.05312 45.6L92.05312 37.209373Q92.0375 35.834373 91.4125 35.178123Q90.80312 34.521873 89.50625 34.521873Q88.44375 34.521873 87.64687 35.084373Q86.85 35.646873 86.4125 36.56875L86.4125 45.6L84.24062 45.6L84.24062 27.599998L86.4125 27.599998L86.4125 34.459373ZM96.6625 39.146873Q96.6625 37.271873 97.39687 35.7875Q98.13125 34.303123 99.42812 33.490623Q100.74062 32.678123 102.42812 32.678123Q105.00625 32.678123 106.6 34.475Q108.20937 36.271873 108.20937 39.240623L108.20937 39.396873Q108.20937 41.25625 107.49062 42.725Q106.7875 44.19375 105.475 45.021873Q104.1625 45.834373 102.44375 45.834373Q99.86562 45.834373 98.25625 44.0375Q96.6625 42.240623 96.6625 39.2875L96.6625 39.146873ZM98.85 39.396873Q98.85 41.50625 99.81875 42.7875Q100.80312 44.06875 102.44375 44.06875Q104.1 44.06875 105.06875 42.771873Q106.0375 41.475 106.0375 39.146873Q106.0375 37.053123 105.05312 35.75625Q104.06875 34.459373 102.42812 34.459373Q100.81875 34.459373 99.83437 35.740623Q98.85 37.021873 98.85 39.396873ZM113.6 45.6L111.42812 45.6L111.42812 27.599998L113.6 27.599998L113.6 45.6ZM116.70937 39.146873Q116.70937 36.240623 118.08437 34.459373Q119.475 32.678123 121.725 32.678123Q123.94375 32.678123 125.24062 34.209373L125.24062 27.599998L127.4125 27.599998L127.4125 45.6L125.42812 45.6L125.31875 44.240623Q124.02187 45.834373 121.69375 45.834373Q119.49062 45.834373 118.1 44.0375Q116.70937 42.225 116.70937 39.31875L116.70937 39.146873ZM118.88125 39.396873Q118.88125 41.553123 119.77187 42.771873Q120.6625 43.990623 122.24062 43.990623Q124.30312 43.990623 125.24062 42.146873L125.24062 36.31875Q124.27187 34.521873 122.25625 34.521873Q120.6625 34.521873 119.77187 35.75625Q118.88125 36.990623 118.88125 39.396873ZM131.1625 38.678123Q131.1625 36.021873 131.86563 33.584373Q132.58438 31.146873 133.99063 29.162498Q135.39688 27.162498 136.89688 26.349998L137.35 27.771873Q135.63126 29.084373 134.5375 31.787498Q133.44376 34.475 133.33438 37.81875L133.33438 38.81875Q133.33438 43.334373 134.975 46.6625Q135.975 48.6625 137.35 49.7875L136.89688 51.115623Q135.35 50.240623 133.92813 48.209373Q131.1625 44.209373 131.1625 38.678123ZM146.14688 45.6L143.95938 45.6L143.95938 31.146873L139.6 32.75625L139.6 30.787498L145.80313 28.459373L146.14688 28.459373L146.14688 45.6ZM157.24063 38.7875Q157.24063 41.396873 156.55313 43.803123Q155.88126 46.19375 154.45938 48.225Q153.05313 50.25625 151.50626 51.115623L151.05313 49.7875Q152.85 48.396873 153.94376 45.490623Q155.0375 42.56875 155.06876 39.021873L155.06876 38.646873Q155.06876 36.19375 154.55313 34.084373Q154.0375 31.959373 153.11563 30.287498Q152.19376 28.599998 151.05313 27.662498L151.50626 26.349998Q153.05313 27.193748 154.44376 29.209373Q155.85 31.209373 156.5375 33.63125Q157.24063 36.0375 157.24063 38.7875ZM166.58438 45.6L166.58438 28.537498L171.39688 28.537498Q173.63126 28.537498 175.33438 29.521873Q177.05313 30.506248 177.975 32.31875Q178.9125 34.13125 178.92813 36.490623L178.92813 37.584373Q178.92813 39.990623 177.99063 41.81875Q177.05313 43.63125 175.31876 44.6Q173.6 45.56875 171.30313 45.6L166.58438 45.6ZM168.83438 30.381248L168.83438 43.75625L171.19376 43.75625Q173.80313 43.75625 175.24063 42.146873Q176.69376 40.521873 176.69376 37.5375L176.69376 36.5375Q176.69376 33.63125 175.31876 32.021873Q173.95938 30.412498 171.45938 30.381248L168.83438 30.381248ZM190.06876 45.6Q189.88126 45.225 189.77188 44.25625Q188.25626 45.834373 186.1625 45.834373Q184.2875 45.834373 183.08438 44.771873Q181.88126 43.709373 181.88126 42.084373Q181.88126 40.1 183.38126 39.00625Q184.89688 37.9125 187.61563 37.9125L189.725 37.9125L189.725 36.9125Q189.725 35.771873 189.0375 35.1Q188.36563 34.428123 187.05313 34.428123Q185.88126 34.428123 185.1 35.021873Q184.31876 35.6 184.31876 36.428123L182.13126 36.428123Q182.13126 35.490623 182.80313 34.6Q183.49063 33.709373 184.63126 33.19375Q185.7875 32.678123 187.17813 32.678123Q189.36563 32.678123 190.6 33.7875Q191.85 34.88125 191.89688 36.803123L191.89688 42.63125Q191.89688 44.38125 192.35 45.4125L192.35 45.6L190.06876 45.6ZM186.475 43.94375Q187.49063 43.94375 188.39688 43.428123Q189.31876 42.896873 189.725 42.053123L189.725 39.44375L188.0375 39.44375Q184.05313 39.44375 184.05313 41.771873Q184.05313 42.803123 184.725 43.38125Q185.4125 43.94375 186.475 43.94375ZM198.17813 29.849998L198.17813 32.9125L200.55313 32.9125L200.55313 34.6L198.17813 34.6L198.17813 42.459373Q198.17813 43.225 198.49063 43.6Q198.81876 43.975 199.58438 43.975Q199.95938 43.975 200.61563 43.834373L200.61563 45.6Q199.75626 45.834373 198.94376 45.834373Q197.49063 45.834373 196.75626 44.959373Q196.02188 44.06875 196.02188 42.459373L196.02188 34.6L193.70938 34.6L193.70938 32.9125L196.02188 32.9125L196.02188 29.849998L198.17813 29.849998ZM211.06876 45.6Q210.88126 45.225 210.77188 44.25625Q209.25626 45.834373 207.1625 45.834373Q205.2875 45.834373 204.08438 44.771873Q202.88126 43.709373 202.88126 42.084373Q202.88126 40.1 204.38126 39.00625Q205.89688 37.9125 208.61563 37.9125L210.725 37.9125L210.725 36.9125Q210.725 35.771873 210.0375 35.1Q209.36563 34.428123 208.05313 34.428123Q206.88126 34.428123 206.1 35.021873Q205.31876 35.6 205.31876 36.428123L203.13126 36.428123Q203.13126 35.490623 203.80313 34.6Q204.49063 33.709373 205.63126 33.19375Q206.7875 32.678123 208.17813 32.678123Q210.36563 32.678123 211.6 33.7875Q212.85 34.88125 212.89688 36.803123L212.89688 42.63125Q212.89688 44.38125 213.35 45.4125L213.35 45.6L211.06876 45.6ZM207.475 43.94375Q208.49063 43.94375 209.39688 43.428123Q210.31876 42.896873 210.725 42.053123L210.725 39.44375L209.0375 39.44375Q205.05313 39.44375 205.05313 41.771873Q205.05313 42.803123 205.725 43.38125Q206.4125 43.94375 207.475 43.94375ZM224.83438 38.9125L224.83438 45.6L222.58438 45.6L222.58438 28.537498L228.88126 28.537498Q231.67813 28.537498 233.25626 29.974998Q234.85 31.396873 234.85 33.75625Q234.85 36.240623 233.2875 37.584373Q231.74063 38.9125 228.85 38.9125L224.83438 38.9125ZM224.83438 37.084373L228.88126 37.084373Q230.67813 37.084373 231.63126 36.240623Q232.6 35.38125 232.6 33.771873Q232.6 32.25625 231.63126 31.349998Q230.67813 30.428123 229.00626 30.381248L224.83438 30.381248L224.83438 37.084373ZM245.06876 45.6Q244.88126 45.225 244.77188 44.25625Q243.25626 45.834373 241.1625 45.834373Q239.2875 45.834373 238.08438 44.771873Q236.88126 43.709373 236.88126 42.084373Q236.88126 40.1 238.38126 39.00625Q239.89688 37.9125 242.61563 37.9125L244.725 37.9125L244.725 36.9125Q244.725 35.771873 244.0375 35.1Q243.36563 34.428123 242.05313 34.428123Q240.88126 34.428123 240.1 35.021873Q239.31876 35.6 239.31876 36.428123L237.13126 36.428123Q237.13126 35.490623 237.80313 34.6Q238.49063 33.709373 239.63126 33.19375Q240.7875 32.678123 242.17813 32.678123Q244.36563 32.678123 245.6 33.7875Q246.85 34.88125 246.89688 36.803123L246.89688 42.63125Q246.89688 44.38125 247.35 45.4125L247.35 45.6L245.06876 45.6ZM241.475 43.94375Q242.49063 43.94375 243.39688 43.428123Q244.31876 42.896873 244.725 42.053123L244.725 39.44375L243.0375 39.44375Q239.05313 39.44375 239.05313 41.771873Q239.05313 42.803123 239.725 43.38125Q240.4125 43.94375 241.475 43.94375ZM249.725 39.146873Q249.725 36.19375 251.1 34.44375Q252.475 32.678123 254.725 32.678123Q257.05313 32.678123 258.35 34.31875L258.45938 32.9125L260.44376 32.9125L260.44376 45.2875Q260.44376 47.75625 258.975 49.178123Q257.52188 50.6 255.05313 50.6Q253.69376 50.6 252.38126 50.00625Q251.06876 49.428123 250.36563 48.396873L251.49063 47.1Q252.89688 48.81875 254.9125 48.81875Q256.49063 48.81875 257.36563 47.928123Q258.25626 47.0375 258.25626 45.428123L258.25626 44.334373Q256.95938 45.834373 254.70938 45.834373Q252.475 45.834373 251.1 44.0375Q249.725 42.240623 249.725 39.146873ZM251.9125 39.396873Q251.9125 41.5375 252.7875 42.771873Q253.6625 43.990623 255.24063 43.990623Q257.30313 43.990623 258.25626 42.13125L258.25626 36.334373Q257.25626 34.521873 255.27188 34.521873Q253.69376 34.521873 252.80313 35.75625Q251.9125 36.990623 251.9125 39.396873ZM268.50626 45.834373Q265.92813 45.834373 264.30313 44.146873Q262.69376 42.44375 262.69376 39.615623L262.69376 39.209373Q262.69376 37.31875 263.4125 35.85Q264.13126 34.365623 265.42813 33.521873Q266.725 32.678123 268.24063 32.678123Q270.70938 32.678123 272.06876 34.31875Q273.44376 35.94375 273.44376 38.975L273.44376 39.88125L264.86563 39.88125Q264.9125 41.75625 265.95938 42.9125Q267.00626 44.06875 268.61563 44.06875Q269.77188 44.06875 270.56876 43.6Q271.36563 43.13125 271.95938 42.35L273.2875 43.38125Q271.69376 45.834373 268.50626 45.834373ZM268.24063 34.459373Q266.92813 34.459373 266.0375 35.428123Q265.14688 36.38125 264.92813 38.1L271.2875 38.1L271.2875 37.928123Q271.19376 36.2875 270.39688 35.38125Q269.6 34.459373 268.24063 34.459373ZM286.25626 40.225L286.58438 42.475L287.06876 40.44375L290.44376 28.537498L292.35 28.537498L295.63126 40.44375L296.1 42.50625L296.475 40.209373L299.11563 28.537498L301.38126 28.537498L297.24063 45.6L295.19376 45.6L291.67813 33.1625L291.4125 31.865623L291.13126 33.1625L287.49063 45.6L285.44376 45.6L281.31876 28.537498L283.56876 28.537498L286.25626 40.225ZM311.06876 45.6Q310.88126 45.225 310.77188 44.25625Q309.25626 45.834373 307.1625 45.834373Q305.2875 45.834373 304.08438 44.771873Q302.88126 43.709373 302.88126 42.084373Q302.88126 40.1 304.38126 39.00625Q305.89688 37.9125 308.61563 37.9125L310.725 37.9125L310.725 36.9125Q310.725 35.771873 310.0375 35.1Q309.36563 34.428123 308.05313 34.428123Q306.88126 34.428123 306.1 35.021873Q305.31876 35.6 305.31876 36.428123L303.13126 36.428123Q303.13126 35.490623 303.80313 34.6Q304.49063 33.709373 305.63126 33.19375Q306.7875 32.678123 308.17813 32.678123Q310.36563 32.678123 311.6 33.7875Q312.85 34.88125 312.89688 36.803123L312.89688 42.63125Q312.89688 44.38125 313.35 45.4125L313.35 45.6L311.06876 45.6ZM307.475 43.94375Q308.49063 43.94375 309.39688 43.428123Q310.31876 42.896873 310.725 42.053123L310.725 39.44375L309.0375 39.44375Q305.05313 39.44375 305.05313 41.771873Q305.05313 42.803123 305.725 43.38125Q306.4125 43.94375 307.475 43.94375ZM318.6 45.6L316.42813 45.6L316.42813 27.599998L318.6 27.599998L318.6 45.6ZM325.7875 39.725L324.42813 41.146873L324.42813 45.6L322.25626 45.6L322.25626 27.599998L324.42813 27.599998L324.42813 38.490623L325.58438 37.084373L329.5375 32.9125L332.1625 32.9125L327.24063 38.209373L332.74063 45.6L330.19376 45.6L325.7875 39.725ZM353.69376 45.6L351.42813 45.6L342.85 32.44375L342.85 45.6L340.58438 45.6L340.58438 28.537498L342.85 28.537498L351.45938 41.740623L351.45938 28.537498L353.69376 28.537498L353.69376 45.6ZM356.6625 39.146873Q356.6625 37.271873 357.39688 35.7875Q358.13126 34.303123 359.42813 33.490623Q360.74063 32.678123 362.42813 32.678123Q365.00626 32.678123 366.6 34.475Q368.20938 36.271873 368.20938 39.240623L368.20938 39.396873Q368.20938 41.25625 367.49063 42.725Q366.7875 44.19375 365.475 45.021873Q364.1625 45.834373 362.44376 45.834373Q359.86563 45.834373 358.25626 44.0375Q356.6625 42.240623 356.6625 39.2875L356.6625 39.146873ZM358.85 39.396873Q358.85 41.50625 359.81876 42.7875Q360.80313 44.06875 362.44376 44.06875Q364.1 44.06875 365.06876 42.771873Q366.0375 41.475 366.0375 39.146873Q366.0375 37.053123 365.05313 35.75625Q364.06876 34.459373 362.42813 34.459373Q360.81876 34.459373 359.83438 35.740623Q358.85 37.021873 358.85 39.396873ZM377.36563 34.865623Q376.88126 34.7875 376.30313 34.7875Q374.17813 34.7875 373.4125 36.6L373.4125 45.6L371.24063 45.6L371.24063 32.9125L373.35 32.9125L373.38126 34.38125Q374.45938 32.678123 376.4125 32.678123Q377.0375 32.678123 377.36563 32.85L377.36563 34.865623ZM381.2875 32.9125L381.33438 34.31875Q382.74063 32.678123 385.1 32.678123Q387.75626 32.678123 388.725 34.725Q389.35 33.803123 390.36563 33.240623Q391.38126 32.678123 392.77188 32.678123Q396.94376 32.678123 397.00626 37.1L397.00626 45.6L394.83438 45.6L394.83438 37.225Q394.83438 35.865623 394.20938 35.19375Q393.6 34.521873 392.13126 34.521873Q390.92813 34.521873 390.13126 35.240623Q389.33438 35.959373 389.20938 37.178123L389.20938 45.6L387.02188 45.6L387.02188 37.2875Q387.02188 34.521873 384.31876 34.521873Q382.17813 34.521873 381.39688 36.334373L381.39688 45.6L379.225 45.6L379.225 32.9125L381.2875 32.9125ZM408.06876 45.6Q407.88126 45.225 407.77188 44.25625Q406.25626 45.834373 404.1625 45.834373Q402.2875 45.834373 401.08438 44.771873Q399.88126 43.709373 399.88126 42.084373Q399.88126 40.1 401.38126 39.00625Q402.89688 37.9125 405.61563 37.9125L407.725 37.9125L407.725 36.9125Q407.725 35.771873 407.0375 35.1Q406.36563 34.428123 405.05313 34.428123Q403.88126 34.428123 403.1 35.021873Q402.31876 35.6 402.31876 36.428123L400.13126 36.428123Q400.13126 35.490623 400.80313 34.6Q401.49063 33.709373 402.63126 33.19375Q403.7875 32.678123 405.17813 32.678123Q407.36563 32.678123 408.6 33.7875Q409.85 34.88125 409.89688 36.803123L409.89688 42.63125Q409.89688 44.38125 410.35 45.4125L410.35 45.6L408.06876 45.6ZM404.475 43.94375Q405.49063 43.94375 406.39688 43.428123Q407.31876 42.896873 407.725 42.053123L407.725 39.44375L406.0375 39.44375Q402.05313 39.44375 402.05313 41.771873Q402.05313 42.803123 402.725 43.38125Q403.4125 43.94375 404.475 43.94375ZM415.6 45.6L413.42813 45.6L413.42813 27.599998L415.6 27.599998L415.6 45.6ZM421.6 45.6L419.42813 45.6L419.42813 32.9125L421.6 32.9125L421.6 45.6ZM419.25626 29.553123Q419.25626 29.021873 419.56876 28.662498Q419.89688 28.303123 420.52188 28.303123Q421.1625 28.303123 421.49063 28.662498Q421.81876 29.021873 421.81876 29.553123Q421.81876 30.084373 421.49063 30.443748Q421.1625 30.787498 420.52188 30.787498Q419.89688 30.787498 419.56876 30.443748Q419.25626 30.084373 419.25626 29.553123ZM427.2875 43.834373L434.69376 43.834373L434.69376 45.6L424.63126 45.6L424.63126 44.00625L431.63126 34.709373L424.74063 34.709373L424.74063 32.9125L434.35 32.9125L434.35 34.459373L427.2875 43.834373ZM442.50626 45.834373Q439.92813 45.834373 438.30313 44.146873Q436.69376 42.44375 436.69376 39.615623L436.69376 39.209373Q436.69376 37.31875 437.4125 35.85Q438.13126 34.365623 439.42813 33.521873Q440.725 32.678123 442.24063 32.678123Q444.70938 32.678123 446.06876 34.31875Q447.44376 35.94375 447.44376 38.975L447.44376 39.88125L438.86563 39.88125Q438.9125 41.75625 439.95938 42.9125Q441.00626 44.06875 442.61563 44.06875Q443.77188 44.06875 444.56876 43.6Q445.36563 43.13125 445.95938 42.35L447.2875 43.38125Q445.69376 45.834373 442.50626 45.834373ZM442.24063 34.459373Q440.92813 34.459373 440.0375 35.428123Q439.14688 36.38125 438.92813 38.1L445.2875 38.1L445.2875 37.928123Q445.19376 36.2875 444.39688 35.38125Q443.6 34.459373 442.24063 34.459373ZM449.70938 39.146873Q449.70938 36.240623 451.08438 34.459373Q452.475 32.678123 454.725 32.678123Q456.94376 32.678123 458.24063 34.209373L458.24063 27.599998L460.4125 27.599998L460.4125 45.6L458.42813 45.6L458.31876 44.240623Q457.02188 45.834373 454.69376 45.834373Q452.49063 45.834373 451.1 44.0375Q449.70938 42.225 449.70938 39.31875L449.70938 39.146873ZM451.88126 39.396873Q451.88126 41.553123 452.77188 42.771873Q453.6625 43.990623 455.24063 43.990623Q457.30313 43.990623 458.24063 42.146873L458.24063 36.31875Q457.27188 34.521873 455.25626 34.521873Q453.6625 34.521873 452.77188 35.75625Q451.88126 36.990623 451.88126 39.396873ZM473.17813 29.849998L473.17813 32.9125L475.55313 32.9125L475.55313 34.6L473.17813 34.6L473.17813 42.459373Q473.17813 43.225 473.49063 43.6Q473.81876 43.975 474.58438 43.975Q474.95938 43.975 475.61563 43.834373L475.61563 45.6Q474.75626 45.834373 473.94376 45.834373Q472.49063 45.834373 471.75626 44.959373Q471.02188 44.06875 471.02188 42.459373L471.02188 34.6L468.70938 34.6L468.70938 32.9125L471.02188 32.9125L471.02188 29.849998L473.17813 29.849998ZM477.6625 39.146873Q477.6625 37.271873 478.39688 35.7875Q479.13126 34.303123 480.42813 33.490623Q481.74063 32.678123 483.42813 32.678123Q486.00626 32.678123 487.6 34.475Q489.20938 36.271873 489.20938 39.240623L489.20938 39.396873Q489.20938 41.25625 488.49063 42.725Q487.7875 44.19375 486.475 45.021873Q485.1625 45.834373 483.44376 45.834373Q480.86563 45.834373 479.25626 44.0375Q477.6625 42.240623 477.6625 39.2875L477.6625 39.146873ZM479.85 39.396873Q479.85 41.50625 480.81876 42.7875Q481.80313 44.06875 483.44376 44.06875Q485.1 44.06875 486.06876 42.771873Q487.0375 41.475 487.0375 39.146873Q487.0375 37.053123 486.05313 35.75625Q485.06876 34.459373 483.42813 34.459373Q481.81876 34.459373 480.83438 35.740623Q479.85 37.021873 479.85 39.396873ZM503.61563 37.990623Q500.70938 37.1625 499.39688 35.959373Q498.08438 34.740623 498.08438 32.959373Q498.08438 30.943748 499.69376 29.631248Q501.30313 28.303123 503.88126 28.303123Q505.63126 28.303123 507.00626 28.990623Q508.39688 29.662498 509.14688 30.865623Q509.89688 32.053123 509.89688 33.475L507.64688 33.475Q507.64688 31.928123 506.6625 31.037498Q505.67813 30.146873 503.88126 30.146873Q502.20938 30.146873 501.27188 30.881248Q500.35 31.615623 500.35 32.9125Q500.35 33.959373 501.225 34.678123Q502.11563 35.396873 504.24063 36.00625Q506.38126 36.6 507.56876 37.31875Q508.77188 38.0375 509.35 39.00625Q509.94376 39.959373 509.94376 41.25625Q509.94376 43.334373 508.31876 44.584373Q506.70938 45.834373 503.99063 45.834373Q502.24063 45.834373 500.70938 45.1625Q499.19376 44.490623 498.36563 43.31875Q497.5375 42.146873 497.5375 40.646873L499.80313 40.646873Q499.80313 42.19375 500.94376 43.1Q502.08438 43.990623 503.99063 43.990623Q505.77188 43.990623 506.725 43.271873Q507.67813 42.5375 507.67813 41.2875Q507.67813 40.0375 506.7875 39.35Q505.9125 38.6625 503.61563 37.990623ZM515.1781 29.849998L515.1781 32.9125L517.5531 32.9125L517.5531 34.6L515.1781 34.6L515.1781 42.459373Q515.1781 43.225 515.4906 43.6Q515.8187 43.975 516.58435 43.975Q516.95935 43.975 517.6156 43.834373L517.6156 45.6Q516.7562 45.834373 515.9437 45.834373Q514.4906 45.834373 513.7562 44.959373Q513.02185 44.06875 513.02185 42.459373L513.02185 34.6L510.70938 34.6L510.70938 32.9125L513.02185 32.9125L513.02185 29.849998L515.1781 29.849998ZM519.6625 39.146873Q519.6625 37.271873 520.39685 35.7875Q521.1312 34.303123 522.4281 33.490623Q523.7406 32.678123 525.4281 32.678123Q528.0062 32.678123 529.6 34.475Q531.20935 36.271873 531.20935 39.240623L531.20935 39.396873Q531.20935 41.25625 530.4906 42.725Q529.7875 44.19375 528.475 45.021873Q527.1625 45.834373 525.4437 45.834373Q522.8656 45.834373 521.2562 44.0375Q519.6625 42.240623 519.6625 39.2875L519.6625 39.146873ZM521.85 39.396873Q521.85 41.50625 522.8187 42.7875Q523.8031 44.06875 525.4437 44.06875Q527.1 44.06875 528.0687 42.771873Q529.0375 41.475 529.0375 39.146873Q529.0375 37.053123 528.0531 35.75625Q527.0687 34.459373 525.4281 34.459373Q523.8187 34.459373 522.83435 35.740623Q521.85 37.021873 521.85 39.396873ZM539.33435 44.06875Q540.4906 44.06875 541.35 43.365623Q542.225 42.6625 542.3187 41.6L544.3656 41.6Q544.3031 42.69375 543.6156 43.678123Q542.9281 44.6625 541.77185 45.25625Q540.6156 45.834373 539.33435 45.834373Q536.7406 45.834373 535.20935 44.115623Q533.6781 42.38125 533.6781 39.38125L533.6781 39.00625Q533.6781 37.1625 534.35 35.725Q535.0375 34.271873 536.3031 33.475Q537.58435 32.678123 539.3187 32.678123Q541.4437 32.678123 542.85 33.959373Q544.27185 35.240623 544.3656 37.271873L542.3187 37.271873Q542.225 36.053123 541.3812 35.25625Q540.5531 34.459373 539.3187 34.459373Q537.6625 34.459373 536.7562 35.6625Q535.85 36.85 535.85 39.1L535.85 39.50625Q535.85 41.69375 536.7406 42.88125Q537.64685 44.06875 539.33435 44.06875ZM550.7875 39.725L549.4281 41.146873L549.4281 45.6L547.2562 45.6L547.2562 27.599998L549.4281 27.599998L549.4281 38.490623L550.58435 37.084373L554.5375 32.9125L557.1625 32.9125L552.2406 38.209373L557.7406 45.6L555.1937 45.6L550.7875 39.725ZM574.9906 38.06875L567.83435 38.06875L567.83435 45.6L565.58435 45.6L565.58435 28.537498L576.14685 28.537498L576.14685 30.381248L567.83435 30.381248L567.83435 36.225L574.9906 36.225L574.9906 38.06875ZM584.3656 34.865623Q583.8812 34.7875 583.3031 34.7875Q581.1781 34.7875 580.4125 36.6L580.4125 45.6L578.2406 45.6L578.2406 32.9125L580.35 32.9125L580.3812 34.38125Q581.45935 32.678123 583.4125 32.678123Q584.0375 32.678123 584.3656 32.85L584.3656 34.865623ZM591.5062 45.834373Q588.9281 45.834373 587.3031 44.146873Q585.6937 42.44375 585.6937 39.615623L585.6937 39.209373Q585.6937 37.31875 586.4125 35.85Q587.1312 34.365623 588.4281 33.521873Q589.725 32.678123 591.2406 32.678123Q593.70935 32.678123 595.0687 34.31875Q596.4437 35.94375 596.4437 38.975L596.4437 39.88125L587.8656 39.88125Q587.9125 41.75625 588.95935 42.9125Q590.0062 44.06875 591.6156 44.06875Q592.77185 44.06875 593.5687 43.6Q594.3656 43.13125 594.95935 42.35L596.2875 43.38125Q594.6937 45.834373 591.5062 45.834373ZM591.2406 34.459373Q589.9281 34.459373 589.0375 35.428123Q588.14685 36.38125 587.9281 38.1L594.2875 38.1L594.2875 37.928123Q594.1937 36.2875 593.39685 35.38125Q592.6 34.459373 591.2406 34.459373ZM604.5062 45.834373Q601.9281 45.834373 600.3031 44.146873Q598.6937 42.44375 598.6937 39.615623L598.6937 39.209373Q598.6937 37.31875 599.4125 35.85Q600.1312 34.365623 601.4281 33.521873Q602.725 32.678123 604.2406 32.678123Q606.70935 32.678123 608.0687 34.31875Q609.4437 35.94375 609.4437 38.975L609.4437 39.88125L600.8656 39.88125Q600.9125 41.75625 601.95935 42.9125Q603.0062 44.06875 604.6156 44.06875Q605.77185 44.06875 606.5687 43.6Q607.3656 43.13125 607.95935 42.35L609.2875 43.38125Q607.6937 45.834373 604.5062 45.834373ZM604.2406 34.459373Q602.9281 34.459373 602.0375 35.428123Q601.14685 36.38125 600.9281 38.1L607.2875 38.1L607.2875 37.928123Q607.1937 36.2875 606.39685 35.38125Q605.6 34.459373 604.2406 34.459373ZM612.58435 45.6L612.58435 28.537498L618.1625 28.537498Q620.9437 28.537498 622.33435 29.693748Q623.7406 30.834373 623.7406 33.084373Q623.7406 34.271873 623.0531 35.19375Q622.3812 36.115623 621.20935 36.615623Q622.58435 37.00625 623.3812 38.1Q624.1937 39.178123 624.1937 40.678123Q624.1937 42.975 622.70935 44.2875Q621.225 45.6 618.5062 45.6L612.58435 45.6ZM614.83435 37.615623L614.83435 43.75625L618.5531 43.75625Q620.1156 43.75625 621.02185 42.94375Q621.9281 42.13125 621.9281 40.69375Q621.9281 37.615623 618.58435 37.615623L614.83435 37.615623ZM614.83435 35.81875L618.225 35.81875Q619.70935 35.81875 620.58435 35.084373Q621.475 34.334373 621.475 33.06875Q621.475 31.662498 620.64685 31.021873Q619.83435 30.381248 618.1625 30.381248L614.83435 30.381248L614.83435 35.81875ZM632.6156 37.990623Q629.70935 37.1625 628.39685 35.959373Q627.08435 34.740623 627.08435 32.959373Q627.08435 30.943748 628.6937 29.631248Q630.3031 28.303123 632.8812 28.303123Q634.6312 28.303123 636.0062 28.990623Q637.39685 29.662498 638.14685 30.865623Q638.89685 32.053123 638.89685 33.475L636.64685 33.475Q636.64685 31.928123 635.6625 31.037498Q634.6781 30.146873 632.8812 30.146873Q631.20935 30.146873 630.27185 30.881248Q629.35 31.615623 629.35 32.9125Q629.35 33.959373 630.225 34.678123Q631.1156 35.396873 633.2406 36.00625Q635.3812 36.6 636.5687 37.31875Q637.77185 38.0375 638.35 39.00625Q638.9437 39.959373 638.9437 41.25625Q638.9437 43.334373 637.3187 44.584373Q635.70935 45.834373 632.9906 45.834373Q631.2406 45.834373 629.70935 45.1625Q628.1937 44.490623 627.3656 43.31875Q626.5375 42.146873 626.5375 40.646873L628.8031 40.646873Q628.8031 42.19375 629.9437 43.1Q631.08435 43.990623 632.9906 43.990623Q634.77185 43.990623 635.725 43.271873Q636.6781 42.5375 636.6781 41.2875Q636.6781 40.0375 635.7875 39.35Q634.9125 38.6625 632.6156 37.990623ZM641.58435 45.6L641.58435 28.537498L646.39685 28.537498Q648.6312 28.537498 650.33435 29.521873Q652.0531 30.506248 652.975 32.31875Q653.9125 34.13125 653.9281 36.490623L653.9281 37.584373Q653.9281 39.990623 652.9906 41.81875Q652.0531 43.63125 650.3187 44.6Q648.6 45.56875 646.3031 45.6L641.58435 45.6ZM643.83435 30.381248L643.83435 43.75625L646.1937 43.75625Q648.8031 43.75625 650.2406 42.146873Q651.6937 40.521873 651.6937 37.5375L651.6937 36.5375Q651.6937 33.63125 650.3187 32.021873Q648.95935 30.412498 646.45935 30.381248L643.83435 30.381248ZM663.1625 38.678123Q663.1625 36.021873 663.8656 33.584373Q664.58435 31.146873 665.9906 29.162498Q667.39685 27.162498 668.89685 26.349998L669.35 27.771873Q667.6312 29.084373 666.5375 31.787498Q665.4437 34.475 665.33435 37.81875L665.33435 38.81875Q665.33435 43.334373 666.975 46.6625Q667.975 48.6625 669.35 49.7875L668.89685 51.115623Q667.35 50.240623 665.9281 48.209373Q663.1625 44.209373 663.1625 38.678123ZM673.6 45.6L671.4281 45.6L671.4281 27.599998L673.6 27.599998L673.6 45.6ZM676.6625 39.146873Q676.6625 37.271873 677.39685 35.7875Q678.1312 34.303123 679.4281 33.490623Q680.7406 32.678123 682.4281 32.678123Q685.0062 32.678123 686.6 34.475Q688.20935 36.271873 688.20935 39.240623L688.20935 39.396873Q688.20935 41.25625 687.4906 42.725Q686.7875 44.19375 685.475 45.021873Q684.1625 45.834373 682.4437 45.834373Q679.8656 45.834373 678.2562 44.0375Q676.6625 42.240623 676.6625 39.2875L676.6625 39.146873ZM678.85 39.396873Q678.85 41.50625 679.8187 42.7875Q680.8031 44.06875 682.4437 44.06875Q684.1 44.06875 685.0687 42.771873Q686.0375 41.475 686.0375 39.146873Q686.0375 37.053123 685.0531 35.75625Q684.0687 34.459373 682.4281 34.459373Q680.8187 34.459373 679.83435 35.740623Q678.85 37.021873 678.85 39.396873ZM702.475 42.615623L704.9125 32.9125L707.0687 32.9125L703.3812 45.6L701.6312 45.6L698.5375 35.990623L695.5375 45.6L693.7875 45.6L690.1 32.9125L692.2562 32.9125L694.7562 42.4125L697.70935 32.9125L699.45935 32.9125L702.475 42.615623ZM714.5062 45.834373Q711.9281 45.834373 710.3031 44.146873Q708.6937 42.44375 708.6937 39.615623L708.6937 39.209373Q708.6937 37.31875 709.4125 35.85Q710.1312 34.365623 711.4281 33.521873Q712.725 32.678123 714.2406 32.678123Q716.70935 32.678123 718.0687 34.31875Q719.4437 35.94375 719.4437 38.975L719.4437 39.88125L710.8656 39.88125Q710.9125 41.75625 711.95935 42.9125Q713.0062 44.06875 714.6156 44.06875Q715.77185 44.06875 716.5687 43.6Q717.3656 43.13125 717.95935 42.35L719.2875 43.38125Q717.6937 45.834373 714.5062 45.834373ZM714.2406 34.459373Q712.9281 34.459373 712.0375 35.428123Q711.14685 36.38125 710.9281 38.1L717.2875 38.1L717.2875 37.928123Q717.1937 36.2875 716.39685 35.38125Q715.6 34.459373 714.2406 34.459373ZM728.3656 34.865623Q727.8812 34.7875 727.3031 34.7875Q725.1781 34.7875 724.4125 36.6L724.4125 45.6L722.2406 45.6L722.2406 32.9125L724.35 32.9125L724.3812 34.38125Q725.45935 32.678123 727.4125 32.678123Q728.0375 32.678123 728.3656 32.85L728.3656 34.865623ZM738.6 45.6L736.4281 45.6L736.4281 32.9125L738.6 32.9125L738.6 45.6ZM736.2562 29.553123Q736.2562 29.021873 736.5687 28.662498Q736.89685 28.303123 737.52185 28.303123Q738.1625 28.303123 738.4906 28.662498Q738.8187 29.021873 738.8187 29.553123Q738.8187 30.084373 738.4906 30.443748Q738.1625 30.787498 737.52185 30.787498Q736.89685 30.787498 736.5687 30.443748Q736.2562 30.084373 736.2562 29.553123ZM749.6312 42.240623Q749.6312 41.35 748.95935 40.865623Q748.3031 40.38125 746.64685 40.0375Q745.0062 39.678123 744.0375 39.19375Q743.0687 38.69375 742.6 38.021873Q742.14685 37.334373 742.14685 36.396873Q742.14685 34.834373 743.45935 33.75625Q744.7875 32.678123 746.83435 32.678123Q748.9906 32.678123 750.33435 33.803123Q751.6781 34.9125 751.6781 36.646873L749.4906 36.646873Q749.4906 35.75625 748.7406 35.115623Q747.9906 34.459373 746.83435 34.459373Q745.64685 34.459373 744.975 34.975Q744.3187 35.490623 744.3187 36.334373Q744.3187 37.115623 744.9281 37.521873Q745.5531 37.9125 747.1781 38.271873Q748.8031 38.63125 749.8031 39.146873Q750.8187 39.646873 751.3031 40.365623Q751.7875 41.06875 751.7875 42.084373Q751.7875 43.7875 750.4281 44.81875Q749.0687 45.834373 746.9125 45.834373Q745.3812 45.834373 744.20935 45.303123Q743.0375 44.75625 742.3656 43.7875Q741.70935 42.81875 741.70935 41.69375L743.8812 41.69375Q743.9437 42.7875 744.7562 43.428123Q745.5687 44.06875 746.9125 44.06875Q748.1312 44.06875 748.8812 43.56875Q749.6312 43.06875 749.6312 42.240623ZM770.975 39.396873Q770.975 42.303123 769.6312 44.06875Q768.3031 45.834373 766.0531 45.834373Q763.64685 45.834373 762.33435 44.13125L762.2406 45.6L760.2406 45.6L760.2406 27.599998L762.4125 27.599998L762.4125 34.31875Q763.725 32.678123 766.02185 32.678123Q768.33435 32.678123 769.64685 34.428123Q770.975 36.178123 770.975 39.209373L770.975 39.396873ZM768.8031 39.146873Q768.8031 36.94375 767.9437 35.740623Q767.1 34.521873 765.4906 34.521873Q763.35 34.521873 762.4125 36.521873L762.4125 42.00625Q763.4125 43.990623 765.52185 43.990623Q767.0687 43.990623 767.9281 42.7875Q768.8031 41.584373 768.8031 39.146873ZM778.5062 45.834373Q775.9281 45.834373 774.3031 44.146873Q772.6937 42.44375 772.6937 39.615623L772.6937 39.209373Q772.6937 37.31875 773.4125 35.85Q774.1312 34.365623 775.4281 33.521873Q776.725 32.678123 778.2406 32.678123Q780.70935 32.678123 782.0687 34.31875Q783.4437 35.94375 783.4437 38.975L783.4437 39.88125L774.8656 39.88125Q774.9125 41.75625 775.95935 42.9125Q777.0062 44.06875 778.6156 44.06875Q779.77185 44.06875 780.5687 43.6Q781.3656 43.13125 781.95935 42.35L783.2875 43.38125Q781.6937 45.834373 778.5062 45.834373ZM778.2406 34.459373Q776.9281 34.459373 776.0375 35.428123Q775.14685 36.38125 774.9281 38.1L781.2875 38.1L781.2875 37.928123Q781.1937 36.2875 780.39685 35.38125Q779.6 34.459373 778.2406 34.459373ZM789.1781 29.849998L789.1781 32.9125L791.5531 32.9125L791.5531 34.6L789.1781 34.6L789.1781 42.459373Q789.1781 43.225 789.4906 43.6Q789.8187 43.975 790.58435 43.975Q790.95935 43.975 791.6156 43.834373L791.6156 45.6Q790.7562 45.834373 789.9437 45.834373Q788.4906 45.834373 787.7562 44.959373Q787.02185 44.06875 787.02185 42.459373L787.02185 34.6L784.70935 34.6L784.70935 32.9125L787.02185 32.9125L787.02185 29.849998L789.1781 29.849998ZM797.1781 29.849998L797.1781 32.9125L799.5531 32.9125L799.5531 34.6L797.1781 34.6L797.1781 42.459373Q797.1781 43.225 797.4906 43.6Q797.8187 43.975 798.58435 43.975Q798.95935 43.975 799.6156 43.834373L799.6156 45.6Q798.7562 45.834373 797.9437 45.834373Q796.4906 45.834373 795.7562 44.959373Q795.02185 44.06875 795.02185 42.459373L795.02185 34.6L792.70935 34.6L792.70935 32.9125L795.02185 32.9125L795.02185 29.849998L797.1781 29.849998ZM807.5062 45.834373Q804.9281 45.834373 803.3031 44.146873Q801.6937 42.44375 801.6937 39.615623L801.6937 39.209373Q801.6937 37.31875 802.4125 35.85Q803.1312 34.365623 804.4281 33.521873Q805.725 32.678123 807.2406 32.678123Q809.70935 32.678123 811.0687 34.31875Q812.4437 35.94375 812.4437 38.975L812.4437 39.88125L803.8656 39.88125Q803.9125 41.75625 804.95935 42.9125Q806.0062 44.06875 807.6156 44.06875Q808.77185 44.06875 809.5687 43.6Q810.3656 43.13125 810.95935 42.35L812.2875 43.38125Q810.6937 45.834373 807.5062 45.834373ZM807.2406 34.459373Q805.9281 34.459373 805.0375 35.428123Q804.14685 36.38125 803.9281 38.1L810.2875 38.1L810.2875 37.928123Q810.1937 36.2875 809.39685 35.38125Q808.6 34.459373 807.2406 34.459373ZM821.3656 34.865623Q820.8812 34.7875 820.3031 34.7875Q818.1781 34.7875 817.4125 36.6L817.4125 45.6L815.2406 45.6L815.2406 32.9125L817.35 32.9125L817.3812 34.38125Q818.45935 32.678123 820.4125 32.678123Q821.0375 32.678123 821.3656 32.85L821.3656 34.865623ZM828.2406 38.7875Q828.2406 41.396873 827.5531 43.803123Q826.8812 46.19375 825.45935 48.225Q824.0531 50.25625 822.5062 51.115623L822.0531 49.7875Q823.85 48.396873 824.9437 45.490623Q826.0375 42.56875 826.0687 39.021873L826.0687 38.646873Q826.0687 36.19375 825.5531 34.084373Q825.0375 31.959373 824.1156 30.287498Q823.1937 28.599998 822.0531 27.662498L822.5062 26.349998Q824.0531 27.193748 825.4437 29.209373Q826.85 31.209373 827.5375 33.63125Q828.2406 36.0375 828.2406 38.7875Z" fill-rule="nonzero"/></svg>