<svg version="1.1" viewBox="0.0 0.0 881.0 453.0" fill="none" stroke="none" stroke-linecap="square" stroke-miterlimit="10" width="881" height="453" xmlns:xlink="http://www.w3.org/1999/xlink" xmlns="http://www.w3.org/2000/svg"><path fill="#ffffff" d="M0 0L881.0 0L881.0 453.0L0 453.0L0 0Z" fill-rule="nonzero"/><path stroke="#cccccc" stroke-width="1.0" stroke-linecap="butt" d="M75.5 350.5L858.5 350.5" fill-rule="nonzero"/><path stroke="#cccccc" stroke-width="1.0" stroke-linecap="butt" d="M75.5 282.5L858.5 282.5" fill-rule="nonzero"/><path stroke="#cccccc" stroke-width="1.0" stroke-linecap="butt" d="M75.5 215.5L858.5 215.5" fill-rule="nonzero"/><path stroke="#cccccc" stroke-width="1.0" stroke-linecap="butt" d="M75.5 147.5L858.5 147.5" fill-rule="nonzero"/><path stroke="#cccccc" stroke-width="1.0" stroke-linecap="butt" d="M75.5 80.5L858.5 80.5" fill-rule="nonzero"/><clipPath id="id_0"><path d="M75.65 80.25L858.35 80.25L858.35 350.25L75.65 350.25L75.65 80.25Z" clip-rule="nonzero"/></clipPath><path stroke="#000000" stroke-width="0.0" stroke-linecap="butt" stroke-opacity="0.0" clip-path="url(#id_0)" d="M138.0 350.0L119.0 350.0L119.0 116.0C119.0 114.89543 119.89543 114.0 121.0 114.0L136.0 114.0C137.10457 114.0 138.0 114.89543 138.0 116.0Z" fill-rule="nonzero"/><path fill="#4285f4" clip-path="url(#id_0)" d="M138.0 350.0L119.0 350.0L119.0 116.0C119.0 114.89543 119.89543 114.0 121.0 114.0L136.0 114.0C137.10457 114.0 138.0 114.89543 138.0 116.0Z" fill-rule="nonzero"/><path stroke="#000000" stroke-width="0.0" stroke-linecap="butt" stroke-opacity="0.0" clip-path="url(#id_0)" d="M261.0 350.0L242.0 350.0L242.0 197.0C242.0 195.89543 242.89543 195.0 244.0 195.0L259.0 195.0C260.10458 195.0 261.0 195.89543 261.0 197.0Z" fill-rule="nonzero"/><path fill="#4285f4" clip-path="url(#id_0)" d="M261.0 350.0L242.0 350.0L242.0 197.0C242.0 195.89543 242.89543 195.0 244.0 195.0L259.0 195.0C260.10458 195.0 261.0 195.89543 261.0 197.0Z" fill-rule="nonzero"/><path stroke="#000000" stroke-width="0.0" stroke-linecap="butt" stroke-opacity="0.0" clip-path="url(#id_0)" d="M384.0 350.0L365.0 350.0L365.0 86.0C365.0 84.89543 365.89542 84.0 367.0 84.0L382.0 84.0C383.10458 84.0 384.0 84.89543 384.0 86.0Z" fill-rule="nonzero"/><path fill="#4285f4" clip-path="url(#id_0)" d="M384.0 350.0L365.0 350.0L365.0 86.0C365.0 84.89543 365.89542 84.0 367.0 84.0L382.0 84.0C383.10458 84.0 384.0 84.89543 384.0 86.0Z" fill-rule="nonzero"/><path stroke="#000000" stroke-width="0.0" stroke-linecap="butt" stroke-opacity="0.0" clip-path="url(#id_0)" d="M508.0 350.0L489.0 350.0L489.0 86.0C489.0 84.89543 489.89542 84.0 491.0 84.0L506.0 84.0C507.10458 84.0 508.0 84.89543 508.0 86.0Z" fill-rule="nonzero"/><path fill="#4285f4" clip-path="url(#id_0)" d="M508.0 350.0L489.0 350.0L489.0 86.0C489.0 84.89543 489.89542 84.0 491.0 84.0L506.0 84.0C507.10458 84.0 508.0 84.89543 508.0 86.0Z" fill-rule="nonzero"/><path stroke="#000000" stroke-width="0.0" stroke-linecap="butt" stroke-opacity="0.0" clip-path="url(#id_0)" d="M631.0 350.0L612.0 350.0L612.0 83.0C612.0 81.89543 612.89545 81.0 614.0 81.0L629.0 81.0C630.10455 81.0 631.0 81.89543 631.0 83.0Z" fill-rule="nonzero"/><path fill="#4285f4" clip-path="url(#id_0)" d="M631.0 350.0L612.0 350.0L612.0 83.0C612.0 81.89543 612.89545 81.0 614.0 81.0L629.0 81.0C630.10455 81.0 631.0 81.89543 631.0 83.0Z" fill-rule="nonzero"/><path stroke="#000000" stroke-width="0.0" stroke-linecap="butt" stroke-opacity="0.0" clip-path="url(#id_0)" d="M754.0 350.0L735.0 350.0L735.0 115.0C735.0 113.89543 735.89545 113.0 737.0 113.0L752.0 113.0C753.10455 113.0 754.0 113.89543 754.0 115.0Z" fill-rule="nonzero"/><path fill="#4285f4" clip-path="url(#id_0)" d="M754.0 350.0L735.0 350.0L735.0 115.0C735.0 113.89543 735.89545 113.0 737.0 113.0L752.0 113.0C753.10455 113.0 754.0 113.89543 754.0 115.0Z" fill-rule="nonzero"/><path stroke="#000000" stroke-width="0.0" stroke-linecap="butt" stroke-opacity="0.0" clip-path="url(#id_0)" d="M158.0 350.0L139.0 350.0L139.0 150.0C139.0 148.89543 139.89543 148.0 141.0 148.0L156.0 148.0C157.10457 148.0 158.0 148.89543 158.0 150.0Z" fill-rule="nonzero"/><path fill="#db4437" clip-path="url(#id_0)" d="M158.0 350.0L139.0 350.0L139.0 150.0C139.0 148.89543 139.89543 148.0 141.0 148.0L156.0 148.0C157.10457 148.0 158.0 148.89543 158.0 150.0Z" fill-rule="nonzero"/><path stroke="#000000" stroke-width="0.0" stroke-linecap="butt" stroke-opacity="0.0" clip-path="url(#id_0)" d="M281.0 350.0L262.0 350.0L262.0 197.0C262.0 195.89543 262.89542 195.0 264.0 195.0L279.0 195.0C280.10458 195.0 281.0 195.89543 281.0 197.0Z" fill-rule="nonzero"/><path fill="#db4437" clip-path="url(#id_0)" d="M281.0 350.0L262.0 350.0L262.0 197.0C262.0 195.89543 262.89542 195.0 264.0 195.0L279.0 195.0C280.10458 195.0 281.0 195.89543 281.0 197.0Z" fill-rule="nonzero"/><path stroke="#000000" stroke-width="0.0" stroke-linecap="butt" stroke-opacity="0.0" clip-path="url(#id_0)" d="M404.0 350.0L385.0 350.0L385.0 87.0C385.0 85.89543 385.89542 85.0 387.0 85.0L402.0 85.0C403.10458 85.0 404.0 85.89543 404.0 87.0Z" fill-rule="nonzero"/><path fill="#db4437" clip-path="url(#id_0)" d="M404.0 350.0L385.0 350.0L385.0 87.0C385.0 85.89543 385.89542 85.0 387.0 85.0L402.0 85.0C403.10458 85.0 404.0 85.89543 404.0 87.0Z" fill-rule="nonzero"/><path stroke="#000000" stroke-width="0.0" stroke-linecap="butt" stroke-opacity="0.0" clip-path="url(#id_0)" d="M528.0 350.0L509.0 350.0L509.0 90.0C509.0 88.89543 509.89542 88.0 511.0 88.0L526.0 88.0C527.10455 88.0 528.0 88.89543 528.0 90.0Z" fill-rule="nonzero"/><path fill="#db4437" clip-path="url(#id_0)" d="M528.0 350.0L509.0 350.0L509.0 90.0C509.0 88.89543 509.89542 88.0 511.0 88.0L526.0 88.0C527.10455 88.0 528.0 88.89543 528.0 90.0Z" fill-rule="nonzero"/><path stroke="#000000" stroke-width="0.0" stroke-linecap="butt" stroke-opacity="0.0" clip-path="url(#id_0)" d="M651.0 350.0L632.0 350.0L632.0 85.0C632.0 83.89543 632.89545 83.0 634.0 83.0L649.0 83.0C650.10455 83.0 651.0 83.89543 651.0 85.0Z" fill-rule="nonzero"/><path fill="#db4437" clip-path="url(#id_0)" d="M651.0 350.0L632.0 350.0L632.0 85.0C632.0 83.89543 632.89545 83.0 634.0 83.0L649.0 83.0C650.10455 83.0 651.0 83.89543 651.0 85.0Z" fill-rule="nonzero"/><path stroke="#000000" stroke-width="0.0" stroke-linecap="butt" stroke-opacity="0.0" clip-path="url(#id_0)" d="M774.0 350.0L755.0 350.0L755.0 115.0C755.0 113.89543 755.89545 113.0 757.0 113.0L772.0 113.0C773.10455 113.0 774.0 113.89543 774.0 115.0Z" fill-rule="nonzero"/><path fill="#db4437" clip-path="url(#id_0)" d="M774.0 350.0L755.0 350.0L755.0 115.0C755.0 113.89543 755.89545 113.0 757.0 113.0L772.0 113.0C773.10455 113.0 774.0 113.89543 774.0 115.0Z" fill-rule="nonzero"/><path stroke="#000000" stroke-width="0.0" stroke-linecap="butt" stroke-opacity="0.0" clip-path="url(#id_0)" d="M178.0 350.0L159.0 350.0L159.0 150.0C159.0 148.89543 159.89543 148.0 161.0 148.0L176.0 148.0C177.10457 148.0 178.0 148.89543 178.0 150.0Z" fill-rule="nonzero"/><path fill="#f4b400" clip-path="url(#id_0)" d="M178.0 350.0L159.0 350.0L159.0 150.0C159.0 148.89543 159.89543 148.0 161.0 148.0L176.0 148.0C177.10457 148.0 178.0 148.89543 178.0 150.0Z" fill-rule="nonzero"/><path stroke="#000000" stroke-width="0.0" stroke-linecap="butt" stroke-opacity="0.0" clip-path="url(#id_0)" d="M301.0 350.0L282.0 350.0L282.0 197.0C282.0 195.89543 282.89542 195.0 284.0 195.0L299.0 195.0C300.10458 195.0 301.0 195.89543 301.0 197.0Z" fill-rule="nonzero"/><path fill="#f4b400" clip-path="url(#id_0)" d="M301.0 350.0L282.0 350.0L282.0 197.0C282.0 195.89543 282.89542 195.0 284.0 195.0L299.0 195.0C300.10458 195.0 301.0 195.89543 301.0 197.0Z" fill-rule="nonzero"/><path stroke="#000000" stroke-width="0.0" stroke-linecap="butt" stroke-opacity="0.0" clip-path="url(#id_0)" d="M424.0 350.0L405.0 350.0L405.0 87.0C405.0 85.89543 405.89542 85.0 407.0 85.0L422.0 85.0C423.10458 85.0 424.0 85.89543 424.0 87.0Z" fill-rule="nonzero"/><path fill="#f4b400" clip-path="url(#id_0)" d="M424.0 350.0L405.0 350.0L405.0 87.0C405.0 85.89543 405.89542 85.0 407.0 85.0L422.0 85.0C423.10458 85.0 424.0 85.89543 424.0 87.0Z" fill-rule="nonzero"/><path stroke="#000000" stroke-width="0.0" stroke-linecap="butt" stroke-opacity="0.0" clip-path="url(#id_0)" d="M548.0 350.0L529.0 350.0L529.0 90.0C529.0 88.89543 529.89545 88.0 531.0 88.0L546.0 88.0C547.10455 88.0 548.0 88.89543 548.0 90.0Z" fill-rule="nonzero"/><path fill="#f4b400" clip-path="url(#id_0)" d="M548.0 350.0L529.0 350.0L529.0 90.0C529.0 88.89543 529.89545 88.0 531.0 88.0L546.0 88.0C547.10455 88.0 548.0 88.89543 548.0 90.0Z" fill-rule="nonzero"/><path stroke="#000000" stroke-width="0.0" stroke-linecap="butt" stroke-opacity="0.0" clip-path="url(#id_0)" d="M671.0 350.0L652.0 350.0L652.0 92.0C652.0 90.89543 652.89545 90.0 654.0 90.0L669.0 90.0C670.10455 90.0 671.0 90.89543 671.0 92.0Z" fill-rule="nonzero"/><path fill="#f4b400" clip-path="url(#id_0)" d="M671.0 350.0L652.0 350.0L652.0 92.0C652.0 90.89543 652.89545 90.0 654.0 90.0L669.0 90.0C670.10455 90.0 671.0 90.89543 671.0 92.0Z" fill-rule="nonzero"/><path stroke="#000000" stroke-width="0.0" stroke-linecap="butt" stroke-opacity="0.0" clip-path="url(#id_0)" d="M794.0 350.0L775.0 350.0L775.0 120.0C775.0 118.89543 775.89545 118.0 777.0 118.0L792.0 118.0C793.10455 118.0 794.0 118.89543 794.0 120.0Z" fill-rule="nonzero"/><path fill="#f4b400" clip-path="url(#id_0)" d="M794.0 350.0L775.0 350.0L775.0 120.0C775.0 118.89543 775.89545 118.0 777.0 118.0L792.0 118.0C793.10455 118.0 794.0 118.89543 794.0 120.0Z" fill-rule="nonzero"/><path stroke="#000000" stroke-width="0.0" stroke-linecap="butt" stroke-opacity="0.0" clip-path="url(#id_0)" d="M198.0 350.0L179.0 350.0L179.0 151.0C179.0 149.89543 179.89543 149.0 181.0 149.0L196.0 149.0C197.10457 149.0 198.0 149.89543 198.0 151.0Z" fill-rule="nonzero"/><path fill="#0f9d58" clip-path="url(#id_0)" d="M198.0 350.0L179.0 350.0L179.0 151.0C179.0 149.89543 179.89543 149.0 181.0 149.0L196.0 149.0C197.10457 149.0 198.0 149.89543 198.0 151.0Z" fill-rule="nonzero"/><path stroke="#000000" stroke-width="0.0" stroke-linecap="butt" stroke-opacity="0.0" clip-path="url(#id_0)" d="M321.0 350.0L302.0 350.0L302.0 197.0C302.0 195.89543 302.89542 195.0 304.0 195.0L319.0 195.0C320.10458 195.0 321.0 195.89543 321.0 197.0Z" fill-rule="nonzero"/><path fill="#0f9d58" clip-path="url(#id_0)" d="M321.0 350.0L302.0 350.0L302.0 197.0C302.0 195.89543 302.89542 195.0 304.0 195.0L319.0 195.0C320.10458 195.0 321.0 195.89543 321.0 197.0Z" fill-rule="nonzero"/><path stroke="#000000" stroke-width="0.0" stroke-linecap="butt" stroke-opacity="0.0" clip-path="url(#id_0)" d="M444.0 350.0L425.0 350.0L425.0 87.0C425.0 85.89543 425.89542 85.0 427.0 85.0L442.0 85.0C443.10458 85.0 444.0 85.89543 444.0 87.0Z" fill-rule="nonzero"/><path fill="#0f9d58" clip-path="url(#id_0)" d="M444.0 350.0L425.0 350.0L425.0 87.0C425.0 85.89543 425.89542 85.0 427.0 85.0L442.0 85.0C443.10458 85.0 444.0 85.89543 444.0 87.0Z" fill-rule="nonzero"/><path stroke="#000000" stroke-width="0.0" stroke-linecap="butt" stroke-opacity="0.0" clip-path="url(#id_0)" d="M568.0 350.0L549.0 350.0L549.0 90.0C549.0 88.89543 549.89545 88.0 551.0 88.0L566.0 88.0C567.10455 88.0 568.0 88.89543 568.0 90.0Z" fill-rule="nonzero"/><path fill="#0f9d58" clip-path="url(#id_0)" d="M568.0 350.0L549.0 350.0L549.0 90.0C549.0 88.89543 549.89545 88.0 551.0 88.0L566.0 88.0C567.10455 88.0 568.0 88.89543 568.0 90.0Z" fill-rule="nonzero"/><path stroke="#000000" stroke-width="0.0" stroke-linecap="butt" stroke-opacity="0.0" clip-path="url(#id_0)" d="M691.0 350.0L672.0 350.0L672.0 92.0C672.0 90.89543 672.89545 90.0 674.0 90.0L689.0 90.0C690.10455 90.0 691.0 90.89543 691.0 92.0Z" fill-rule="nonzero"/><path fill="#0f9d58" clip-path="url(#id_0)" d="M691.0 350.0L672.0 350.0L672.0 92.0C672.0 90.89543 672.89545 90.0 674.0 90.0L689.0 90.0C690.10455 90.0 691.0 90.89543 691.0 92.0Z" fill-rule="nonzero"/><path stroke="#000000" stroke-width="0.0" stroke-linecap="butt" stroke-opacity="0.0" clip-path="url(#id_0)" d="M814.0 350.0L795.0 350.0L795.0 121.0C795.0 119.89543 795.89545 119.0 797.0 119.0L812.0 119.0C813.10455 119.0 814.0 119.89543 814.0 121.0Z" fill-rule="nonzero"/><path fill="#0f9d58" clip-path="url(#id_0)" d="M814.0 350.0L795.0 350.0L795.0 121.0C795.0 119.89543 795.89545 119.0 797.0 119.0L812.0 119.0C813.10455 119.0 814.0 119.89543 814.0 121.0Z" fill-rule="nonzero"/><path fill="#000000" d="M45.759377 351.07812Q45.759377 354.5625 44.55625 356.26562Q43.36875 357.96875 40.8375 357.96875Q38.3375 357.96875 37.134377 356.3125Q35.93125 354.64062 35.884377 351.34375L35.884377 348.6875Q35.884377 345.25 37.071877 343.57812Q38.275 341.89062 40.821877 341.89062Q43.3375 341.89062 44.525 343.51562Q45.728127 345.125 45.759377 348.5L45.759377 351.07812ZM43.775 348.35938Q43.775 345.84375 43.05625 344.6875Q42.353127 343.53125 40.821877 343.53125Q39.290627 343.53125 38.5875 344.6875Q37.9 345.82812 37.86875 348.20312L37.86875 351.39062Q37.86875 353.92188 38.603127 355.14062Q39.3375 356.34375 40.8375 356.34375Q42.30625 356.34375 43.025 355.20312Q43.74375 354.0625 43.775 351.60938L43.775 348.35938ZM48.196877 356.70312Q48.196877 356.1875 48.49375 355.84375Q48.80625 355.5 49.415627 355.5Q50.040627 355.5 50.353127 355.84375Q50.665627 356.1875 50.665627 356.70312Q50.665627 357.20312 50.353127 357.54688Q50.040627 357.875 49.415627 357.875Q48.80625 357.875 48.49375 357.54688Q48.196877 357.20312 48.196877 356.70312ZM63.43125 346.1875Q63.43125 347.35938 62.80625 348.28125Q62.196877 349.1875 61.15 349.70312Q62.36875 350.23438 63.0875 351.25Q63.80625 352.25 63.80625 353.53125Q63.80625 355.5625 62.43125 356.76562Q61.05625 357.96875 58.821877 357.96875Q56.571877 357.96875 55.2125 356.76562Q53.853127 355.54688 53.853127 353.53125Q53.853127 352.26562 54.540627 351.25Q55.24375 350.21875 56.4625 349.6875Q55.415627 349.17188 54.80625 348.26562Q54.2125 347.34375 54.2125 346.1875Q54.2125 344.21875 55.478127 343.0625Q56.759377 341.89062 58.821877 341.89062Q60.884377 341.89062 62.15 343.0625Q63.43125 344.21875 63.43125 346.1875ZM61.80625 353.48438Q61.80625 352.17188 60.978127 351.34375Q60.15 350.51562 58.80625 350.51562Q57.4625 350.51562 56.65 351.34375Q55.8375 352.15625 55.8375 353.48438Q55.8375 354.8125 56.61875 355.57812Q57.415627 356.34375 58.821877 356.34375Q60.228127 356.34375 61.009377 355.57812Q61.80625 354.8125 61.80625 353.48438ZM58.821877 343.53125Q57.65 343.53125 56.93125 344.26562Q56.2125 344.98438 56.2125 346.21875Q56.2125 347.42188 56.915627 348.15625Q57.634377 348.89062 58.821877 348.89062Q60.025 348.89062 60.728127 348.15625Q61.446877 347.42188 61.446877 346.23438Q61.446877 345.03125 60.696877 344.28125Q59.9625 343.53125 58.821877 343.53125Z" fill-rule="nonzero"/><path fill="#000000" d="M33.759377 283.57812Q33.759377 287.0625 32.55625 288.76562Q31.36875 290.46875 28.8375 290.46875Q26.3375 290.46875 25.134375 288.8125Q23.93125 287.14062 23.884375 283.84375L23.884375 281.1875Q23.884375 277.75 25.071875 276.07812Q26.275 274.39062 28.821875 274.39062Q31.3375 274.39062 32.525 276.01562Q33.728127 277.625 33.759377 281.0L33.759377 283.57812ZM31.775 280.85938Q31.775 278.34375 31.05625 277.1875Q30.353125 276.03125 28.821875 276.03125Q27.290625 276.03125 26.5875 277.1875Q25.9 278.32812 25.86875 280.70312L25.86875 283.89062Q25.86875 286.42188 26.603125 287.64062Q27.3375 288.84375 28.8375 288.84375Q30.30625 288.84375 31.025 287.70312Q31.74375 286.5625 31.775 284.10938L31.775 280.85938ZM36.196877 289.20312Q36.196877 288.6875 36.49375 288.34375Q36.80625 288.0 37.415627 288.0Q38.040627 288.0 38.353127 288.34375Q38.665627 288.6875 38.665627 289.20312Q38.665627 289.70312 38.353127 290.04688Q38.040627 290.375 37.415627 290.375Q36.80625 290.375 36.49375 290.04688Q36.196877 289.70312 36.196877 289.20312ZM51.43125 278.6875Q51.43125 279.85938 50.80625 280.78125Q50.196877 281.6875 49.15 282.20312Q50.36875 282.73438 51.0875 283.75Q51.80625 284.75 51.80625 286.03125Q51.80625 288.0625 50.43125 289.26562Q49.05625 290.46875 46.821877 290.46875Q44.571877 290.46875 43.2125 289.26562Q41.853127 288.04688 41.853127 286.03125Q41.853127 284.76562 42.540627 283.75Q43.24375 282.71875 44.4625 282.1875Q43.415627 281.67188 42.80625 280.76562Q42.2125 279.84375 42.2125 278.6875Q42.2125 276.71875 43.478127 275.5625Q44.759377 274.39062 46.821877 274.39062Q48.884377 274.39062 50.15 275.5625Q51.43125 276.71875 51.43125 278.6875ZM49.80625 285.98438Q49.80625 284.67188 48.978127 283.84375Q48.15 283.01562 46.80625 283.01562Q45.4625 283.01562 44.65 283.84375Q43.8375 284.65625 43.8375 285.98438Q43.8375 287.3125 44.61875 288.07812Q45.415627 288.84375 46.821877 288.84375Q48.228127 288.84375 49.009377 288.07812Q49.80625 287.3125 49.80625 285.98438ZM46.821877 276.03125Q45.65 276.03125 44.93125 276.76562Q44.2125 277.48438 44.2125 278.71875Q44.2125 279.92188 44.915627 280.65625Q45.634377 281.39062 46.821877 281.39062Q48.025 281.39062 48.728127 280.65625Q49.446877 279.92188 49.446877 278.73438Q49.446877 277.53125 48.696877 276.78125Q47.9625 276.03125 46.821877 276.03125ZM54.86875 282.40625L55.665627 274.60938L63.665627 274.60938L63.665627 276.45312L57.3375 276.45312L56.86875 280.70312Q58.025 280.03125 59.478127 280.03125Q61.61875 280.03125 62.86875 281.45312Q64.13438 282.85938 64.13438 285.26562Q64.13438 287.6875 62.821877 289.07812Q61.525 290.46875 59.18125 290.46875Q57.103127 290.46875 55.790627 289.32812Q54.49375 288.17188 54.30625 286.14062L56.18125 286.14062Q56.36875 287.48438 57.134377 288.17188Q57.915627 288.84375 59.18125 288.84375Q60.571877 288.84375 61.353127 287.90625Q62.15 286.95312 62.15 285.28125Q62.15 283.71875 61.290627 282.76562Q60.43125 281.8125 59.025 281.8125Q57.728127 281.8125 56.978127 282.39062L56.446877 282.8125L54.86875 282.40625Z" fill-rule="nonzero"/><path fill="#000000" d="M45.759377 216.07812Q45.759377 219.5625 44.55625 221.26562Q43.36875 222.96875 40.8375 222.96875Q38.3375 222.96875 37.134377 221.3125Q35.93125 219.64062 35.884377 216.34375L35.884377 213.6875Q35.884377 210.25 37.071877 208.57812Q38.275 206.89062 40.821877 206.89062Q43.3375 206.89062 44.525 208.51562Q45.728127 210.125 45.759377 213.5L45.759377 216.07812ZM43.775 213.35938Q43.775 210.84375 43.05625 209.6875Q42.353127 208.53125 40.821877 208.53125Q39.290627 208.53125 38.5875 209.6875Q37.9 210.82812 37.86875 213.20312L37.86875 216.39062Q37.86875 218.92188 38.603127 220.14062Q39.3375 221.34375 40.8375 221.34375Q42.30625 221.34375 43.025 220.20312Q43.74375 219.0625 43.775 216.60938L43.775 213.35938ZM48.196877 221.70312Q48.196877 221.1875 48.49375 220.84375Q48.80625 220.5 49.415627 220.5Q50.040627 220.5 50.353127 220.84375Q50.665627 221.1875 50.665627 221.70312Q50.665627 222.20312 50.353127 222.54688Q50.040627 222.875 49.415627 222.875Q48.80625 222.875 48.49375 222.54688Q48.196877 222.20312 48.196877 221.70312ZM61.571877 215.875Q60.946877 216.60938 60.071877 217.0625Q59.2125 217.51562 58.18125 217.51562Q56.821877 217.51562 55.821877 216.85938Q54.821877 216.1875 54.275 214.98438Q53.728127 213.76562 53.728127 212.3125Q53.728127 210.73438 54.321877 209.48438Q54.915627 208.21875 56.009377 207.5625Q57.103127 206.89062 58.571877 206.89062Q60.884377 206.89062 62.228127 208.625Q63.571877 210.35938 63.571877 213.35938L63.571877 213.9375Q63.571877 218.5 61.759377 220.60938Q59.9625 222.70312 56.30625 222.76562L55.93125 222.76562L55.93125 221.07812L56.353127 221.07812Q58.80625 221.04688 60.11875 219.8125Q61.446877 218.5625 61.571877 215.875ZM58.509377 215.875Q59.509377 215.875 60.353127 215.26562Q61.196877 214.65625 61.571877 213.75L61.571877 212.95312Q61.571877 211.0 60.728127 209.78125Q59.884377 208.54688 58.5875 208.54688Q57.275 208.54688 56.478127 209.5625Q55.68125 210.5625 55.68125 212.20312Q55.68125 213.79688 56.446877 214.84375Q57.2125 215.875 58.509377 215.875Z" fill-rule="nonzero"/><path fill="#000000" d="M33.759377 148.57812Q33.759377 152.0625 32.55625 153.76562Q31.36875 155.46875 28.8375 155.46875Q26.3375 155.46875 25.134375 153.8125Q23.93125 152.14062 23.884375 148.84375L23.884375 146.1875Q23.884375 142.75 25.071875 141.07812Q26.275 139.39062 28.821875 139.39062Q31.3375 139.39062 32.525 141.01562Q33.728127 142.625 33.759377 146.0L33.759377 148.57812ZM31.775 145.85938Q31.775 143.34375 31.05625 142.1875Q30.353125 141.03125 28.821875 141.03125Q27.290625 141.03125 26.5875 142.1875Q25.9 143.32812 25.86875 145.70312L25.86875 148.89062Q25.86875 151.42188 26.603125 152.64062Q27.3375 153.84375 28.8375 153.84375Q30.30625 153.84375 31.025 152.70312Q31.74375 151.5625 31.775 149.10938L31.775 145.85938ZM36.196877 154.20312Q36.196877 153.6875 36.49375 153.34375Q36.80625 153.0 37.415627 153.0Q38.040627 153.0 38.353127 153.34375Q38.665627 153.6875 38.665627 154.20312Q38.665627 154.70312 38.353127 155.04688Q38.040627 155.375 37.415627 155.375Q36.80625 155.375 36.49375 155.04688Q36.196877 154.70312 36.196877 154.20312ZM49.571877 148.375Q48.946877 149.10938 48.071877 149.5625Q47.2125 150.01562 46.18125 150.01562Q44.821877 150.01562 43.821877 149.35938Q42.821877 148.6875 42.275 147.48438Q41.728127 146.26562 41.728127 144.8125Q41.728127 143.23438 42.321877 141.98438Q42.915627 140.71875 44.009377 140.0625Q45.103127 139.39062 46.571877 139.39062Q48.884377 139.39062 50.228127 141.125Q51.571877 142.85938 51.571877 145.85938L51.571877 146.4375Q51.571877 151.0 49.759377 153.10938Q47.9625 155.20312 44.30625 155.26562L43.93125 155.26562L43.93125 153.57812L44.353127 153.57812Q46.80625 153.54688 48.11875 152.3125Q49.446877 151.0625 49.571877 148.375ZM46.509377 148.375Q47.509377 148.375 48.353127 147.76562Q49.196877 147.15625 49.571877 146.25L49.571877 145.45312Q49.571877 143.5 48.728127 142.28125Q47.884377 141.04688 46.5875 141.04688Q45.275 141.04688 44.478127 142.0625Q43.68125 143.0625 43.68125 144.70312Q43.68125 146.29688 44.446877 147.34375Q45.2125 148.375 46.509377 148.375ZM54.86875 147.40625L55.665627 139.60938L63.665627 139.60938L63.665627 141.45312L57.3375 141.45312L56.86875 145.70312Q58.025 145.03125 59.478127 145.03125Q61.61875 145.03125 62.86875 146.45312Q64.13438 147.85938 64.13438 150.26562Q64.13438 152.6875 62.821877 154.07812Q61.525 155.46875 59.18125 155.46875Q57.103127 155.46875 55.790627 154.32812Q54.49375 153.17188 54.30625 151.14062L56.18125 151.14062Q56.36875 152.48438 57.134377 153.17188Q57.915627 153.84375 59.18125 153.84375Q60.571877 153.84375 61.353127 152.90625Q62.15 151.95312 62.15 150.28125Q62.15 148.71875 61.290627 147.76562Q60.43125 146.8125 59.025 146.8125Q57.728127 146.8125 56.978127 147.39062L56.446877 147.8125L54.86875 147.40625Z" fill-rule="nonzero"/><path fill="#000000" d="M60.478127 87.75L58.478127 87.75L58.478127 74.5L54.478127 75.96875L54.478127 74.171875L60.165627 72.03125L60.478127 72.03125L60.478127 87.75Z" fill-rule="nonzero"/><path fill="#000000" d="M144.67851 377.28125Q144.38164 379.76562 142.83476 381.125Q141.30351 382.46875 138.74101 382.46875Q135.97539 382.46875 134.30351 380.48438Q132.63164 378.48438 132.63164 375.15625L132.63164 373.65625Q132.63164 371.46875 133.41289 369.82812Q134.19414 368.17188 135.61601 367.28125Q137.03789 366.39062 138.92851 366.39062Q141.41289 366.39062 142.91289 367.78125Q144.42851 369.17188 144.67851 371.64062L142.60039 371.64062Q142.33476 369.76562 141.42851 368.9375Q140.53789 368.09375 138.92851 368.09375Q136.94414 368.09375 135.81914 369.5625Q134.70976 371.01562 134.70976 373.70312L134.70976 375.21875Q134.70976 377.76562 135.77226 379.28125Q136.83476 380.78125 138.74101 380.78125Q140.45976 380.78125 141.38164 380.0Q142.30351 379.21875 142.60039 377.28125L144.67851 377.28125ZM149.00664 382.25L147.02226 382.25L147.02226 365.75L149.00664 365.75L149.00664 382.25ZM159.03789 382.25Q158.86601 381.90625 158.75664 381.03125Q157.36601 382.46875 155.44414 382.46875Q153.72539 382.46875 152.61601 381.5Q151.52226 380.51562 151.52226 379.03125Q151.52226 377.21875 152.89726 376.21875Q154.28789 375.20312 156.78789 375.20312L158.72539 375.20312L158.72539 374.29688Q158.72539 373.25 158.10039 372.64062Q157.47539 372.01562 156.25664 372.01562Q155.19414 372.01562 154.47539 372.5625Q153.75664 373.09375 153.75664 373.84375L151.75664 373.84375Q151.75664 372.98438 152.36601 372.17188Q152.99101 371.35938 154.05351 370.89062Q155.11601 370.40625 156.38164 370.40625Q158.38164 370.40625 159.52226 371.42188Q160.66289 372.42188 160.70976 374.1875L160.70976 379.53125Q160.70976 381.125 161.11601 382.07812L161.11601 382.25L159.03789 382.25ZM155.72539 380.73438Q156.66289 380.73438 157.50664 380.25Q158.35039 379.76562 158.72539 379.0L158.72539 376.60938L157.16289 376.60938Q153.50664 376.60938 153.50664 378.75Q153.50664 379.6875 154.13164 380.21875Q154.75664 380.73438 155.72539 380.73438ZM165.74101 370.625L165.80351 372.09375Q167.13164 370.40625 169.27226 370.40625Q172.95976 370.40625 172.99101 374.5625L172.99101 382.25L171.00664 382.25L171.00664 374.5625Q170.99101 373.29688 170.42851 372.70312Q169.86601 372.09375 168.67851 372.09375Q167.70976 372.09375 166.97539 372.60938Q166.25664 373.125 165.83476 373.96875L165.83476 382.25L163.85039 382.25L163.85039 370.625L165.74101 370.625ZM175.38164 376.34375Q175.38164 373.625 176.63164 372.01562Q177.89726 370.40625 179.97539 370.40625Q182.10039 370.40625 183.28789 371.92188L183.38164 370.625L185.19414 370.625L185.19414 381.96875Q185.19414 384.23438 183.85039 385.53125Q182.52226 386.82812 180.27226 386.82812Q179.00664 386.82812 177.80351 386.28125Q176.60039 385.75 175.97539 384.8125L177.00664 383.625Q178.28789 385.20312 180.13164 385.20312Q181.58476 385.20312 182.39726 384.39062Q183.20976 383.57812 183.20976 382.09375L183.20976 381.09375Q182.00664 382.46875 179.94414 382.46875Q177.91289 382.46875 176.64726 380.82812Q175.38164 379.17188 175.38164 376.34375ZM177.38164 376.5625Q177.38164 378.53125 178.17851 379.65625Q178.99101 380.78125 180.44414 380.78125Q182.31914 380.78125 183.20976 379.0625L183.20976 373.76562Q182.28789 372.09375 180.45976 372.09375Q179.00664 372.09375 178.19414 373.23438Q177.38164 374.35938 177.38164 376.5625Z" fill-rule="nonzero"/><path fill="#000000" d="M227.98523 376.125L227.98523 382.25L225.92273 382.25L225.92273 366.60938L231.68835 366.60938Q234.26648 366.60938 235.7196 367.92188Q237.17273 369.23438 237.17273 371.39062Q237.17273 373.67188 235.75085 374.90625Q234.32898 376.125 231.67273 376.125L227.98523 376.125ZM227.98523 374.4375L231.68835 374.4375Q233.3446 374.4375 234.2196 373.65625Q235.11023 372.875 235.11023 371.40625Q235.11023 370.01562 234.2196 369.1875Q233.3446 368.34375 231.81335 368.3125L227.98523 368.3125L227.98523 374.4375ZM239.0946 376.32812Q239.0946 374.625 239.76648 373.26562Q240.43835 371.89062 241.62585 371.15625Q242.82898 370.40625 244.36023 370.40625Q246.73523 370.40625 248.20398 372.0625Q249.67273 373.70312 249.67273 376.42188L249.67273 376.5625Q249.67273 378.26562 249.01648 379.60938Q248.37585 380.95312 247.1571 381.71875Q245.95398 382.46875 244.39148 382.46875Q242.01648 382.46875 240.54773 380.82812Q239.0946 379.17188 239.0946 376.46875L239.0946 376.32812ZM241.07898 376.5625Q241.07898 378.5 241.9696 379.67188Q242.87585 380.84375 244.39148 380.84375Q245.89148 380.84375 246.7821 379.65625Q247.68835 378.46875 247.68835 376.32812Q247.68835 374.42188 246.76648 373.23438Q245.86023 372.04688 244.36023 372.04688Q242.89148 372.04688 241.98523 373.21875Q241.07898 374.39062 241.07898 376.5625ZM259.37585 379.17188Q259.37585 378.35938 258.76648 377.92188Q258.17273 377.46875 256.6571 377.15625Q255.1571 376.82812 254.26648 376.375Q253.37585 375.92188 252.95398 375.29688Q252.5321 374.67188 252.5321 373.8125Q252.5321 372.39062 253.73523 371.40625Q254.93835 370.40625 256.82898 370.40625Q258.79773 370.40625 260.0321 371.4375Q261.26648 372.45312 261.26648 374.04688L259.26648 374.04688Q259.26648 373.21875 258.56335 372.64062Q257.87585 372.04688 256.82898 372.04688Q255.73523 372.04688 255.12585 372.51562Q254.51648 372.98438 254.51648 373.75Q254.51648 374.46875 255.07898 374.84375Q255.6571 375.20312 257.14148 375.54688Q258.62585 375.875 259.54773 376.34375Q260.48523 376.79688 260.92273 377.45312Q261.37585 378.09375 261.37585 379.03125Q261.37585 380.57812 260.12585 381.53125Q258.87585 382.46875 256.89148 382.46875Q255.50085 382.46875 254.42273 381.96875Q253.3446 381.46875 252.73523 380.59375Q252.12585 379.70312 252.12585 378.67188L254.12585 378.67188Q254.17273 379.67188 254.92273 380.26562Q255.67273 380.84375 256.89148 380.84375Q258.01648 380.84375 258.68835 380.39062Q259.37585 379.92188 259.37585 379.17188ZM266.31335 367.8125L266.31335 370.625L268.48523 370.625L268.48523 372.15625L266.31335 372.15625L266.31335 379.375Q266.31335 380.0625 266.5946 380.42188Q266.89148 380.76562 267.5946 380.76562Q267.93835 380.76562 268.5321 380.64062L268.5321 382.25Q267.75085 382.46875 267.01648 382.46875Q265.67273 382.46875 265.00085 381.67188Q264.32898 380.85938 264.32898 379.375L264.32898 372.15625L262.20398 372.15625L262.20398 370.625L264.32898 370.625L264.32898 367.8125L266.31335 367.8125ZM270.14148 376.34375Q270.14148 373.625 271.39148 372.01562Q272.6571 370.40625 274.73523 370.40625Q276.86023 370.40625 278.04773 371.92188L278.14148 370.625L279.95398 370.625L279.95398 381.96875Q279.95398 384.23438 278.61023 385.53125Q277.2821 386.82812 275.0321 386.82812Q273.76648 386.82812 272.56335 386.28125Q271.36023 385.75 270.73523 384.8125L271.76648 383.625Q273.04773 385.20312 274.89148 385.20312Q276.3446 385.20312 277.1571 384.39062Q277.9696 383.57812 277.9696 382.09375L277.9696 381.09375Q276.76648 382.46875 274.70398 382.46875Q272.67273 382.46875 271.4071 380.82812Q270.14148 379.17188 270.14148 376.34375ZM272.14148 376.5625Q272.14148 378.53125 272.93835 379.65625Q273.75085 380.78125 275.20398 380.78125Q277.07898 380.78125 277.9696 379.0625L277.9696 373.76562Q277.04773 372.09375 275.2196 372.09375Q273.76648 372.09375 272.95398 373.23438Q272.14148 374.35938 272.14148 376.5625ZM288.23523 372.40625Q287.7821 372.32812 287.25085 372.32812Q285.29773 372.32812 284.5946 374.0L284.5946 382.25L282.61023 382.25L282.61023 370.625L284.54773 370.625L284.57898 371.96875Q285.56335 370.40625 287.3446 370.40625Q287.93835 370.40625 288.23523 370.5625L288.23523 372.40625ZM294.43835 382.46875Q292.07898 382.46875 290.5946 380.92188Q289.11023 379.35938 289.11023 376.76562L289.11023 376.39062Q289.11023 374.67188 289.76648 373.3125Q290.43835 371.95312 291.61023 371.1875Q292.79773 370.40625 294.18835 370.40625Q296.45398 370.40625 297.70398 371.90625Q298.9696 373.39062 298.9696 376.1875L298.9696 377.0L291.0946 377.0Q291.14148 378.71875 292.0946 379.78125Q293.06335 380.84375 294.54773 380.84375Q295.5946 380.84375 296.32898 380.42188Q297.06335 379.98438 297.61023 379.28125L298.81335 380.21875Q297.36023 382.46875 294.43835 382.46875ZM294.18835 372.04688Q292.98523 372.04688 292.17273 372.92188Q291.36023 373.79688 291.1571 375.375L296.98523 375.375L296.98523 375.21875Q296.89148 373.70312 296.1571 372.875Q295.43835 372.04688 294.18835 372.04688ZM306.5321 375.28125Q303.87585 374.51562 302.67273 373.40625Q301.4696 372.29688 301.4696 370.65625Q301.4696 368.8125 302.93835 367.60938Q304.42273 366.39062 306.7821 366.39062Q308.39148 366.39062 309.6571 367.01562Q310.92273 367.64062 311.61023 368.73438Q312.29773 369.82812 312.29773 371.125L310.23523 371.125Q310.23523 369.71875 309.32898 368.90625Q308.42273 368.09375 306.7821 368.09375Q305.25085 368.09375 304.39148 368.76562Q303.54773 369.4375 303.54773 370.625Q303.54773 371.57812 304.36023 372.25Q305.17273 372.90625 307.11023 373.45312Q309.06335 374.0 310.1571 374.67188Q311.26648 375.32812 311.79773 376.20312Q312.32898 377.07812 312.32898 378.28125Q312.32898 380.17188 310.8446 381.32812Q309.37585 382.46875 306.89148 382.46875Q305.2821 382.46875 303.87585 381.85938Q302.48523 381.23438 301.7196 380.15625Q300.9696 379.07812 300.9696 377.71875L303.04773 377.71875Q303.04773 379.14062 304.0946 379.96875Q305.14148 380.78125 306.89148 380.78125Q308.51648 380.78125 309.39148 380.125Q310.26648 379.45312 310.26648 378.29688Q310.26648 377.14062 309.45398 376.51562Q308.6571 375.89062 306.5321 375.28125ZM326.87585 374.9375Q326.87585 377.20312 326.1571 378.84375Q325.43835 380.48438 324.12585 381.40625L326.92273 383.59375L325.51648 384.89062L322.2196 382.26562Q321.45398 382.46875 320.5946 382.46875Q318.73523 382.46875 317.29773 381.5625Q315.87585 380.65625 315.07898 378.96875Q314.29773 377.28125 314.2821 375.07812L314.2821 373.95312Q314.2821 371.6875 315.06335 369.96875Q315.8446 368.23438 317.2821 367.3125Q318.7196 366.39062 320.56335 366.39062Q322.45398 366.39062 323.89148 367.3125Q325.32898 368.21875 326.0946 369.9375Q326.87585 371.64062 326.87585 373.9375L326.87585 374.9375ZM324.81335 373.92188Q324.81335 371.15625 323.70398 369.67188Q322.61023 368.17188 320.56335 368.17188Q318.62585 368.17188 317.50085 369.65625Q316.37585 371.14062 316.3446 373.78125L316.3446 374.9375Q316.3446 377.625 317.4696 379.17188Q318.5946 380.71875 320.57898 380.71875Q322.57898 380.71875 323.67273 379.26562Q324.7821 377.79688 324.81335 375.07812L324.81335 373.92188ZM332.00085 380.5625L339.4071 380.5625L339.4071 382.25L329.92273 382.25L329.92273 366.60938L332.00085 366.60938L332.00085 380.5625Z" fill-rule="nonzero"/><path fill="#000000" d="M384.2451 366.60938L386.3076 366.60938L386.3076 377.6875Q386.3076 379.92188 384.96384 381.20312Q383.6201 382.46875 381.3701 382.46875Q379.04196 382.46875 377.72946 381.28125Q376.4326 380.07812 376.4326 377.9375L378.4951 377.9375Q378.4951 379.28125 379.22946 380.03125Q379.97946 380.78125 381.3701 380.78125Q382.65134 380.78125 383.4326 379.98438Q384.22946 379.17188 384.2451 377.71875L384.2451 366.60938ZM396.5576 382.25Q396.3857 381.90625 396.27634 381.03125Q394.8857 382.46875 392.96384 382.46875Q391.2451 382.46875 390.1357 381.5Q389.04196 380.51562 389.04196 379.03125Q389.04196 377.21875 390.41696 376.21875Q391.8076 375.20312 394.3076 375.20312L396.2451 375.20312L396.2451 374.29688Q396.2451 373.25 395.6201 372.64062Q394.9951 372.01562 393.77634 372.01562Q392.71384 372.01562 391.9951 372.5625Q391.27634 373.09375 391.27634 373.84375L389.27634 373.84375Q389.27634 372.98438 389.8857 372.17188Q390.5107 371.35938 391.5732 370.89062Q392.6357 370.40625 393.90134 370.40625Q395.90134 370.40625 397.04196 371.42188Q398.1826 372.42188 398.22946 374.1875L398.22946 379.53125Q398.22946 381.125 398.6357 382.07812L398.6357 382.25L396.5576 382.25ZM393.2451 380.73438Q394.1826 380.73438 395.02634 380.25Q395.8701 379.76562 396.2451 379.0L396.2451 376.60938L394.6826 376.60938Q391.02634 376.60938 391.02634 378.75Q391.02634 379.6875 391.65134 380.21875Q392.27634 380.73438 393.2451 380.73438ZM405.21384 379.54688L408.08884 370.625L410.1201 370.625L405.9482 382.25L404.4326 382.25L400.22946 370.625L402.2607 370.625L405.21384 379.54688ZM419.5576 382.25Q419.3857 381.90625 419.27634 381.03125Q417.8857 382.46875 415.96384 382.46875Q414.2451 382.46875 413.1357 381.5Q412.04196 380.51562 412.04196 379.03125Q412.04196 377.21875 413.41696 376.21875Q414.8076 375.20312 417.3076 375.20312L419.2451 375.20312L419.2451 374.29688Q419.2451 373.25 418.6201 372.64062Q417.9951 372.01562 416.77634 372.01562Q415.71384 372.01562 414.9951 372.5625Q414.27634 373.09375 414.27634 373.84375L412.27634 373.84375Q412.27634 372.98438 412.8857 372.17188Q413.5107 371.35938 414.5732 370.89062Q415.6357 370.40625 416.90134 370.40625Q418.90134 370.40625 420.04196 371.42188Q421.1826 372.42188 421.22946 374.1875L421.22946 379.53125Q421.22946 381.125 421.6357 382.07812L421.6357 382.25L419.5576 382.25ZM416.2451 380.73438Q417.1826 380.73438 418.02634 380.25Q418.8701 379.76562 419.2451 379.0L419.2451 376.60938L417.6826 376.60938Q414.02634 376.60938 414.02634 378.75Q414.02634 379.6875 414.65134 380.21875Q415.27634 380.73438 416.2451 380.73438ZM429.04196 380.84375Q430.10446 380.84375 430.8857 380.20312Q431.6826 379.54688 431.77634 378.59375L433.65134 378.59375Q433.60446 379.57812 432.96384 380.48438Q432.33884 381.39062 431.27634 381.9375Q430.21384 382.46875 429.04196 382.46875Q426.66696 382.46875 425.2607 380.89062Q423.85446 379.29688 423.85446 376.54688L423.85446 376.21875Q423.85446 374.51562 424.47946 373.20312Q425.10446 371.875 426.2607 371.14062Q427.4326 370.40625 429.02634 370.40625Q430.97946 370.40625 432.27634 371.57812Q433.5732 372.75 433.65134 374.625L431.77634 374.625Q431.6826 373.5 430.91696 372.78125Q430.15134 372.04688 429.02634 372.04688Q427.5107 372.04688 426.66696 373.14062Q425.83884 374.21875 425.83884 376.28125L425.83884 376.65625Q425.83884 378.67188 426.66696 379.76562Q427.4951 380.84375 429.04196 380.84375Z" fill-rule="nonzero"/><path fill="#000000" d="M502.9424 382.25L502.9424 366.60938L507.3643 366.60938Q509.39554 366.60938 510.95804 367.51562Q512.53613 368.40625 513.3799 370.07812Q514.23926 371.75 514.2549 373.90625L514.2549 374.90625Q514.2549 377.10938 513.3955 378.78125Q512.55176 380.4375 510.95804 381.34375Q509.3799 382.23438 507.27054 382.25L502.9424 382.25ZM505.0049 368.3125L505.0049 380.5625L507.1768 380.5625Q509.5674 380.5625 510.89554 379.07812Q512.22363 377.59375 512.22363 374.85938L512.22363 373.95312Q512.22363 371.28125 510.95804 369.8125Q509.70804 368.32812 507.41116 368.3125L505.0049 368.3125ZM521.458 382.46875Q519.09863 382.46875 517.61426 380.92188Q516.1299 379.35938 516.1299 376.76562L516.1299 376.39062Q516.1299 374.67188 516.78613 373.3125Q517.458 371.95312 518.6299 371.1875Q519.8174 370.40625 521.208 370.40625Q523.47363 370.40625 524.72363 371.90625Q525.98926 373.39062 525.98926 376.1875L525.98926 377.0L518.11426 377.0Q518.16113 378.71875 519.11426 379.78125Q520.083 380.84375 521.5674 380.84375Q522.61426 380.84375 523.34863 380.42188Q524.083 379.98438 524.6299 379.28125L525.833 380.21875Q524.3799 382.46875 521.458 382.46875ZM521.208 372.04688Q520.0049 372.04688 519.1924 372.92188Q518.3799 373.79688 518.17676 375.375L524.0049 375.375L524.0049 375.21875Q523.91113 373.70312 523.17676 372.875Q522.458 372.04688 521.208 372.04688ZM534.2549 372.40625Q533.80176 372.32812 533.2705 372.32812Q531.3174 372.32812 530.61426 374.0L530.61426 382.25L528.6299 382.25L528.6299 370.625L530.5674 370.625L530.59863 371.96875Q531.583 370.40625 533.36426 370.40625Q533.958 370.40625 534.2549 370.5625L534.2549 372.40625ZM545.47363 376.5625Q545.47363 379.23438 544.23926 380.85938Q543.0205 382.46875 540.958 382.46875Q538.7549 382.46875 537.55176 380.90625L537.458 382.25L535.6299 382.25L535.6299 365.75L537.61426 365.75L537.61426 371.90625Q538.8174 370.40625 540.92676 370.40625Q543.05176 370.40625 544.2549 372.01562Q545.47363 373.60938 545.47363 376.39062L545.47363 376.5625ZM543.48926 376.34375Q543.48926 374.3125 542.6924 373.20312Q541.91113 372.09375 540.4424 372.09375Q538.47363 372.09375 537.61426 373.92188L537.61426 378.95312Q538.53613 380.78125 540.47363 380.78125Q541.8955 380.78125 542.6924 379.67188Q543.48926 378.5625 543.48926 376.34375ZM551.4424 379.34375L554.1455 370.625L556.2705 370.625L551.59863 384.04688Q550.5205 386.9375 548.1455 386.9375L547.7705 386.90625L547.03613 386.76562L547.03613 385.15625L547.5674 385.20312Q548.583 385.20312 549.1455 384.79688Q549.708 384.39062 550.0674 383.29688L550.5205 382.125L546.36426 370.625L548.53613 370.625L551.4424 379.34375Z" fill-rule="nonzero"/><path fill="#000000" d="M628.2335 382.25L626.1554 382.25L618.2804 370.20312L618.2804 382.25L616.2023 382.25L616.2023 366.60938L618.2804 366.60938L626.171 378.71875L626.171 366.60938L628.2335 366.60938L628.2335 382.25ZM631.37415 376.32812Q631.37415 374.625 632.046 373.26562Q632.7179 371.89062 633.9054 371.15625Q635.1085 370.40625 636.6398 370.40625Q639.0148 370.40625 640.4835 372.0625Q641.9523 373.70312 641.9523 376.42188L641.9523 376.5625Q641.9523 378.26562 641.296 379.60938Q640.6554 380.95312 639.43665 381.71875Q638.2335 382.46875 636.671 382.46875Q634.296 382.46875 632.8273 380.82812Q631.37415 379.17188 631.37415 376.46875L631.37415 376.32812ZM633.3585 376.5625Q633.3585 378.5 634.24915 379.67188Q635.1554 380.84375 636.671 380.84375Q638.171 380.84375 639.06165 379.65625Q639.9679 378.46875 639.9679 376.32812Q639.9679 374.42188 639.046 373.23438Q638.1398 372.04688 636.6398 372.04688Q635.171 372.04688 634.2648 373.21875Q633.3585 374.39062 633.3585 376.5625ZM644.4054 376.34375Q644.4054 373.67188 645.671 372.04688Q646.9523 370.40625 648.99915 370.40625Q651.046 370.40625 652.2335 371.8125L652.2335 365.75L654.2179 365.75L654.2179 382.25L652.3898 382.25L652.296 381.0Q651.1085 382.46875 648.9835 382.46875Q646.9523 382.46875 645.671 380.8125Q644.4054 379.15625 644.4054 376.48438L644.4054 376.34375ZM646.4054 376.5625Q646.4054 378.54688 647.2179 379.67188Q648.0304 380.78125 649.4679 380.78125Q651.3585 380.78125 652.2335 379.07812L652.2335 373.73438Q651.3429 372.09375 649.49915 372.09375Q648.0304 372.09375 647.2179 373.23438Q646.4054 374.35938 646.4054 376.5625ZM661.7179 382.46875Q659.3585 382.46875 657.87415 380.92188Q656.3898 379.35938 656.3898 376.76562L656.3898 376.39062Q656.3898 374.67188 657.046 373.3125Q657.7179 371.95312 658.8898 371.1875Q660.0773 370.40625 661.4679 370.40625Q663.7335 370.40625 664.9835 371.90625Q666.24915 373.39062 666.24915 376.1875L666.24915 377.0L658.37415 377.0Q658.421 378.71875 659.37415 379.78125Q660.3429 380.84375 661.8273 380.84375Q662.87415 380.84375 663.6085 380.42188Q664.3429 379.98438 664.8898 379.28125L666.0929 380.21875Q664.6398 382.46875 661.7179 382.46875ZM661.4679 372.04688Q660.2648 372.04688 659.4523 372.92188Q658.6398 373.79688 658.43665 375.375L664.2648 375.375L664.2648 375.21875Q664.171 373.70312 663.43665 372.875Q662.7179 372.04688 661.4679 372.04688ZM668.93665 381.20312Q668.93665 380.6875 669.2335 380.34375Q669.546 380.0 670.1554 380.0Q670.7804 380.0 671.0929 380.34375Q671.4054 380.6875 671.4054 381.20312Q671.4054 381.70312 671.0929 382.04688Q670.7804 382.375 670.1554 382.375Q669.546 382.375 669.2335 382.04688Q668.93665 381.70312 668.93665 381.20312ZM676.9523 370.625L676.9523 383.59375Q676.9523 386.9375 673.9054 386.9375Q673.24915 386.9375 672.68665 386.75L672.68665 385.15625Q673.0304 385.25 673.5929 385.25Q674.2648 385.25 674.6085 384.89062Q674.9523 384.53125 674.9523 383.64062L674.9523 370.625L676.9523 370.625ZM674.74915 367.54688Q674.74915 367.07812 675.046 366.73438Q675.3429 366.39062 675.921 366.39062Q676.49915 366.39062 676.796 366.73438Q677.0929 367.0625 677.0929 367.54688Q677.0929 368.03125 676.796 368.35938Q676.49915 368.67188 675.9054 368.67188Q675.3273 368.67188 675.0304 368.35938Q674.74915 368.03125 674.74915 367.54688ZM686.6554 379.17188Q686.6554 378.35938 686.046 377.92188Q685.4523 377.46875 683.93665 377.15625Q682.43665 376.82812 681.546 376.375Q680.6554 375.92188 680.2335 375.29688Q679.81165 374.67188 679.81165 373.8125Q679.81165 372.39062 681.0148 371.40625Q682.2179 370.40625 684.1085 370.40625Q686.0773 370.40625 687.31165 371.4375Q688.546 372.45312 688.546 374.04688L686.546 374.04688Q686.546 373.21875 685.8429 372.64062Q685.1554 372.04688 684.1085 372.04688Q683.0148 372.04688 682.4054 372.51562Q681.796 372.98438 681.796 373.75Q681.796 374.46875 682.3585 374.84375Q682.93665 375.20312 684.421 375.54688Q685.9054 375.875 686.8273 376.34375Q687.7648 376.79688 688.2023 377.45312Q688.6554 378.09375 688.6554 379.03125Q688.6554 380.57812 687.4054 381.53125Q686.1554 382.46875 684.171 382.46875Q682.7804 382.46875 681.7023 381.96875Q680.62415 381.46875 680.0148 380.59375Q679.4054 379.70312 679.4054 378.67188L681.4054 378.67188Q681.4523 379.67188 682.2023 380.26562Q682.9523 380.84375 684.171 380.84375Q685.296 380.84375 685.9679 380.39062Q686.6554 379.92188 686.6554 379.17188Z" fill-rule="nonzero"/><path fill="#000000" d="M745.134 366.60938L750.24335 379.375L755.3527 366.60938L758.0246 366.60938L758.0246 382.25L755.9621 382.25L755.9621 376.15625L756.1652 369.57812L751.0246 382.25L749.4465 382.25L744.3215 369.60938L744.5246 376.15625L744.5246 382.25L742.4621 382.25L742.4621 366.60938L745.134 366.60938ZM764.9621 379.34375L767.6652 370.625L769.7902 370.625L765.11835 384.04688Q764.0402 386.9375 761.6652 386.9375L761.2902 386.90625L760.55585 386.76562L760.55585 385.15625L761.0871 385.20312Q762.1027 385.20312 762.6652 384.79688Q763.2277 384.39062 763.5871 383.29688L764.0402 382.125L759.884 370.625L762.05585 370.625L764.9621 379.34375ZM776.0715 375.28125Q773.4152 374.51562 772.2121 373.40625Q771.009 372.29688 771.009 370.65625Q771.009 368.8125 772.4777 367.60938Q773.9621 366.39062 776.3215 366.39062Q777.93085 366.39062 779.1965 367.01562Q780.4621 367.64062 781.1496 368.73438Q781.8371 369.82812 781.8371 371.125L779.7746 371.125Q779.7746 369.71875 778.86835 368.90625Q777.9621 368.09375 776.3215 368.09375Q774.7902 368.09375 773.93085 368.76562Q773.0871 369.4375 773.0871 370.625Q773.0871 371.57812 773.8996 372.25Q774.7121 372.90625 776.6496 373.45312Q778.6027 374.0 779.6965 374.67188Q780.80585 375.32812 781.3371 376.20312Q781.86835 377.07812 781.86835 378.28125Q781.86835 380.17188 780.384 381.32812Q778.9152 382.46875 776.43085 382.46875Q774.8215 382.46875 773.4152 381.85938Q772.0246 381.23438 771.259 380.15625Q770.509 379.07812 770.509 377.71875L772.5871 377.71875Q772.5871 379.14062 773.634 379.96875Q774.68085 380.78125 776.43085 380.78125Q778.05585 380.78125 778.93085 380.125Q779.80585 379.45312 779.80585 378.29688Q779.80585 377.14062 778.99335 376.51562Q778.1965 375.89062 776.0715 375.28125ZM796.4152 374.9375Q796.4152 377.20312 795.6965 378.84375Q794.9777 380.48438 793.6652 381.40625L796.4621 383.59375L795.05585 384.89062L791.759 382.26562Q790.99335 382.46875 790.134 382.46875Q788.2746 382.46875 786.8371 381.5625Q785.4152 380.65625 784.61835 378.96875Q783.8371 377.28125 783.8215 375.07812L783.8215 373.95312Q783.8215 371.6875 784.6027 369.96875Q785.384 368.23438 786.8215 367.3125Q788.259 366.39062 790.1027 366.39062Q791.99335 366.39062 793.43085 367.3125Q794.86835 368.21875 795.634 369.9375Q796.4152 371.64062 796.4152 373.9375L796.4152 374.9375ZM794.3527 373.92188Q794.3527 371.15625 793.24335 369.67188Q792.1496 368.17188 790.1027 368.17188Q788.1652 368.17188 787.0402 369.65625Q785.9152 371.14062 785.884 373.78125L785.884 374.9375Q785.884 377.625 787.009 379.17188Q788.134 380.71875 790.11835 380.71875Q792.11835 380.71875 793.2121 379.26562Q794.3215 377.79688 794.3527 375.07812L794.3527 373.92188ZM801.5402 380.5625L808.9465 380.5625L808.9465 382.25L799.4621 382.25L799.4621 366.60938L801.5402 366.60938L801.5402 380.5625Z" fill-rule="nonzero"/><path fill="#4285f4" d="M130.5 411.85C130.5 411.29773 130.94771 410.85 131.5 410.85L141.5 410.85C142.05229 410.85 142.5 411.29773 142.5 411.85L142.5 421.85C142.5 422.40228 142.05229 422.85 141.5 422.85L131.5 422.85C130.94771 422.85 130.5 422.40228 130.5 421.85Z" fill-rule="nonzero"/><path fill="#000000" d="M163.125 410.4125L158.09375 410.4125L158.09375 424.35L156.04688 424.35L156.04688 410.4125L151.03125 410.4125L151.03125 408.70938L163.125 408.70938L163.125 410.4125ZM166.98438 414.13126Q168.3125 412.50626 170.42188 412.50626Q174.10938 412.50626 174.14062 416.6625L174.14062 424.35L172.15625 424.35L172.15625 416.6625Q172.14062 415.39688 171.57812 414.80313Q171.01562 414.19376 169.82812 414.19376Q168.85938 414.19376 168.125 414.70938Q167.40625 415.225 166.98438 416.06876L166.98438 424.35L165.0 424.35L165.0 407.85L166.98438 407.85L166.98438 414.13126ZM182.625 414.50626Q182.17188 414.42813 181.64062 414.42813Q179.6875 414.42813 178.98438 416.1L178.98438 424.35L177.0 424.35L177.0 412.725L178.9375 412.725L178.96875 414.06876Q179.95312 412.50626 181.73438 412.50626Q182.32812 412.50626 182.625 412.6625L182.625 414.50626ZM188.82812 424.56876Q186.46875 424.56876 184.98438 423.02188Q183.5 421.45938 183.5 418.86563L183.5 418.49063Q183.5 416.77188 184.15625 415.4125Q184.82812 414.05313 186.0 413.2875Q187.1875 412.50626 188.57812 412.50626Q190.84375 412.50626 192.09375 414.00626Q193.35938 415.49063 193.35938 418.2875L193.35938 419.1L185.48438 419.1Q185.53125 420.81876 186.48438 421.88126Q187.45312 422.94376 188.9375 422.94376Q189.98438 422.94376 190.71875 422.52188Q191.45312 422.08438 192.0 421.38126L193.20312 422.31876Q191.75 424.56876 188.82812 424.56876ZM188.57812 414.14688Q187.375 414.14688 186.5625 415.02188Q185.75 415.89688 185.54688 417.475L191.375 417.475L191.375 417.31876Q191.28125 415.80313 190.54688 414.975Q189.82812 414.14688 188.57812 414.14688ZM202.76562 421.27188Q202.76562 420.45938 202.15625 420.02188Q201.5625 419.56876 200.04688 419.25626Q198.54688 418.92813 197.65625 418.475Q196.76562 418.02188 196.34375 417.39688Q195.92188 416.77188 195.92188 415.9125Q195.92188 414.49063 197.125 413.50626Q198.32812 412.50626 200.21875 412.50626Q202.1875 412.50626 203.42188 413.5375Q204.65625 414.55313 204.65625 416.14688L202.65625 416.14688Q202.65625 415.31876 201.95312 414.74063Q201.26562 414.14688 200.21875 414.14688Q199.125 414.14688 198.51562 414.61563Q197.90625 415.08438 197.90625 415.85Q197.90625 416.56876 198.46875 416.94376Q199.04688 417.30313 200.53125 417.64688Q202.01562 417.975 202.9375 418.44376Q203.875 418.89688 204.3125 419.55313Q204.76562 420.19376 204.76562 421.13126Q204.76562 422.67813 203.51562 423.63126Q202.26562 424.56876 200.28125 424.56876Q198.89062 424.56876 197.8125 424.06876Q196.73438 423.56876 196.125 422.69376Q195.51562 421.80313 195.51562 420.77188L197.51562 420.77188Q197.5625 421.77188 198.3125 422.36563Q199.0625 422.94376 200.28125 422.94376Q201.40625 422.94376 202.07812 422.49063Q202.76562 422.02188 202.76562 421.27188ZM208.98438 414.13126Q210.3125 412.50626 212.42188 412.50626Q216.10938 412.50626 216.14062 416.6625L216.14062 424.35L214.15625 424.35L214.15625 416.6625Q214.14062 415.39688 213.57812 414.80313Q213.01562 414.19376 211.82812 414.19376Q210.85938 414.19376 210.125 414.70938Q209.40625 415.225 208.98438 416.06876L208.98438 424.35L207.0 424.35L207.0 407.85L208.98438 407.85L208.98438 414.13126ZM218.48438 418.42813Q218.48438 416.725 219.15625 415.36563Q219.82812 413.99063 221.01562 413.25626Q222.21875 412.50626 223.75 412.50626Q226.125 412.50626 227.59375 414.1625Q229.0625 415.80313 229.0625 418.52188L229.0625 418.6625Q229.0625 420.36563 228.40625 421.70938Q227.76562 423.05313 226.54688 423.81876Q225.34375 424.56876 223.78125 424.56876Q221.40625 424.56876 219.9375 422.92813Q218.48438 421.27188 218.48438 418.56876L218.48438 418.42813ZM220.46875 418.6625Q220.46875 420.6 221.35938 421.77188Q222.26562 422.94376 223.78125 422.94376Q225.28125 422.94376 226.17188 421.75626Q227.07812 420.56876 227.07812 418.42813Q227.07812 416.52188 226.15625 415.33438Q225.25 414.14688 223.75 414.14688Q222.28125 414.14688 221.375 415.31876Q220.46875 416.49063 220.46875 418.6625ZM234.15625 424.35L232.17188 424.35L232.17188 407.85L234.15625 407.85L234.15625 424.35ZM236.51562 418.44376Q236.51562 415.77188 237.78125 414.14688Q239.0625 412.50626 241.10938 412.50626Q243.15625 412.50626 244.34375 413.9125L244.34375 407.85L246.32812 407.85L246.32812 424.35L244.5 424.35L244.40625 423.1Q243.21875 424.56876 241.09375 424.56876Q239.0625 424.56876 237.78125 422.9125Q236.51562 421.25626 236.51562 418.58438L236.51562 418.44376ZM238.51562 418.6625Q238.51562 420.64688 239.32812 421.77188Q240.14062 422.88126 241.57812 422.88126Q243.46875 422.88126 244.34375 421.17813L244.34375 415.83438Q243.45312 414.19376 241.60938 414.19376Q240.14062 414.19376 239.32812 415.33438Q238.51562 416.45938 238.51562 418.6625ZM264.04688 424.35L253.79688 424.35L253.79688 422.92813L259.21875 416.9125Q260.42188 415.5375 260.875 414.69376Q261.32812 413.83438 261.32812 412.9125Q261.32812 411.69376 260.57812 410.9125Q259.84375 410.13126 258.60938 410.13126Q257.125 410.13126 256.29688 410.975Q255.48438 411.81876 255.48438 413.31876L253.5 413.31876Q253.5 411.1625 254.89062 409.83438Q256.28125 408.49063 258.60938 408.49063Q260.79688 408.49063 262.0625 409.64688Q263.32812 410.7875 263.32812 412.67813Q263.32812 414.99063 260.39062 418.17813L256.20312 422.725L264.04688 422.725L264.04688 424.35ZM275.89062 409.81876L269.42188 424.35L267.34375 424.35L273.79688 410.33438L265.32812 410.33438L265.32812 408.70938L275.89062 408.70938L275.89062 409.81876Z" fill-rule="nonzero"/><path fill="#db4437" d="M292.5 411.85C292.5 411.29773 292.94772 410.85 293.5 410.85L303.5 410.85C304.05228 410.85 304.5 411.29773 304.5 411.85L304.5 421.85C304.5 422.40228 304.05228 422.85 303.5 422.85L293.5 422.85C292.94772 422.85 292.5 422.40228 292.5 421.85Z" fill-rule="nonzero"/><path fill="#000000" d="M325.125 410.4125L320.09375 410.4125L320.09375 424.35L318.04688 424.35L318.04688 410.4125L313.03125 410.4125L313.03125 408.70938L325.125 408.70938L325.125 410.4125ZM328.98438 414.13126Q330.3125 412.50626 332.42188 412.50626Q336.10938 412.50626 336.14062 416.6625L336.14062 424.35L334.15625 424.35L334.15625 416.6625Q334.14062 415.39688 333.57812 414.80313Q333.01562 414.19376 331.82812 414.19376Q330.85938 414.19376 330.125 414.70938Q329.40625 415.225 328.98438 416.06876L328.98438 424.35L327.0 424.35L327.0 407.85L328.98438 407.85L328.98438 414.13126ZM344.625 414.50626Q344.17188 414.42813 343.64062 414.42813Q341.6875 414.42813 340.98438 416.1L340.98438 424.35L339.0 424.35L339.0 412.725L340.9375 412.725L340.96875 414.06876Q341.95312 412.50626 343.73438 412.50626Q344.32812 412.50626 344.625 412.6625L344.625 414.50626ZM350.82812 424.56876Q348.46875 424.56876 346.98438 423.02188Q345.5 421.45938 345.5 418.86563L345.5 418.49063Q345.5 416.77188 346.15625 415.4125Q346.82812 414.05313 348.0 413.2875Q349.1875 412.50626 350.57812 412.50626Q352.84375 412.50626 354.09375 414.00626Q355.35938 415.49063 355.35938 418.2875L355.35938 419.1L347.48438 419.1Q347.53125 420.81876 348.48438 421.88126Q349.45312 422.94376 350.9375 422.94376Q351.98438 422.94376 352.71875 422.52188Q353.45312 422.08438 354.0 421.38126L355.20312 422.31876Q353.75 424.56876 350.82812 424.56876ZM350.57812 414.14688Q349.375 414.14688 348.5625 415.02188Q347.75 415.89688 347.54688 417.475L353.375 417.475L353.375 417.31876Q353.28125 415.80313 352.54688 414.975Q351.82812 414.14688 350.57812 414.14688ZM364.76562 421.27188Q364.76562 420.45938 364.15625 420.02188Q363.5625 419.56876 362.04688 419.25626Q360.54688 418.92813 359.65625 418.475Q358.76562 418.02188 358.34375 417.39688Q357.92188 416.77188 357.92188 415.9125Q357.92188 414.49063 359.125 413.50626Q360.32812 412.50626 362.21875 412.50626Q364.1875 412.50626 365.42188 413.5375Q366.65625 414.55313 366.65625 416.14688L364.65625 416.14688Q364.65625 415.31876 363.95312 414.74063Q363.26562 414.14688 362.21875 414.14688Q361.125 414.14688 360.51562 414.61563Q359.90625 415.08438 359.90625 415.85Q359.90625 416.56876 360.46875 416.94376Q361.04688 417.30313 362.53125 417.64688Q364.01562 417.975 364.9375 418.44376Q365.875 418.89688 366.3125 419.55313Q366.76562 420.19376 366.76562 421.13126Q366.76562 422.67813 365.51562 423.63126Q364.26562 424.56876 362.28125 424.56876Q360.89062 424.56876 359.8125 424.06876Q358.73438 423.56876 358.125 422.69376Q357.51562 421.80313 357.51562 420.77188L359.51562 420.77188Q359.5625 421.77188 360.3125 422.36563Q361.0625 422.94376 362.28125 422.94376Q363.40625 422.94376 364.07812 422.49063Q364.76562 422.02188 364.76562 421.27188ZM370.98438 414.13126Q372.3125 412.50626 374.42188 412.50626Q378.10938 412.50626 378.14062 416.6625L378.14062 424.35L376.15625 424.35L376.15625 416.6625Q376.14062 415.39688 375.57812 414.80313Q375.01562 414.19376 373.82812 414.19376Q372.85938 414.19376 372.125 414.70938Q371.40625 415.225 370.98438 416.06876L370.98438 424.35L369.0 424.35L369.0 407.85L370.98438 407.85L370.98438 414.13126ZM380.48438 418.42813Q380.48438 416.725 381.15625 415.36563Q381.82812 413.99063 383.01562 413.25626Q384.21875 412.50626 385.75 412.50626Q388.125 412.50626 389.59375 414.1625Q391.0625 415.80313 391.0625 418.52188L391.0625 418.6625Q391.0625 420.36563 390.40625 421.70938Q389.76562 423.05313 388.54688 423.81876Q387.34375 424.56876 385.78125 424.56876Q383.40625 424.56876 381.9375 422.92813Q380.48438 421.27188 380.48438 418.56876L380.48438 418.42813ZM382.46875 418.6625Q382.46875 420.6 383.35938 421.77188Q384.26562 422.94376 385.78125 422.94376Q387.28125 422.94376 388.17188 421.75626Q389.07812 420.56876 389.07812 418.42813Q389.07812 416.52188 388.15625 415.33438Q387.25 414.14688 385.75 414.14688Q384.28125 414.14688 383.375 415.31876Q382.46875 416.49063 382.46875 418.6625ZM396.15625 424.35L394.17188 424.35L394.17188 407.85L396.15625 407.85L396.15625 424.35ZM398.51562 418.44376Q398.51562 415.77188 399.78125 414.14688Q401.0625 412.50626 403.10938 412.50626Q405.15625 412.50626 406.34375 413.9125L406.34375 407.85L408.32812 407.85L408.32812 424.35L406.5 424.35L406.40625 423.1Q405.21875 424.56876 403.09375 424.56876Q401.0625 424.56876 399.78125 422.9125Q398.51562 421.25626 398.51562 418.58438L398.51562 418.44376ZM400.51562 418.6625Q400.51562 420.64688 401.32812 421.77188Q402.14062 422.88126 403.57812 422.88126Q405.46875 422.88126 406.34375 421.17813L406.34375 415.83438Q405.45312 414.19376 403.60938 414.19376Q402.14062 414.19376 401.32812 415.33438Q400.51562 416.45938 400.51562 418.6625ZM422.32812 424.35L420.32812 424.35L420.32812 411.1L416.32812 412.56876L416.32812 410.77188L422.01562 408.63126L422.32812 408.63126L422.32812 424.35ZM437.28125 412.7875Q437.28125 413.95938 436.65625 414.88126Q436.04688 415.7875 435.0 416.30313Q436.21875 416.83438 436.9375 417.85Q437.65625 418.85 437.65625 420.13126Q437.65625 422.1625 436.28125 423.36563Q434.90625 424.56876 432.67188 424.56876Q430.42188 424.56876 429.0625 423.36563Q427.70312 422.14688 427.70312 420.13126Q427.70312 418.86563 428.39062 417.85Q429.09375 416.81876 430.3125 416.2875Q429.26562 415.77188 428.65625 414.86563Q428.0625 413.94376 428.0625 412.7875Q428.0625 410.81876 429.32812 409.6625Q430.60938 408.49063 432.67188 408.49063Q434.73438 408.49063 436.0 409.6625Q437.28125 410.81876 437.28125 412.7875ZM435.65625 420.08438Q435.65625 418.77188 434.82812 417.94376Q434.0 417.11563 432.65625 417.11563Q431.3125 417.11563 430.5 417.94376Q429.6875 418.75626 429.6875 420.08438Q429.6875 421.4125 430.46875 422.17813Q431.26562 422.94376 432.67188 422.94376Q434.07812 422.94376 434.85938 422.17813Q435.65625 421.4125 435.65625 420.08438ZM432.67188 410.13126Q431.5 410.13126 430.78125 410.86563Q430.0625 411.58438 430.0625 412.81876Q430.0625 414.02188 430.76562 414.75626Q431.48438 415.49063 432.67188 415.49063Q433.875 415.49063 434.57812 414.75626Q435.29688 414.02188 435.29688 412.83438Q435.29688 411.63126 434.54688 410.88126Q433.8125 410.13126 432.67188 410.13126Z" fill-rule="nonzero"/><path fill="#f4b400" d="M454.5 411.85C454.5 411.29773 454.94772 410.85 455.5 410.85L465.5 410.85C466.05228 410.85 466.5 411.29773 466.5 411.85L466.5 421.85C466.5 422.40228 466.05228 422.85 465.5 422.85L455.5 422.85C454.94772 422.85 454.5 422.40228 454.5 421.85Z" fill-rule="nonzero"/><path fill="#000000" d="M487.125 410.4125L482.09375 410.4125L482.09375 424.35L480.04688 424.35L480.04688 410.4125L475.03125 410.4125L475.03125 408.70938L487.125 408.70938L487.125 410.4125ZM490.98438 414.13126Q492.3125 412.50626 494.42188 412.50626Q498.10938 412.50626 498.14062 416.6625L498.14062 424.35L496.15625 424.35L496.15625 416.6625Q496.14062 415.39688 495.57812 414.80313Q495.01562 414.19376 493.82812 414.19376Q492.85938 414.19376 492.125 414.70938Q491.40625 415.225 490.98438 416.06876L490.98438 424.35L489.0 424.35L489.0 407.85L490.98438 407.85L490.98438 414.13126ZM506.625 414.50626Q506.17188 414.42813 505.64062 414.42813Q503.6875 414.42813 502.98438 416.1L502.98438 424.35L501.0 424.35L501.0 412.725L502.9375 412.725L502.96875 414.06876Q503.95312 412.50626 505.73438 412.50626Q506.32812 412.50626 506.625 412.6625L506.625 414.50626ZM512.8281 424.56876Q510.46875 424.56876 508.98438 423.02188Q507.5 421.45938 507.5 418.86563L507.5 418.49063Q507.5 416.77188 508.15625 415.4125Q508.82812 414.05313 510.0 413.2875Q511.1875 412.50626 512.5781 412.50626Q514.84375 412.50626 516.09375 414.00626Q517.3594 415.49063 517.3594 418.2875L517.3594 419.1L509.48438 419.1Q509.53125 420.81876 510.48438 421.88126Q511.45312 422.94376 512.9375 422.94376Q513.9844 422.94376 514.71875 422.52188Q515.4531 422.08438 516.0 421.38126L517.2031 422.31876Q515.75 424.56876 512.8281 424.56876ZM512.5781 414.14688Q511.375 414.14688 510.5625 415.02188Q509.75 415.89688 509.54688 417.475L515.375 417.475L515.375 417.31876Q515.28125 415.80313 514.5469 414.975Q513.8281 414.14688 512.5781 414.14688ZM526.7656 421.27188Q526.7656 420.45938 526.15625 420.02188Q525.5625 419.56876 524.0469 419.25626Q522.5469 418.92813 521.65625 418.475Q520.7656 418.02188 520.34375 417.39688Q519.9219 416.77188 519.9219 415.9125Q519.9219 414.49063 521.125 413.50626Q522.3281 412.50626 524.21875 412.50626Q526.1875 412.50626 527.4219 413.5375Q528.65625 414.55313 528.65625 416.14688L526.65625 416.14688Q526.65625 415.31876 525.9531 414.74063Q525.2656 414.14688 524.21875 414.14688Q523.125 414.14688 522.5156 414.61563Q521.90625 415.08438 521.90625 415.85Q521.90625 416.56876 522.46875 416.94376Q523.0469 417.30313 524.53125 417.64688Q526.0156 417.975 526.9375 418.44376Q527.875 418.89688 528.3125 419.55313Q528.7656 420.19376 528.7656 421.13126Q528.7656 422.67813 527.5156 423.63126Q526.2656 424.56876 524.28125 424.56876Q522.8906 424.56876 521.8125 424.06876Q520.7344 423.56876 520.125 422.69376Q519.5156 421.80313 519.5156 420.77188L521.5156 420.77188Q521.5625 421.77188 522.3125 422.36563Q523.0625 422.94376 524.28125 422.94376Q525.40625 422.94376 526.0781 422.49063Q526.7656 422.02188 526.7656 421.27188ZM532.9844 414.13126Q534.3125 412.50626 536.4219 412.50626Q540.1094 412.50626 540.1406 416.6625L540.1406 424.35L538.15625 424.35L538.15625 416.6625Q538.1406 415.39688 537.5781 414.80313Q537.0156 414.19376 535.8281 414.19376Q534.8594 414.19376 534.125 414.70938Q533.40625 415.225 532.9844 416.06876L532.9844 424.35L531.0 424.35L531.0 407.85L532.9844 407.85L532.9844 414.13126ZM542.4844 418.42813Q542.4844 416.725 543.15625 415.36563Q543.8281 413.99063 545.0156 413.25626Q546.21875 412.50626 547.75 412.50626Q550.125 412.50626 551.59375 414.1625Q553.0625 415.80313 553.0625 418.52188L553.0625 418.6625Q553.0625 420.36563 552.40625 421.70938Q551.7656 423.05313 550.5469 423.81876Q549.34375 424.56876 547.78125 424.56876Q545.40625 424.56876 543.9375 422.92813Q542.4844 421.27188 542.4844 418.56876L542.4844 418.42813ZM544.46875 418.6625Q544.46875 420.6 545.3594 421.77188Q546.2656 422.94376 547.78125 422.94376Q549.28125 422.94376 550.1719 421.75626Q551.0781 420.56876 551.0781 418.42813Q551.0781 416.52188 550.15625 415.33438Q549.25 414.14688 547.75 414.14688Q546.28125 414.14688 545.375 415.31876Q544.46875 416.49063 544.46875 418.6625ZM558.15625 424.35L556.1719 424.35L556.1719 407.85L558.15625 407.85L558.15625 424.35ZM560.5156 418.44376Q560.5156 415.77188 561.78125 414.14688Q563.0625 412.50626 565.1094 412.50626Q567.15625 412.50626 568.34375 413.9125L568.34375 407.85L570.3281 407.85L570.3281 424.35L568.5 424.35L568.40625 423.1Q567.21875 424.56876 565.09375 424.56876Q563.0625 424.56876 561.78125 422.9125Q560.5156 421.25626 560.5156 418.58438L560.5156 418.44376ZM562.5156 418.6625Q562.5156 420.64688 563.3281 421.77188Q564.1406 422.88126 565.5781 422.88126Q567.46875 422.88126 568.34375 421.17813L568.34375 415.83438Q567.4531 414.19376 565.6094 414.19376Q564.1406 414.19376 563.3281 415.33438Q562.5156 416.45938 562.5156 418.6625ZM584.3281 424.35L582.3281 424.35L582.3281 411.1L578.3281 412.56876L578.3281 410.77188L584.0156 408.63126L584.3281 408.63126L584.3281 424.35ZM590.71875 416.50626L591.5156 408.70938L599.5156 408.70938L599.5156 410.55313L593.1875 410.55313L592.71875 414.80313Q593.875 414.13126 595.3281 414.13126Q597.46875 414.13126 598.71875 415.55313Q599.9844 416.95938 599.9844 419.36563Q599.9844 421.7875 598.6719 423.17813Q597.375 424.56876 595.03125 424.56876Q592.9531 424.56876 591.6406 423.42813Q590.34375 422.27188 590.15625 420.24063L592.03125 420.24063Q592.21875 421.58438 592.9844 422.27188Q593.7656 422.94376 595.03125 422.94376Q596.4219 422.94376 597.2031 422.00626Q598.0 421.05313 598.0 419.38126Q598.0 417.81876 597.1406 416.86563Q596.28125 415.9125 594.875 415.9125Q593.5781 415.9125 592.8281 416.49063L592.2969 416.9125L590.71875 416.50626Z" fill-rule="nonzero"/><path fill="#0f9d58" d="M616.5 411.85C616.5 411.29773 616.9477 410.85 617.5 410.85L627.5 410.85C628.0523 410.85 628.5 411.29773 628.5 411.85L628.5 421.85C628.5 422.40228 628.0523 422.85 627.5 422.85L617.5 422.85C616.9477 422.85 616.5 422.40228 616.5 421.85Z" fill-rule="nonzero"/><path fill="#000000" d="M649.125 410.4125L644.09375 410.4125L644.09375 424.35L642.0469 424.35L642.0469 410.4125L637.03125 410.4125L637.03125 408.70938L649.125 408.70938L649.125 410.4125ZM652.9844 414.13126Q654.3125 412.50626 656.4219 412.50626Q660.1094 412.50626 660.1406 416.6625L660.1406 424.35L658.15625 424.35L658.15625 416.6625Q658.1406 415.39688 657.5781 414.80313Q657.0156 414.19376 655.8281 414.19376Q654.8594 414.19376 654.125 414.70938Q653.40625 415.225 652.9844 416.06876L652.9844 424.35L651.0 424.35L651.0 407.85L652.9844 407.85L652.9844 414.13126ZM668.625 414.50626Q668.1719 414.42813 667.6406 414.42813Q665.6875 414.42813 664.9844 416.1L664.9844 424.35L663.0 424.35L663.0 412.725L664.9375 412.725L664.96875 414.06876Q665.9531 412.50626 667.7344 412.50626Q668.3281 412.50626 668.625 412.6625L668.625 414.50626ZM674.8281 424.56876Q672.46875 424.56876 670.9844 423.02188Q669.5 421.45938 669.5 418.86563L669.5 418.49063Q669.5 416.77188 670.15625 415.4125Q670.8281 414.05313 672.0 413.2875Q673.1875 412.50626 674.5781 412.50626Q676.84375 412.50626 678.09375 414.00626Q679.3594 415.49063 679.3594 418.2875L679.3594 419.1L671.4844 419.1Q671.53125 420.81876 672.4844 421.88126Q673.4531 422.94376 674.9375 422.94376Q675.9844 422.94376 676.71875 422.52188Q677.4531 422.08438 678.0 421.38126L679.2031 422.31876Q677.75 424.56876 674.8281 424.56876ZM674.5781 414.14688Q673.375 414.14688 672.5625 415.02188Q671.75 415.89688 671.5469 417.475L677.375 417.475L677.375 417.31876Q677.28125 415.80313 676.5469 414.975Q675.8281 414.14688 674.5781 414.14688ZM688.7656 421.27188Q688.7656 420.45938 688.15625 420.02188Q687.5625 419.56876 686.0469 419.25626Q684.5469 418.92813 683.65625 418.475Q682.7656 418.02188 682.34375 417.39688Q681.9219 416.77188 681.9219 415.9125Q681.9219 414.49063 683.125 413.50626Q684.3281 412.50626 686.21875 412.50626Q688.1875 412.50626 689.4219 413.5375Q690.65625 414.55313 690.65625 416.14688L688.65625 416.14688Q688.65625 415.31876 687.9531 414.74063Q687.2656 414.14688 686.21875 414.14688Q685.125 414.14688 684.5156 414.61563Q683.90625 415.08438 683.90625 415.85Q683.90625 416.56876 684.46875 416.94376Q685.0469 417.30313 686.53125 417.64688Q688.0156 417.975 688.9375 418.44376Q689.875 418.89688 690.3125 419.55313Q690.7656 420.19376 690.7656 421.13126Q690.7656 422.67813 689.5156 423.63126Q688.2656 424.56876 686.28125 424.56876Q684.8906 424.56876 683.8125 424.06876Q682.7344 423.56876 682.125 422.69376Q681.5156 421.80313 681.5156 420.77188L683.5156 420.77188Q683.5625 421.77188 684.3125 422.36563Q685.0625 422.94376 686.28125 422.94376Q687.40625 422.94376 688.0781 422.49063Q688.7656 422.02188 688.7656 421.27188ZM694.9844 414.13126Q696.3125 412.50626 698.4219 412.50626Q702.1094 412.50626 702.1406 416.6625L702.1406 424.35L700.15625 424.35L700.15625 416.6625Q700.1406 415.39688 699.5781 414.80313Q699.0156 414.19376 697.8281 414.19376Q696.8594 414.19376 696.125 414.70938Q695.40625 415.225 694.9844 416.06876L694.9844 424.35L693.0 424.35L693.0 407.85L694.9844 407.85L694.9844 414.13126ZM704.4844 418.42813Q704.4844 416.725 705.15625 415.36563Q705.8281 413.99063 707.0156 413.25626Q708.21875 412.50626 709.75 412.50626Q712.125 412.50626 713.59375 414.1625Q715.0625 415.80313 715.0625 418.52188L715.0625 418.6625Q715.0625 420.36563 714.40625 421.70938Q713.7656 423.05313 712.5469 423.81876Q711.34375 424.56876 709.78125 424.56876Q707.40625 424.56876 705.9375 422.92813Q704.4844 421.27188 704.4844 418.56876L704.4844 418.42813ZM706.46875 418.6625Q706.46875 420.6 707.3594 421.77188Q708.2656 422.94376 709.78125 422.94376Q711.28125 422.94376 712.1719 421.75626Q713.0781 420.56876 713.0781 418.42813Q713.0781 416.52188 712.15625 415.33438Q711.25 414.14688 709.75 414.14688Q708.28125 414.14688 707.375 415.31876Q706.46875 416.49063 706.46875 418.6625ZM720.15625 424.35L718.1719 424.35L718.1719 407.85L720.15625 407.85L720.15625 424.35ZM722.5156 418.44376Q722.5156 415.77188 723.78125 414.14688Q725.0625 412.50626 727.1094 412.50626Q729.15625 412.50626 730.34375 413.9125L730.34375 407.85L732.3281 407.85L732.3281 424.35L730.5 424.35L730.40625 423.1Q729.21875 424.56876 727.09375 424.56876Q725.0625 424.56876 723.78125 422.9125Q722.5156 421.25626 722.5156 418.58438L722.5156 418.44376ZM724.5156 418.6625Q724.5156 420.64688 725.3281 421.77188Q726.1406 422.88126 727.5781 422.88126Q729.46875 422.88126 730.34375 421.17813L730.34375 415.83438Q729.4531 414.19376 727.6094 414.19376Q726.1406 414.19376 725.3281 415.33438Q724.5156 416.45938 724.5156 418.6625ZM746.3281 424.35L744.3281 424.35L744.3281 411.1L740.3281 412.56876L740.3281 410.77188L746.0156 408.63126L746.3281 408.63126L746.3281 424.35Z" fill-rule="nonzero"/><path fill="#000000" d="M34.275 37.759377L26.884375 37.759377L26.884375 43.80625L35.478127 43.80625L35.478127 45.65L24.634375 45.65L24.634375 28.587502L35.353127 28.587502L35.353127 30.431252L26.884375 30.431252L26.884375 35.915627L34.275 35.915627L34.275 37.759377ZM42.540627 37.603127L45.353127 32.9625L47.884377 32.9625L43.74375 39.24375L48.025 45.65L45.509377 45.65L42.5875 40.9L39.65 45.65L37.134377 45.65L41.415627 39.24375L37.259377 32.9625L39.775 32.9625L42.540627 37.603127ZM55.55625 45.884377Q52.978127 45.884377 51.353127 44.196877Q49.74375 42.49375 49.74375 39.665627L49.74375 39.259377Q49.74375 37.36875 50.4625 35.9Q51.18125 34.415627 52.478127 33.571877Q53.775 32.728127 55.290627 32.728127Q57.759377 32.728127 59.11875 34.36875Q60.49375 35.99375 60.49375 39.025L60.49375 39.93125L51.915627 39.93125Q51.9625 41.80625 53.009377 42.9625Q54.05625 44.11875 55.665627 44.11875Q56.821877 44.11875 57.61875 43.65Q58.415627 43.18125 59.009377 42.4L60.3375 43.43125Q58.74375 45.884377 55.55625 45.884377ZM55.290627 34.509377Q53.978127 34.509377 53.0875 35.478127Q52.196877 36.43125 51.978127 38.15L58.3375 38.15L58.3375 37.978127Q58.24375 36.3375 57.446877 35.43125Q56.65 34.509377 55.290627 34.509377ZM68.38438 44.11875Q69.54063 44.11875 70.4 43.415627Q71.275 42.7125 71.36875 41.65L73.41563 41.65Q73.35313 42.74375 72.66563 43.728127Q71.97813 44.7125 70.82188 45.30625Q69.66563 45.884377 68.38438 45.884377Q65.79063 45.884377 64.25938 44.165627Q62.728127 42.43125 62.728127 39.43125L62.728127 39.05625Q62.728127 37.2125 63.4 35.775Q64.0875 34.321877 65.35313 33.525Q66.63438 32.728127 68.36875 32.728127Q70.49375 32.728127 71.9 34.009377Q73.32188 35.290627 73.41563 37.321877L71.36875 37.321877Q71.275 36.103127 70.43125 35.30625Q69.60313 34.509377 68.36875 34.509377Q66.7125 34.509377 65.80625 35.7125Q64.9 36.9 64.9 39.15L64.9 39.55625Q64.9 41.74375 65.79063 42.93125Q66.69688 44.11875 68.38438 44.11875ZM84.11875 44.4Q82.85313 45.884377 80.4 45.884377Q78.38438 45.884377 77.32188 44.7125Q76.25938 43.525 76.24375 41.2125L76.24375 32.9625L78.41563 32.9625L78.41563 41.165627Q78.41563 44.040627 80.75938 44.040627Q83.24375 44.040627 84.05625 42.196877L84.05625 32.9625L86.22813 32.9625L86.22813 45.65L84.16563 45.65L84.11875 44.4ZM92.22813 29.900002L92.22813 32.9625L94.60313 32.9625L94.60313 34.65L92.22813 34.65L92.22813 42.509377Q92.22813 43.275 92.54063 43.65Q92.86875 44.025 93.63438 44.025Q94.00938 44.025 94.66563 43.884377L94.66563 45.65Q93.80625 45.884377 92.99375 45.884377Q91.54063 45.884377 90.80625 45.009377Q90.07188 44.11875 90.07188 42.509377L90.07188 34.65L87.75938 34.65L87.75938 32.9625L90.07188 32.9625L90.07188 29.900002L92.22813 29.900002ZM99.65 45.65L97.47813 45.65L97.47813 32.9625L99.65 32.9625L99.65 45.65ZM97.30625 29.603127Q97.30625 29.071877 97.61875 28.712502Q97.94688 28.353127 98.57188 28.353127Q99.2125 28.353127 99.54063 28.712502Q99.86875 29.071877 99.86875 29.603127Q99.86875 30.134377 99.54063 30.493752Q99.2125 30.837502 98.57188 30.837502Q97.94688 30.837502 97.61875 30.493752Q97.30625 30.134377 97.30625 29.603127ZM102.7125 39.196877Q102.7125 37.321877 103.44688 35.8375Q104.18125 34.353127 105.47813 33.540627Q106.79063 32.728127 108.47813 32.728127Q111.05625 32.728127 112.65 34.525Q114.25938 36.321877 114.25938 39.290627L114.25938 39.446877Q114.25938 41.30625 113.54063 42.775Q112.8375 44.24375 111.525 45.071877Q110.2125 45.884377 108.49375 45.884377Q105.91563 45.884377 104.30625 44.0875Q102.7125 42.290627 102.7125 39.3375L102.7125 39.196877ZM104.9 39.446877Q104.9 41.55625 105.86875 42.8375Q106.85313 44.11875 108.49375 44.11875Q110.15 44.11875 111.11875 42.821877Q112.0875 41.525 112.0875 39.196877Q112.0875 37.103127 111.10313 35.80625Q110.11875 34.509377 108.47813 34.509377Q106.86875 34.509377 105.88438 35.790627Q104.9 37.071877 104.9 39.446877ZM119.3375 32.9625L119.41563 34.55625Q120.86875 32.728127 123.2125 32.728127Q127.22813 32.728127 127.25938 37.275L127.25938 45.65L125.10313 45.65L125.10313 37.259377Q125.0875 35.884377 124.4625 35.228127Q123.85313 34.571877 122.55625 34.571877Q121.49375 34.571877 120.69688 35.134377Q119.9 35.696877 119.4625 36.61875L119.4625 45.65L117.29063 45.65L117.29063 32.9625L119.3375 32.9625ZM141.38437 44.11875Q142.54062 44.11875 143.4 43.415627Q144.275 42.7125 144.36874 41.65L146.41562 41.65Q146.35312 42.74375 145.66562 43.728127Q144.97812 44.7125 143.82187 45.30625Q142.66562 45.884377 141.38437 45.884377Q138.79062 45.884377 137.25937 44.165627Q135.72812 42.43125 135.72812 39.43125L135.72812 39.05625Q135.72812 37.2125 136.4 35.775Q137.0875 34.321877 138.35312 33.525Q139.63437 32.728127 141.36874 32.728127Q143.49374 32.728127 144.9 34.009377Q146.32187 35.290627 146.41562 37.321877L144.36874 37.321877Q144.275 36.103127 143.43124 35.30625Q142.60312 34.509377 141.36874 34.509377Q139.7125 34.509377 138.80624 35.7125Q137.9 36.9 137.9 39.15L137.9 39.55625Q137.9 41.74375 138.79062 42.93125Q139.69687 44.11875 141.38437 44.11875ZM153.44687 42.478127L156.4 32.9625L158.7125 32.9625L153.61874 47.603127Q152.43124 50.775 149.85312 50.775L149.44687 50.74375L148.63437 50.5875L148.63437 48.821877L149.22812 48.86875Q150.32187 48.86875 150.93124 48.415627Q151.55624 47.978127 151.94687 46.80625L152.43124 45.509377L147.91562 32.9625L150.275 32.9625L153.44687 42.478127ZM165.38437 44.11875Q166.54062 44.11875 167.4 43.415627Q168.275 42.7125 168.36874 41.65L170.41562 41.65Q170.35312 42.74375 169.66562 43.728127Q168.97812 44.7125 167.82187 45.30625Q166.66562 45.884377 165.38437 45.884377Q162.79062 45.884377 161.25937 44.165627Q159.72812 42.43125 159.72812 39.43125L159.72812 39.05625Q159.72812 37.2125 160.4 35.775Q161.0875 34.321877 162.35312 33.525Q163.63437 32.728127 165.36874 32.728127Q167.49374 32.728127 168.9 34.009377Q170.32187 35.290627 170.41562 37.321877L168.36874 37.321877Q168.275 36.103127 167.43124 35.30625Q166.60312 34.509377 165.36874 34.509377Q163.7125 34.509377 162.80624 35.7125Q161.9 36.9 161.9 39.15L161.9 39.55625Q161.9 41.74375 162.79062 42.93125Q163.69687 44.11875 165.38437 44.11875ZM175.65 45.65L173.47812 45.65L173.47812 27.650002L175.65 27.650002L175.65 45.65ZM184.55624 45.884377Q181.97812 45.884377 180.35312 44.196877Q178.74374 42.49375 178.74374 39.665627L178.74374 39.259377Q178.74374 37.36875 179.4625 35.9Q180.18124 34.415627 181.47812 33.571877Q182.775 32.728127 184.29062 32.728127Q186.75937 32.728127 188.11874 34.36875Q189.49374 35.99375 189.49374 39.025L189.49374 39.93125L180.91562 39.93125Q180.9625 41.80625 182.00937 42.9625Q183.05624 44.11875 184.66562 44.11875Q185.82187 44.11875 186.61874 43.65Q187.41562 43.18125 188.00937 42.4L189.3375 43.43125Q187.74374 45.884377 184.55624 45.884377ZM184.29062 34.509377Q182.97812 34.509377 182.0875 35.478127Q181.19687 36.43125 180.97812 38.15L187.3375 38.15L187.3375 37.978127Q187.24374 36.3375 186.44687 35.43125Q185.65 34.509377 184.29062 34.509377ZM199.68124 42.290627Q199.68124 41.4 199.00937 40.915627Q198.35312 40.43125 196.69687 40.0875Q195.05624 39.728127 194.0875 39.24375Q193.11874 38.74375 192.65 38.071877Q192.19687 37.384377 192.19687 36.446877Q192.19687 34.884377 193.50937 33.80625Q194.8375 32.728127 196.88437 32.728127Q199.04062 32.728127 200.38437 33.853127Q201.72812 34.9625 201.72812 36.696877L199.54062 36.696877Q199.54062 35.80625 198.79062 35.165627Q198.04062 34.509377 196.88437 34.509377Q195.69687 34.509377 195.025 35.025Q194.36874 35.540627 194.36874 36.384377Q194.36874 37.165627 194.97812 37.571877Q195.60312 37.9625 197.22812 38.321877Q198.85312 38.68125 199.85312 39.196877Q200.86874 39.696877 201.35312 40.415627Q201.8375 41.11875 201.8375 42.134377Q201.8375 43.8375 200.47812 44.86875Q199.11874 45.884377 196.9625 45.884377Q195.43124 45.884377 194.25937 45.353127Q193.0875 44.80625 192.41562 43.8375Q191.75937 42.86875 191.75937 41.74375L193.93124 41.74375Q193.99374 42.8375 194.80624 43.478127Q195.61874 44.11875 196.9625 44.11875Q198.18124 44.11875 198.93124 43.61875Q199.68124 43.11875 199.68124 42.290627ZM212.3375 32.9625L212.41562 34.55625Q213.86874 32.728127 216.2125 32.728127Q220.22812 32.728127 220.25937 37.275L220.25937 45.65L218.10312 45.65L218.10312 37.259377Q218.0875 35.884377 217.4625 35.228127Q216.85312 34.571877 215.55624 34.571877Q214.49374 34.571877 213.69687 35.134377Q212.9 35.696877 212.4625 36.61875L212.4625 45.65L210.29062 45.65L210.29062 32.9625L212.3375 32.9625ZM222.7125 39.196877Q222.7125 37.321877 223.44687 35.8375Q224.18124 34.353127 225.47812 33.540627Q226.79062 32.728127 228.47812 32.728127Q231.05624 32.728127 232.65 34.525Q234.25937 36.321877 234.25937 39.290627L234.25937 39.446877Q234.25937 41.30625 233.54062 42.775Q232.8375 44.24375 231.525 45.071877Q230.2125 45.884377 228.49374 45.884377Q225.91562 45.884377 224.30624 44.0875Q222.7125 42.290627 222.7125 39.3375L222.7125 39.196877ZM224.9 39.446877Q224.9 41.55625 225.86874 42.8375Q226.85312 44.11875 228.49374 44.11875Q230.15 44.11875 231.11874 42.821877Q232.0875 41.525 232.0875 39.196877Q232.0875 37.103127 231.10312 35.80625Q230.11874 34.509377 228.47812 34.509377Q226.86874 34.509377 225.88437 35.790627Q224.9 37.071877 224.9 39.446877ZM243.41562 34.915627Q242.93124 34.8375 242.35312 34.8375Q240.22812 34.8375 239.4625 36.65L239.4625 45.65L237.29062 45.65L237.29062 32.9625L239.4 32.9625L239.43124 34.43125Q240.50937 32.728127 242.4625 32.728127Q243.0875 32.728127 243.41562 32.9L243.41562 34.915627ZM247.3375 32.9625L247.38437 34.36875Q248.79062 32.728127 251.15 32.728127Q253.80624 32.728127 254.775 34.775Q255.4 33.853127 256.41562 33.290627Q257.43124 32.728127 258.82187 32.728127Q262.99374 32.728127 263.05624 37.15L263.05624 45.65L260.88437 45.65L260.88437 37.275Q260.88437 35.915627 260.25937 35.24375Q259.65 34.571877 258.18124 34.571877Q256.97812 34.571877 256.18124 35.290627Q255.38437 36.009377 255.25937 37.228127L255.25937 45.65L253.07187 45.65L253.07187 37.3375Q253.07187 34.571877 250.36874 34.571877Q248.22812 34.571877 247.44687 36.384377L247.44687 45.65L245.275 45.65L245.275 32.9625L247.3375 32.9625ZM274.11874 45.65Q273.93124 45.275 273.82187 44.30625Q272.30624 45.884377 270.2125 45.884377Q268.3375 45.884377 267.13437 44.821877Q265.93124 43.759377 265.93124 42.134377Q265.93124 40.15 267.43124 39.05625Q268.94687 37.9625 271.66562 37.9625L273.775 37.9625L273.775 36.9625Q273.775 35.821877 273.0875 35.15Q272.41562 34.478127 271.10312 34.478127Q269.93124 34.478127 269.15 35.071877Q268.36874 35.65 268.36874 36.478127L266.18124 36.478127Q266.18124 35.540627 266.85312 34.65Q267.54062 33.759377 268.68124 33.24375Q269.8375 32.728127 271.22812 32.728127Q273.41562 32.728127 274.65 33.8375Q275.9 34.93125 275.94687 36.853127L275.94687 42.68125Q275.94687 44.43125 276.4 45.4625L276.4 45.65L274.11874 45.65ZM270.525 43.99375Q271.54062 43.99375 272.44687 43.478127Q273.36874 42.946877 273.775 42.103127L273.775 39.49375L272.0875 39.49375Q268.10312 39.49375 268.10312 41.821877Q268.10312 42.853127 268.775 43.43125Q269.4625 43.99375 270.525 43.99375ZM281.65 45.65L279.47812 45.65L279.47812 27.650002L281.65 27.650002L281.65 45.65ZM287.65 45.65L285.47812 45.65L285.47812 32.9625L287.65 32.9625L287.65 45.65ZM285.30624 29.603127Q285.30624 29.071877 285.61874 28.712502Q285.94687 28.353127 286.57187 28.353127Q287.2125 28.353127 287.54062 28.712502Q287.86874 29.071877 287.86874 29.603127Q287.86874 30.134377 287.54062 30.493752Q287.2125 30.837502 286.57187 30.837502Q285.94687 30.837502 285.61874 30.493752Q285.30624 30.134377 285.30624 29.603127ZM293.3375 43.884377L300.74374 43.884377L300.74374 45.65L290.68124 45.65L290.68124 44.05625L297.68124 34.759377L290.79062 34.759377L290.79062 32.9625L300.4 32.9625L300.4 34.509377L293.3375 43.884377ZM308.55624 45.884377Q305.97812 45.884377 304.35312 44.196877Q302.74374 42.49375 302.74374 39.665627L302.74374 39.259377Q302.74374 37.36875 303.4625 35.9Q304.18124 34.415627 305.47812 33.571877Q306.775 32.728127 308.29062 32.728127Q310.75937 32.728127 312.11874 34.36875Q313.49374 35.99375 313.49374 39.025L313.49374 39.93125L304.91562 39.93125Q304.9625 41.80625 306.00937 42.9625Q307.05624 44.11875 308.66562 44.11875Q309.82187 44.11875 310.61874 43.65Q311.41562 43.18125 312.00937 42.4L313.3375 43.43125Q311.74374 45.884377 308.55624 45.884377ZM308.29062 34.509377Q306.97812 34.509377 306.0875 35.478127Q305.19687 36.43125 304.97812 38.15L311.3375 38.15L311.3375 37.978127Q311.24374 36.3375 310.44687 35.43125Q309.65 34.509377 308.29062 34.509377ZM315.75937 39.196877Q315.75937 36.290627 317.13437 34.509377Q318.525 32.728127 320.775 32.728127Q322.99374 32.728127 324.29062 34.259377L324.29062 27.650002L326.4625 27.650002L326.4625 45.65L324.47812 45.65L324.36874 44.290627Q323.07187 45.884377 320.74374 45.884377Q318.54062 45.884377 317.15 44.0875Q315.75937 42.275 315.75937 39.36875L315.75937 39.196877ZM317.93124 39.446877Q317.93124 41.603127 318.82187 42.821877Q319.7125 44.040627 321.29062 44.040627Q323.35312 44.040627 324.29062 42.196877L324.29062 36.36875Q323.32187 34.571877 321.30624 34.571877Q319.7125 34.571877 318.82187 35.80625Q317.93124 37.040627 317.93124 39.446877ZM339.22812 29.900002L339.22812 32.9625L341.60312 32.9625L341.60312 34.65L339.22812 34.65L339.22812 42.509377Q339.22812 43.275 339.54062 43.65Q339.86874 44.025 340.63437 44.025Q341.00937 44.025 341.66562 43.884377L341.66562 45.65Q340.80624 45.884377 339.99374 45.884377Q338.54062 45.884377 337.80624 45.009377Q337.07187 44.11875 337.07187 42.509377L337.07187 34.65L334.75937 34.65L334.75937 32.9625L337.07187 32.9625L337.07187 29.900002L339.22812 29.900002ZM343.7125 39.196877Q343.7125 37.321877 344.44687 35.8375Q345.18124 34.353127 346.47812 33.540627Q347.79062 32.728127 349.47812 32.728127Q352.05624 32.728127 353.65 34.525Q355.25937 36.321877 355.25937 39.290627L355.25937 39.446877Q355.25937 41.30625 354.54062 42.775Q353.8375 44.24375 352.525 45.071877Q351.2125 45.884377 349.49374 45.884377Q346.91562 45.884377 345.30624 44.0875Q343.7125 42.290627 343.7125 39.3375L343.7125 39.196877ZM345.9 39.446877Q345.9 41.55625 346.86874 42.8375Q347.85312 44.11875 349.49374 44.11875Q351.15 44.11875 352.11874 42.821877Q353.0875 41.525 353.0875 39.196877Q353.0875 37.103127 352.10312 35.80625Q351.11874 34.509377 349.47812 34.509377Q347.86874 34.509377 346.88437 35.790627Q345.9 37.071877 345.9 39.446877ZM371.68124 42.290627Q371.68124 41.4 371.00937 40.915627Q370.35312 40.43125 368.69687 40.0875Q367.05624 39.728127 366.0875 39.24375Q365.11874 38.74375 364.65 38.071877Q364.19687 37.384377 364.19687 36.446877Q364.19687 34.884377 365.50937 33.80625Q366.8375 32.728127 368.88437 32.728127Q371.04062 32.728127 372.38437 33.853127Q373.72812 34.9625 373.72812 36.696877L371.54062 36.696877Q371.54062 35.80625 370.79062 35.165627Q370.04062 34.509377 368.88437 34.509377Q367.69687 34.509377 367.025 35.025Q366.36874 35.540627 366.36874 36.384377Q366.36874 37.165627 366.97812 37.571877Q367.60312 37.9625 369.22812 38.321877Q370.85312 38.68125 371.85312 39.196877Q372.86874 39.696877 373.35312 40.415627Q373.8375 41.11875 373.8375 42.134377Q373.8375 43.8375 372.47812 44.86875Q371.11874 45.884377 368.9625 45.884377Q367.43124 45.884377 366.25937 45.353127Q365.0875 44.80625 364.41562 43.8375Q363.75937 42.86875 363.75937 41.74375L365.93124 41.74375Q365.99374 42.8375 366.80624 43.478127Q367.61874 44.11875 368.9625 44.11875Q370.18124 44.11875 370.93124 43.61875Q371.68124 43.11875 371.68124 42.290627ZM379.22812 29.900002L379.22812 32.9625L381.60312 32.9625L381.60312 34.65L379.22812 34.65L379.22812 42.509377Q379.22812 43.275 379.54062 43.65Q379.86874 44.025 380.63437 44.025Q381.00937 44.025 381.66562 43.884377L381.66562 45.65Q380.80624 45.884377 379.99374 45.884377Q378.54062 45.884377 377.80624 45.009377Q377.07187 44.11875 377.07187 42.509377L377.07187 34.65L374.75937 34.65L374.75937 32.9625L377.07187 32.9625L377.07187 29.900002L379.22812 29.900002ZM383.7125 39.196877Q383.7125 37.321877 384.44687 35.8375Q385.18124 34.353127 386.47812 33.540627Q387.79062 32.728127 389.47812 32.728127Q392.05624 32.728127 393.65 34.525Q395.25937 36.321877 395.25937 39.290627L395.25937 39.446877Q395.25937 41.30625 394.54062 42.775Q393.8375 44.24375 392.525 45.071877Q391.2125 45.884377 389.49374 45.884377Q386.91562 45.884377 385.30624 44.0875Q383.7125 42.290627 383.7125 39.3375L383.7125 39.196877ZM385.9 39.446877Q385.9 41.55625 386.86874 42.8375Q387.85312 44.11875 389.49374 44.11875Q391.15 44.11875 392.11874 42.821877Q393.0875 41.525 393.0875 39.196877Q393.0875 37.103127 392.10312 35.80625Q391.11874 34.509377 389.47812 34.509377Q387.86874 34.509377 386.88437 35.790627Q385.9 37.071877 385.9 39.446877ZM403.38437 44.11875Q404.54062 44.11875 405.4 43.415627Q406.275 42.7125 406.36874 41.65L408.41562 41.65Q408.35312 42.74375 407.66562 43.728127Q406.97812 44.7125 405.82187 45.30625Q404.66562 45.884377 403.38437 45.884377Q400.79062 45.884377 399.25937 44.165627Q397.72812 42.43125 397.72812 39.43125L397.72812 39.05625Q397.72812 37.2125 398.4 35.775Q399.0875 34.321877 400.35312 33.525Q401.63437 32.728127 403.36874 32.728127Q405.49374 32.728127 406.9 34.009377Q408.32187 35.290627 408.41562 37.321877L406.36874 37.321877Q406.275 36.103127 405.43124 35.30625Q404.60312 34.509377 403.36874 34.509377Q401.7125 34.509377 400.80624 35.7125Q399.9 36.9 399.9 39.15L399.9 39.55625Q399.9 41.74375 400.79062 42.93125Q401.69687 44.11875 403.38437 44.11875ZM414.8375 39.775L413.47812 41.196877L413.47812 45.65L411.30624 45.65L411.30624 27.650002L413.47812 27.650002L413.47812 38.540627L414.63437 37.134377L418.5875 32.9625L421.2125 32.9625L416.29062 38.259377L421.79062 45.65L419.24374 45.65L414.8375 39.775ZM439.04062 38.11875L431.88437 38.11875L431.88437 45.65L429.63437 45.65L429.63437 28.587502L440.19687 28.587502L440.19687 30.431252L431.88437 30.431252L431.88437 36.275L439.04062 36.275L439.04062 38.11875ZM448.41562 34.915627Q447.93124 34.8375 447.35312 34.8375Q445.22812 34.8375 444.4625 36.65L444.4625 45.65L442.29062 45.65L442.29062 32.9625L444.4 32.9625L444.43124 34.43125Q445.50937 32.728127 447.4625 32.728127Q448.0875 32.728127 448.41562 32.9L448.41562 34.915627ZM455.55624 45.884377Q452.97812 45.884377 451.35312 44.196877Q449.74374 42.49375 449.74374 39.665627L449.74374 39.259377Q449.74374 37.36875 450.4625 35.9Q451.18124 34.415627 452.47812 33.571877Q453.775 32.728127 455.29062 32.728127Q457.75937 32.728127 459.11874 34.36875Q460.49374 35.99375 460.49374 39.025L460.49374 39.93125L451.91562 39.93125Q451.9625 41.80625 453.00937 42.9625Q454.05624 44.11875 455.66562 44.11875Q456.82187 44.11875 457.61874 43.65Q458.41562 43.18125 459.00937 42.4L460.3375 43.43125Q458.74374 45.884377 455.55624 45.884377ZM455.29062 34.509377Q453.97812 34.509377 453.0875 35.478127Q452.19687 36.43125 451.97812 38.15L458.3375 38.15L458.3375 37.978127Q458.24374 36.3375 457.44687 35.43125Q456.65 34.509377 455.29062 34.509377ZM468.55624 45.884377Q465.97812 45.884377 464.35312 44.196877Q462.74374 42.49375 462.74374 39.665627L462.74374 39.259377Q462.74374 37.36875 463.4625 35.9Q464.18124 34.415627 465.47812 33.571877Q466.775 32.728127 468.29062 32.728127Q470.75937 32.728127 472.11874 34.36875Q473.49374 35.99375 473.49374 39.025L473.49374 39.93125L464.91562 39.93125Q464.9625 41.80625 466.00937 42.9625Q467.05624 44.11875 468.66562 44.11875Q469.82187 44.11875 470.61874 43.65Q471.41562 43.18125 472.00937 42.4L473.3375 43.43125Q471.74374 45.884377 468.55624 45.884377ZM468.29062 34.509377Q466.97812 34.509377 466.0875 35.478127Q465.19687 36.43125 464.97812 38.15L471.3375 38.15L471.3375 37.978127Q471.24374 36.3375 470.44687 35.43125Q469.65 34.509377 468.29062 34.509377ZM476.63437 45.65L476.63437 28.587502L482.2125 28.587502Q484.99374 28.587502 486.38437 29.743752Q487.79062 30.884377 487.79062 33.134377Q487.79062 34.321877 487.10312 35.24375Q486.43124 36.165627 485.25937 36.665627Q486.63437 37.05625 487.43124 38.15Q488.24374 39.228127 488.24374 40.728127Q488.24374 43.025 486.75937 44.3375Q485.275 45.65 482.55624 45.65L476.63437 45.65ZM478.88437 37.665627L478.88437 43.80625L482.60312 43.80625Q484.16562 43.80625 485.07187 42.99375Q485.97812 42.18125 485.97812 40.74375Q485.97812 37.665627 482.63437 37.665627L478.88437 37.665627ZM478.88437 35.86875L482.275 35.86875Q483.75937 35.86875 484.63437 35.134377Q485.525 34.384377 485.525 33.11875Q485.525 31.712502 484.69687 31.071877Q483.88437 30.431252 482.2125 30.431252L478.88437 30.431252L478.88437 35.86875ZM496.66562 38.040627Q493.75937 37.2125 492.44687 36.009377Q491.13437 34.790627 491.13437 33.009377Q491.13437 30.993752 492.74374 29.681252Q494.35312 28.353127 496.93124 28.353127Q498.68124 28.353127 500.05624 29.040627Q501.44687 29.712502 502.19687 30.915627Q502.94687 32.103127 502.94687 33.525L500.69687 33.525Q500.69687 31.978127 499.7125 31.087502Q498.72812 30.196877 496.93124 30.196877Q495.25937 30.196877 494.32187 30.931252Q493.4 31.665627 493.4 32.9625Q493.4 34.009377 494.275 34.728127Q495.16562 35.446877 497.29062 36.05625Q499.43124 36.65 500.61874 37.36875Q501.82187 38.0875 502.4 39.05625Q502.99374 40.009377 502.99374 41.30625Q502.99374 43.384377 501.36874 44.634377Q499.75937 45.884377 497.04062 45.884377Q495.29062 45.884377 493.75937 45.2125Q492.24374 44.540627 491.41562 43.36875Q490.5875 42.196877 490.5875 40.696877L492.85312 40.696877Q492.85312 42.24375 493.99374 43.15Q495.13437 44.040627 497.04062 44.040627Q498.82187 44.040627 499.775 43.321877Q500.72812 42.5875 500.72812 41.3375Q500.72812 40.0875 499.8375 39.4Q498.9625 38.7125 496.66562 38.040627ZM505.63437 45.65L505.63437 28.587502L510.44687 28.587502Q512.6813 28.587502 514.3844 29.571877Q516.10315 30.556252 517.025 32.36875Q517.9625 34.18125 517.97815 36.540627L517.97815 37.634377Q517.97815 40.040627 517.04065 41.86875Q516.10315 43.68125 514.3688 44.65Q512.65 45.61875 510.35312 45.65L505.63437 45.65ZM507.88437 30.431252L507.88437 43.80625L510.24374 43.80625Q512.85315 43.80625 514.29065 42.196877Q515.7438 40.571877 515.7438 37.5875L515.7438 36.5875Q515.7438 33.68125 514.3688 32.071877Q513.0094 30.462502 510.50937 30.431252L507.88437 30.431252ZM527.2125 38.728127Q527.2125 36.071877 527.91565 33.634377Q528.6344 31.196877 530.04065 29.212502Q531.4469 27.212502 532.9469 26.400002L533.4 27.821877Q531.6813 29.134377 530.5875 31.837502Q529.4938 34.525 529.3844 37.86875L529.3844 38.86875Q529.3844 43.384377 531.025 46.7125Q532.025 48.7125 533.4 49.8375L532.9469 51.165627Q531.4 50.290627 529.97815 48.259377Q527.2125 44.259377 527.2125 38.728127ZM537.65 45.65L535.47815 45.65L535.47815 27.650002L537.65 27.650002L537.65 45.65ZM540.7125 39.196877Q540.7125 37.321877 541.4469 35.8375Q542.1813 34.353127 543.47815 33.540627Q544.79065 32.728127 546.47815 32.728127Q549.0563 32.728127 550.65 34.525Q552.2594 36.321877 552.2594 39.290627L552.2594 39.446877Q552.2594 41.30625 551.54065 42.775Q550.8375 44.24375 549.525 45.071877Q548.2125 45.884377 546.4938 45.884377Q543.91565 45.884377 542.3063 44.0875Q540.7125 42.290627 540.7125 39.3375L540.7125 39.196877ZM542.9 39.446877Q542.9 41.55625 543.8688 42.8375Q544.85315 44.11875 546.4938 44.11875Q548.15 44.11875 549.1188 42.821877Q550.0875 41.525 550.0875 39.196877Q550.0875 37.103127 549.10315 35.80625Q548.1188 34.509377 546.47815 34.509377Q544.8688 34.509377 543.8844 35.790627Q542.9 37.071877 542.9 39.446877ZM566.525 42.665627L568.9625 32.9625L571.1188 32.9625L567.4313 45.65L565.6813 45.65L562.5875 36.040627L559.5875 45.65L557.8375 45.65L554.15 32.9625L556.3063 32.9625L558.8063 42.4625L561.7594 32.9625L563.5094 32.9625L566.525 42.665627ZM578.5563 45.884377Q575.97815 45.884377 574.35315 44.196877Q572.7438 42.49375 572.7438 39.665627L572.7438 39.259377Q572.7438 37.36875 573.4625 35.9Q574.1813 34.415627 575.47815 33.571877Q576.775 32.728127 578.29065 32.728127Q580.7594 32.728127 582.1188 34.36875Q583.4938 35.99375 583.4938 39.025L583.4938 39.93125L574.91565 39.93125Q574.9625 41.80625 576.0094 42.9625Q577.0563 44.11875 578.66565 44.11875Q579.8219 44.11875 580.6188 43.65Q581.41565 43.18125 582.0094 42.4L583.3375 43.43125Q581.7438 45.884377 578.5563 45.884377ZM578.29065 34.509377Q576.97815 34.509377 576.0875 35.478127Q575.1969 36.43125 574.97815 38.15L581.3375 38.15L581.3375 37.978127Q581.2438 36.3375 580.4469 35.43125Q579.65 34.509377 578.29065 34.509377ZM592.41565 34.915627Q591.9313 34.8375 591.35315 34.8375Q589.22815 34.8375 588.4625 36.65L588.4625 45.65L586.29065 45.65L586.29065 32.9625L588.4 32.9625L588.4313 34.43125Q589.5094 32.728127 591.4625 32.728127Q592.0875 32.728127 592.41565 32.9L592.41565 34.915627ZM602.65 45.65L600.47815 45.65L600.47815 32.9625L602.65 32.9625L602.65 45.65ZM600.3063 29.603127Q600.3063 29.071877 600.6188 28.712502Q600.9469 28.353127 601.5719 28.353127Q602.2125 28.353127 602.54065 28.712502Q602.8688 29.071877 602.8688 29.603127Q602.8688 30.134377 602.54065 30.493752Q602.2125 30.837502 601.5719 30.837502Q600.9469 30.837502 600.6188 30.493752Q600.3063 30.134377 600.3063 29.603127ZM613.6813 42.290627Q613.6813 41.4 613.0094 40.915627Q612.35315 40.43125 610.6969 40.0875Q609.0563 39.728127 608.0875 39.24375Q607.1188 38.74375 606.65 38.071877Q606.1969 37.384377 606.1969 36.446877Q606.1969 34.884377 607.5094 33.80625Q608.8375 32.728127 610.8844 32.728127Q613.04065 32.728127 614.3844 33.853127Q615.72815 34.9625 615.72815 36.696877L613.54065 36.696877Q613.54065 35.80625 612.79065 35.165627Q612.04065 34.509377 610.8844 34.509377Q609.6969 34.509377 609.025 35.025Q608.3688 35.540627 608.3688 36.384377Q608.3688 37.165627 608.97815 37.571877Q609.60315 37.9625 611.22815 38.321877Q612.85315 38.68125 613.85315 39.196877Q614.8688 39.696877 615.35315 40.415627Q615.8375 41.11875 615.8375 42.134377Q615.8375 43.8375 614.47815 44.86875Q613.1188 45.884377 610.9625 45.884377Q609.4313 45.884377 608.2594 45.353127Q607.0875 44.80625 606.41565 43.8375Q605.7594 42.86875 605.7594 41.74375L607.9313 41.74375Q607.9938 42.8375 608.8063 43.478127Q609.6188 44.11875 610.9625 44.11875Q612.1813 44.11875 612.9313 43.61875Q613.6813 43.11875 613.6813 42.290627ZM635.025 39.446877Q635.025 42.353127 633.6813 44.11875Q632.35315 45.884377 630.10315 45.884377Q627.6969 45.884377 626.3844 44.18125L626.29065 45.65L624.29065 45.65L624.29065 27.650002L626.4625 27.650002L626.4625 34.36875Q627.775 32.728127 630.0719 32.728127Q632.3844 32.728127 633.6969 34.478127Q635.025 36.228127 635.025 39.259377L635.025 39.446877ZM632.85315 39.196877Q632.85315 36.99375 631.9938 35.790627Q631.15 34.571877 629.54065 34.571877Q627.4 34.571877 626.4625 36.571877L626.4625 42.05625Q627.4625 44.040627 629.5719 44.040627Q631.1188 44.040627 631.97815 42.8375Q632.85315 41.634377 632.85315 39.196877ZM642.5563 45.884377Q639.97815 45.884377 638.35315 44.196877Q636.7438 42.49375 636.7438 39.665627L636.7438 39.259377Q636.7438 37.36875 637.4625 35.9Q638.1813 34.415627 639.47815 33.571877Q640.775 32.728127 642.29065 32.728127Q644.7594 32.728127 646.1188 34.36875Q647.4938 35.99375 647.4938 39.025L647.4938 39.93125L638.91565 39.93125Q638.9625 41.80625 640.0094 42.9625Q641.0563 44.11875 642.66565 44.11875Q643.8219 44.11875 644.6188 43.65Q645.41565 43.18125 646.0094 42.4L647.3375 43.43125Q645.7438 45.884377 642.5563 45.884377ZM642.29065 34.509377Q640.97815 34.509377 640.0875 35.478127Q639.1969 36.43125 638.97815 38.15L645.3375 38.15L645.3375 37.978127Q645.2438 36.3375 644.4469 35.43125Q643.65 34.509377 642.29065 34.509377ZM653.22815 29.900002L653.22815 32.9625L655.60315 32.9625L655.60315 34.65L653.22815 34.65L653.22815 42.509377Q653.22815 43.275 653.54065 43.65Q653.8688 44.025 654.6344 44.025Q655.0094 44.025 655.66565 43.884377L655.66565 45.65Q654.8063 45.884377 653.9938 45.884377Q652.54065 45.884377 651.8063 45.009377Q651.0719 44.11875 651.0719 42.509377L651.0719 34.65L648.7594 34.65L648.7594 32.9625L651.0719 32.9625L651.0719 29.900002L653.22815 29.900002ZM661.22815 29.900002L661.22815 32.9625L663.60315 32.9625L663.60315 34.65L661.22815 34.65L661.22815 42.509377Q661.22815 43.275 661.54065 43.65Q661.8688 44.025 662.6344 44.025Q663.0094 44.025 663.66565 43.884377L663.66565 45.65Q662.8063 45.884377 661.9938 45.884377Q660.54065 45.884377 659.8063 45.009377Q659.0719 44.11875 659.0719 42.509377L659.0719 34.65L656.7594 34.65L656.7594 32.9625L659.0719 32.9625L659.0719 29.900002L661.22815 29.900002ZM671.5563 45.884377Q668.97815 45.884377 667.35315 44.196877Q665.7438 42.49375 665.7438 39.665627L665.7438 39.259377Q665.7438 37.36875 666.4625 35.9Q667.1813 34.415627 668.47815 33.571877Q669.775 32.728127 671.29065 32.728127Q673.7594 32.728127 675.1188 34.36875Q676.4938 35.99375 676.4938 39.025L676.4938 39.93125L667.91565 39.93125Q667.9625 41.80625 669.0094 42.9625Q670.0563 44.11875 671.66565 44.11875Q672.8219 44.11875 673.6188 43.65Q674.41565 43.18125 675.0094 42.4L676.3375 43.43125Q674.7438 45.884377 671.5563 45.884377ZM671.29065 34.509377Q669.97815 34.509377 669.0875 35.478127Q668.1969 36.43125 667.97815 38.15L674.3375 38.15L674.3375 37.978127Q674.2438 36.3375 673.4469 35.43125Q672.65 34.509377 671.29065 34.509377ZM685.41565 34.915627Q684.9313 34.8375 684.35315 34.8375Q682.22815 34.8375 681.4625 36.65L681.4625 45.65L679.29065 45.65L679.29065 32.9625L681.4 32.9625L681.4313 34.43125Q682.5094 32.728127 684.4625 32.728127Q685.0875 32.728127 685.41565 32.9L685.41565 34.915627ZM692.29065 38.8375Q692.29065 41.446877 691.60315 43.853127Q690.9313 46.24375 689.5094 48.275Q688.10315 50.30625 686.5563 51.165627L686.10315 49.8375Q687.9 48.446877 688.9938 45.540627Q690.0875 42.61875 690.1188 39.071877L690.1188 38.696877Q690.1188 36.24375 689.60315 34.134377Q689.0875 32.009377 688.16565 30.337502Q687.2438 28.650002 686.10315 27.712502L686.5563 26.400002Q688.10315 27.243752 689.4938 29.259377Q690.9 31.259377 691.5875 33.68125Q692.29065 36.0875 692.29065 38.8375Z" fill-rule="nonzero"/></svg>