<?xml version="1.0" encoding="UTF-8" standalone="no"?>
<svg
   xmlns:dc="http://purl.org/dc/elements/1.1/"
   xmlns:cc="http://creativecommons.org/ns#"
   xmlns:rdf="http://www.w3.org/1999/02/22-rdf-syntax-ns#"
   xmlns:svg="http://www.w3.org/2000/svg"
   xmlns="http://www.w3.org/2000/svg"
   viewBox="0 0 872 422.66666"
   height="422.66666"
   width="872"
   xml:space="preserve"
   id="svg2"
   version="1.1"><metadata
     id="metadata8"><rdf:RDF><cc:Work
         rdf:about=""><dc:format>image/svg+xml</dc:format><dc:type
           rdf:resource="http://purl.org/dc/dcmitype/StillImage" /></cc:Work></rdf:RDF></metadata><defs
     id="defs6"><clipPath
       id="clipPath18"
       clipPathUnits="userSpaceOnUse"><path
         id="path16"
         d="M 0,0 H 792 V 612 H 0 Z" /></clipPath><clipPath
       id="clipPath22"
       clipPathUnits="userSpaceOnUse"><path
         style="clip-rule:evenodd"
         id="path20"
         d="M 50.4,54 H 741.6 V 558 H 50.4 Z" /></clipPath><clipPath
       id="clipPath26"
       clipPathUnits="userSpaceOnUse"><path
         style="clip-rule:evenodd"
         id="path24"
         d="M 50.4,62.88 H 732.24 V 558 H 50.4 Z" /></clipPath><clipPath
       id="clipPath30"
       clipPathUnits="userSpaceOnUse"><path
         style="clip-rule:evenodd"
         id="path28"
         d="M 50.4,62.88 H 732.24 V 558 H 50.4 Z" /></clipPath><clipPath
       id="clipPath34"
       clipPathUnits="userSpaceOnUse"><path
         style="clip-rule:evenodd"
         id="path32"
         d="M 50.4,62.88 H 732.24 V 558 H 50.4 Z" /></clipPath><clipPath
       id="clipPath38"
       clipPathUnits="userSpaceOnUse"><path
         style="clip-rule:evenodd"
         id="path36"
         d="M 50.4,62.88 H 732.24 V 558 H 50.4 Z" /></clipPath><clipPath
       id="clipPath42"
       clipPathUnits="userSpaceOnUse"><path
         style="clip-rule:evenodd"
         id="path40"
         d="M 50.4,62.88 H 732.24 V 558 H 50.4 Z" /></clipPath><clipPath
       id="clipPath46"
       clipPathUnits="userSpaceOnUse"><path
         style="clip-rule:evenodd"
         id="path44"
         d="M 50.4,62.88 H 732.24 V 558 H 50.4 Z" /></clipPath><clipPath
       id="clipPath50"
       clipPathUnits="userSpaceOnUse"><path
         style="clip-rule:evenodd"
         id="path48"
         d="M 50.4,62.88 H 732.24 V 558 H 50.4 Z" /></clipPath><clipPath
       id="clipPath54"
       clipPathUnits="userSpaceOnUse"><path
         style="clip-rule:evenodd"
         id="path52"
         d="M 50.4,558 H 732.24 V 62.88 H 50.4 Z" /></clipPath><clipPath
       id="clipPath58"
       clipPathUnits="userSpaceOnUse"><path
         style="clip-rule:evenodd"
         id="path56"
         d="M 50.4,558 H 732.24 V 62.88 H 50.4 Z" /></clipPath><clipPath
       id="clipPath62"
       clipPathUnits="userSpaceOnUse"><path
         style="clip-rule:evenodd"
         id="path60"
         d="M 732.24,558 V 62.88 H 50.4 V 558 Z" /></clipPath><clipPath
       id="clipPath66"
       clipPathUnits="userSpaceOnUse"><path
         style="clip-rule:evenodd"
         id="path64"
         d="M 50.4,558 H 732.24 V 62.88 H 50.4 Z" /></clipPath><clipPath
       id="clipPath70"
       clipPathUnits="userSpaceOnUse"><path
         style="clip-rule:evenodd"
         id="path68"
         d="M 50.4,558 H 732.24 V 62.88 H 50.4 Z" /></clipPath><clipPath
       id="clipPath74"
       clipPathUnits="userSpaceOnUse"><path
         style="clip-rule:evenodd"
         id="path72"
         d="M 50.4,558 H 732.24 V 62.88 H 50.4 Z" /></clipPath><clipPath
       id="clipPath78"
       clipPathUnits="userSpaceOnUse"><path
         style="clip-rule:evenodd"
         id="path76"
         d="M 50.4,62.88 H 732.24 V 558 H 50.4 Z" /></clipPath><clipPath
       id="clipPath82"
       clipPathUnits="userSpaceOnUse"><path
         style="clip-rule:evenodd"
         id="path80"
         d="M 50.4,62.88 H 732.24 V 558 H 50.4 Z" /></clipPath><clipPath
       id="clipPath86"
       clipPathUnits="userSpaceOnUse"><path
         style="clip-rule:evenodd"
         id="path84"
         d="M 50.4,62.88 H 732.24 V 558 H 50.4 Z" /></clipPath><clipPath
       id="clipPath90"
       clipPathUnits="userSpaceOnUse"><path
         style="clip-rule:evenodd"
         id="path88"
         d="M 50.4,62.88 H 732.24 V 558 H 50.4 Z" /></clipPath></defs><g
     transform="matrix(1.3333333,0,0,-1.3333333,0,422.66667)"
     id="g10"><g
       transform="translate(-68,-231)"
       id="g12"><g
         id="g14" /><g
         id="g244"><g
           id="g242"
           clip-path="url(#clipPath18)"><g
             id="g96"><g
               id="g94"
               clip-path="url(#clipPath22)"><path
                 id="path92"
                 style="fill:#ffffff;fill-opacity:1;fill-rule:evenodd;stroke:none"
                 d="m 50.4,62.854 h 681.92 v 495.15 H 50.4 Z" /></g></g><path
             id="path98"
             style="fill:none;stroke:#d9d9d9;stroke-width:0.75;stroke-linecap:butt;stroke-linejoin:round;stroke-miterlimit:10;stroke-dasharray:none;stroke-opacity:1"
             d="M 177.73,358.56 H 721.32 M 177.73,395.04 H 721.32 M 177.73,431.52 H 721.32 M 177.73,467.88 H 721.32 M 177.73,504.36 H 721.32 M 177.73,540.79 H 721.32" /><path
             id="path100"
             style="fill:#7f7f7f;fill-opacity:1;fill-rule:nonzero;stroke:none"
             d="m 199.92,342.36 h 20.4 v -20.22 h -20.4 z m 90.6,70.92 h 20.4 v -91.14 h -20.4 z m 90.6,-86.88 h 20.4 v -4.26 h -20.4 z m 90.6,8.28 h 20.4 v -12.54 h -20.4 z m 90.6,164.76 h 20.4 v -177.3 h -20.4 z m 90.6,-70.56 h 20.4 V 322.14 h -20.4 z" /><path
             id="path102"
             style="fill:none;stroke:#000000;stroke-width:0.75;stroke-linecap:butt;stroke-linejoin:round;stroke-miterlimit:10;stroke-dasharray:none;stroke-opacity:1"
             d="m 199.92,342.36 h 20.4 v -20.22 h -20.4 z m 90.6,70.92 h 20.4 v -91.14 h -20.4 z m 90.6,-86.88 h 20.4 v -4.26 h -20.4 z m 90.6,8.28 h 20.4 v -12.54 h -20.4 z m 90.6,164.76 h 20.4 v -177.3 h -20.4 z m 90.6,-70.56 h 20.4 V 322.14 h -20.4 z" /><path
             id="path104"
             style="fill:#000000;fill-opacity:1;fill-rule:nonzero;stroke:none"
             d="m 225.72,421.92 h 20.4 v -99.78 h -20.4 z m 90.6,71.52 h 20.4 v -171.3 h -20.4 z m 90.6,-24.6 h 20.4 v -146.7 h -20.4 z m 90.6,-55.32 h 20.4 v -91.38 h -20.4 z m 90.6,89.28 h 20.4 V 322.14 h -20.4 z m 90.6,-43.68 h 20.4 V 322.14 h -20.4 z" /><path
             id="path106"
             style="fill:none;stroke:#000000;stroke-width:0.75;stroke-linecap:butt;stroke-linejoin:round;stroke-miterlimit:10;stroke-dasharray:none;stroke-opacity:1"
             d="m 225.72,421.92 h 20.4 v -99.78 h -20.4 z m 90.6,71.52 h 20.4 v -171.3 h -20.4 z m 90.6,-24.6 h 20.4 v -146.7 h -20.4 z m 90.6,-55.32 h 20.4 v -91.38 h -20.4 z m 90.6,89.28 h 20.4 V 322.14 h -20.4 z m 90.6,-43.68 h 20.4 V 322.14 h -20.4 z" /><path
             id="path108"
             style="fill:none;stroke:#d9d9d9;stroke-width:0.75;stroke-linecap:butt;stroke-linejoin:round;stroke-miterlimit:10;stroke-dasharray:none;stroke-opacity:1"
             d="M 177.73,322.14 H 721.32" /><g
             id="g116"><g
               id="g114"
               clip-path="url(#clipPath26)"><text
                 id="text112"
                 style="font-variant:normal;font-weight:normal;font-size:20.04000092px;font-family:Calibri;-inkscape-font-specification:Calibri;writing-mode:lr-tb;fill:#595959;fill-opacity:1;fill-rule:nonzero;stroke:none"
                 transform="matrix(1,0,0,-1,139.54004,316.32)"><tspan
                   id="tspan110"
                   y="0"
                   x="0">-</tspan></text>
</g></g><g
             id="g124"><g
               id="g122"
               clip-path="url(#clipPath30)"><text
                 id="text120"
                 style="font-variant:normal;font-weight:normal;font-size:20.04000092px;font-family:Calibri;-inkscape-font-specification:Calibri;writing-mode:lr-tb;fill:#595959;fill-opacity:1;fill-rule:nonzero;stroke:none"
                 transform="matrix(1,0,0,-1,119.22904,352.75)"><tspan
                   id="tspan118"
                   y="0"
                   x="0 10.16028 15.21036 25.37064">0.20</tspan></text>
</g></g><g
             id="g132"><g
               id="g130"
               clip-path="url(#clipPath34)"><text
                 id="text128"
                 style="font-variant:normal;font-weight:normal;font-size:20.04000092px;font-family:Calibri;-inkscape-font-specification:Calibri;writing-mode:lr-tb;fill:#595959;fill-opacity:1;fill-rule:nonzero;stroke:none"
                 transform="matrix(1,0,0,-1,119.22904,389.21)"><tspan
                   id="tspan126"
                   y="0"
                   x="0 10.16028 15.21036 25.37064">0.40</tspan></text>
</g></g><g
             id="g140"><g
               id="g138"
               clip-path="url(#clipPath38)"><text
                 id="text136"
                 style="font-variant:normal;font-weight:normal;font-size:20.04000092px;font-family:Calibri;-inkscape-font-specification:Calibri;writing-mode:lr-tb;fill:#595959;fill-opacity:1;fill-rule:nonzero;stroke:none"
                 transform="matrix(1,0,0,-1,119.22904,425.66)"><tspan
                   id="tspan134"
                   y="0"
                   x="0 10.16028 15.21036 25.37064">0.60</tspan></text>
</g></g><g
             id="g148"><g
               id="g146"
               clip-path="url(#clipPath42)"><text
                 id="text144"
                 style="font-variant:normal;font-weight:normal;font-size:20.06399918px;font-family:Calibri;-inkscape-font-specification:Calibri;writing-mode:lr-tb;fill:#595959;fill-opacity:1;fill-rule:nonzero;stroke:none"
                 transform="matrix(1,0,0,-1,119.23446,462.12)"><tspan
                   id="tspan142"
                   y="0"
                   x="0 10.112256 15.168384 25.340832">0.80</tspan></text>
</g></g><g
             id="g156"><g
               id="g154"
               clip-path="url(#clipPath46)"><text
                 id="text152"
                 style="font-variant:normal;font-weight:normal;font-size:20.04000092px;font-family:Calibri;-inkscape-font-specification:Calibri;writing-mode:lr-tb;fill:#595959;fill-opacity:1;fill-rule:nonzero;stroke:none"
                 transform="matrix(1,0,0,-1,119.22904,498.55)"><tspan
                   id="tspan150"
                   y="0"
                   x="0 10.16028 15.21036 25.37064">1.00</tspan></text>
</g></g><g
             id="g164"><g
               id="g162"
               clip-path="url(#clipPath50)"><text
                 id="text160"
                 style="font-variant:normal;font-weight:normal;font-size:20.04000092px;font-family:Calibri;-inkscape-font-specification:Calibri;writing-mode:lr-tb;fill:#595959;fill-opacity:1;fill-rule:nonzero;stroke:none"
                 transform="matrix(1,0,0,-1,119.22904,535.01)"><tspan
                   id="tspan158"
                   y="0"
                   x="0 10.16028 15.21036 25.37064">1.20</tspan></text>
</g></g><g
             id="g170"><g
               id="g168"
               clip-path="url(#clipPath54)"><path
                 id="path166"
                 style="fill:#595959;fill-opacity:1;fill-rule:nonzero;stroke:none"
                 d="m 202.14,272.73 c 0.07,-0.07 0.13,-0.14 0.18,-0.2 0.05,-0.06 0.1,-0.11 0.13,-0.17 0.03,-0.05 0.05,-0.1 0.06,-0.15 0.01,-0.05 0.02,-0.13 0.02,-0.22 0,-0.09 -0.02,-0.26 -0.08,-0.5 -0.05,-0.24 -0.14,-0.52 -0.27,-0.83 -0.13,-0.31 -0.31,-0.63 -0.53,-0.98 -0.22,-0.34 -0.5,-0.69 -0.83,-1.02 -0.59,-0.58 -1.21,-1.01 -1.87,-1.29 -0.66,-0.27 -1.35,-0.38 -2.05,-0.34 -0.71,0.05 -1.43,0.27 -2.17,0.64 -0.73,0.38 -1.46,0.93 -2.18,1.66 -0.75,0.74 -1.31,1.5 -1.7,2.27 -0.39,0.77 -0.61,1.54 -0.67,2.28 -0.06,0.75 0.05,1.48 0.32,2.17 0.27,0.69 0.69,1.33 1.28,1.92 0.26,0.26 0.53,0.49 0.83,0.68 0.29,0.2 0.58,0.36 0.86,0.5 0.28,0.13 0.55,0.23 0.81,0.29 0.26,0.07 0.45,0.1 0.57,0.1 0.13,0 0.21,-0.01 0.26,-0.02 0.06,-0.01 0.11,-0.04 0.16,-0.07 0.06,-0.03 0.12,-0.07 0.19,-0.13 0.06,-0.05 0.14,-0.12 0.22,-0.2 0.09,-0.09 0.17,-0.18 0.22,-0.25 0.06,-0.07 0.1,-0.14 0.12,-0.2 0.03,-0.07 0.04,-0.12 0.03,-0.17 0,-0.04 -0.02,-0.09 -0.06,-0.12 -0.06,-0.07 -0.2,-0.11 -0.4,-0.14 -0.21,-0.02 -0.46,-0.08 -0.75,-0.15 -0.29,-0.07 -0.61,-0.2 -0.97,-0.37 -0.35,-0.17 -0.71,-0.44 -1.07,-0.81 -0.4,-0.4 -0.69,-0.84 -0.85,-1.33 -0.17,-0.48 -0.22,-0.99 -0.14,-1.54 0.08,-0.54 0.28,-1.09 0.59,-1.67 0.32,-0.57 0.77,-1.14 1.34,-1.71 0.56,-0.57 1.13,-1.01 1.69,-1.32 0.56,-0.32 1.1,-0.5 1.62,-0.57 0.52,-0.06 1.02,0 1.51,0.18 0.48,0.19 0.93,0.49 1.36,0.91 0.35,0.36 0.62,0.71 0.8,1.07 0.18,0.35 0.31,0.68 0.39,0.97 0.08,0.3 0.13,0.55 0.17,0.76 0.03,0.21 0.08,0.35 0.15,0.42 0.03,0.03 0.07,0.05 0.1,0.06 0.04,0.01 0.09,0 0.14,-0.02 0.05,-0.03 0.12,-0.07 0.19,-0.13 0.08,-0.07 0.17,-0.15 0.28,-0.26 z m 3.67,1.49 c 0.04,-0.03 0.06,-0.07 0.07,-0.12 0.01,-0.04 0,-0.09 -0.02,-0.15 -0.03,-0.06 -0.07,-0.13 -0.14,-0.22 -0.06,-0.08 -0.15,-0.18 -0.27,-0.3 -0.11,-0.11 -0.2,-0.19 -0.29,-0.26 -0.08,-0.06 -0.15,-0.11 -0.21,-0.13 -0.07,-0.03 -0.12,-0.04 -0.16,-0.03 -0.04,0.01 -0.08,0.04 -0.12,0.07 l -9.24,9.25 c -0.04,0.03 -0.06,0.07 -0.07,0.12 -0.02,0.04 -0.01,0.09 0.02,0.16 0.02,0.06 0.07,0.13 0.13,0.21 0.07,0.09 0.15,0.18 0.26,0.29 0.12,0.12 0.22,0.21 0.3,0.27 0.09,0.07 0.16,0.11 0.22,0.14 0.06,0.02 0.11,0.03 0.16,0.02 0.04,-0.01 0.08,-0.04 0.12,-0.07 z m 6.79,6.77 c 0.05,-0.05 0.07,-0.11 0.06,-0.18 0,-0.06 -0.03,-0.14 -0.09,-0.21 -0.05,-0.08 -0.13,-0.18 -0.26,-0.31 -0.12,-0.12 -0.22,-0.21 -0.31,-0.26 -0.08,-0.06 -0.15,-0.09 -0.21,-0.1 -0.06,0 -0.12,0.02 -0.18,0.08 l -0.62,0.62 c 0.02,-0.56 -0.06,-1.09 -0.23,-1.59 -0.17,-0.49 -0.45,-0.93 -0.82,-1.3 -0.33,-0.33 -0.67,-0.58 -1.02,-0.76 -0.35,-0.18 -0.7,-0.29 -1.05,-0.31 -0.35,-0.03 -0.69,0.03 -1.03,0.16 -0.34,0.13 -0.66,0.35 -0.96,0.65 -0.35,0.35 -0.58,0.72 -0.7,1.12 -0.11,0.4 -0.12,0.82 -0.02,1.26 0.09,0.44 0.29,0.9 0.6,1.37 0.3,0.47 0.69,0.95 1.18,1.44 l 0.85,0.85 -0.48,0.49 c -0.24,0.24 -0.48,0.42 -0.71,0.56 -0.24,0.13 -0.47,0.2 -0.71,0.21 -0.23,0.01 -0.47,-0.04 -0.72,-0.16 -0.24,-0.12 -0.49,-0.31 -0.75,-0.57 -0.28,-0.28 -0.5,-0.57 -0.66,-0.86 -0.16,-0.29 -0.28,-0.56 -0.37,-0.81 -0.08,-0.25 -0.15,-0.46 -0.2,-0.64 -0.04,-0.18 -0.09,-0.3 -0.15,-0.35 -0.04,-0.04 -0.08,-0.06 -0.12,-0.07 -0.05,-0.01 -0.1,-0.01 -0.16,0.01 -0.06,0.01 -0.12,0.04 -0.19,0.09 -0.06,0.05 -0.13,0.11 -0.2,0.18 -0.12,0.11 -0.2,0.21 -0.25,0.3 -0.05,0.08 -0.08,0.18 -0.07,0.3 0,0.13 0.04,0.3 0.11,0.54 0.07,0.23 0.17,0.48 0.3,0.74 0.13,0.27 0.3,0.54 0.49,0.82 0.19,0.28 0.4,0.54 0.64,0.78 0.45,0.45 0.88,0.78 1.3,0.99 0.41,0.21 0.81,0.32 1.2,0.31 0.39,0 0.78,-0.1 1.16,-0.3 0.37,-0.21 0.76,-0.5 1.15,-0.89 z m -3.98,1.71 -0.98,-0.98 c -0.31,-0.31 -0.56,-0.61 -0.74,-0.89 -0.17,-0.29 -0.29,-0.56 -0.33,-0.81 -0.05,-0.26 -0.04,-0.49 0.03,-0.71 0.08,-0.22 0.21,-0.42 0.4,-0.61 0.32,-0.32 0.68,-0.48 1.08,-0.46 0.39,0.01 0.78,0.2 1.15,0.57 0.3,0.3 0.5,0.65 0.6,1.06 0.1,0.41 0.14,0.91 0.11,1.51 z m 11.43,5.76 c 0.03,-0.04 0.06,-0.08 0.06,-0.12 0.01,-0.05 0,-0.1 -0.02,-0.16 -0.02,-0.06 -0.07,-0.13 -0.13,-0.21 -0.07,-0.09 -0.15,-0.18 -0.27,-0.29 -0.11,-0.12 -0.21,-0.21 -0.29,-0.27 -0.09,-0.07 -0.16,-0.11 -0.22,-0.14 -0.06,-0.02 -0.11,-0.03 -0.15,-0.02 -0.05,0.01 -0.09,0.03 -0.12,0.07 l -3.65,3.64 c -0.36,0.36 -0.67,0.62 -0.94,0.78 -0.27,0.16 -0.54,0.26 -0.8,0.31 -0.27,0.06 -0.52,0.04 -0.78,-0.05 -0.25,-0.08 -0.48,-0.24 -0.7,-0.46 -0.29,-0.28 -0.48,-0.67 -0.56,-1.16 -0.08,-0.49 -0.08,-1.09 -0.01,-1.79 l 4.36,-4.35 c 0.03,-0.04 0.06,-0.08 0.06,-0.12 0.01,-0.05 0,-0.1 -0.02,-0.16 -0.02,-0.06 -0.07,-0.13 -0.13,-0.22 -0.07,-0.08 -0.16,-0.18 -0.27,-0.29 -0.11,-0.11 -0.21,-0.2 -0.29,-0.27 -0.09,-0.06 -0.16,-0.11 -0.22,-0.13 -0.06,-0.03 -0.12,-0.03 -0.16,-0.02 -0.04,0 -0.08,0.03 -0.11,0.06 l -6.23,6.23 c -0.04,0.04 -0.06,0.08 -0.07,0.12 -0.02,0.04 -0.01,0.09 0.01,0.15 0.02,0.06 0.06,0.13 0.12,0.2 0.05,0.07 0.14,0.16 0.24,0.27 0.1,0.1 0.19,0.18 0.27,0.24 0.07,0.06 0.14,0.1 0.19,0.11 0.06,0.02 0.11,0.02 0.15,0.01 0.04,-0.01 0.08,-0.03 0.12,-0.07 l 0.82,-0.82 c -0.04,0.74 0.02,1.38 0.19,1.91 0.17,0.53 0.43,0.97 0.78,1.33 0.42,0.41 0.84,0.69 1.26,0.83 0.42,0.15 0.84,0.19 1.25,0.13 0.41,-0.06 0.81,-0.21 1.21,-0.45 0.39,-0.24 0.81,-0.58 1.25,-1.02 z m 1.36,13.25 c 0.16,-0.16 0.26,-0.3 0.29,-0.42 0.02,-0.11 0,-0.2 -0.07,-0.27 l -0.89,-0.9 c 0.33,0 0.62,-0.07 0.89,-0.21 0.27,-0.13 0.51,-0.31 0.72,-0.53 0.36,-0.36 0.62,-0.73 0.78,-1.12 0.17,-0.4 0.24,-0.8 0.21,-1.2 -0.02,-0.41 -0.13,-0.81 -0.32,-1.21 -0.2,-0.39 -0.47,-0.77 -0.83,-1.13 -0.26,-0.25 -0.53,-0.46 -0.83,-0.62 -0.29,-0.16 -0.55,-0.26 -0.78,-0.28 0,-0.17 0.03,-0.33 0.08,-0.49 0.05,-0.16 0.15,-0.31 0.29,-0.44 0.16,-0.16 0.37,-0.22 0.62,-0.18 0.26,0.04 0.52,0.19 0.78,0.43 l 1.69,1.55 c 0.32,0.3 0.65,0.54 0.98,0.73 0.33,0.18 0.67,0.29 1,0.34 0.33,0.05 0.65,0.02 0.96,-0.07 0.31,-0.1 0.6,-0.29 0.87,-0.56 0.29,-0.29 0.5,-0.62 0.64,-1 0.14,-0.38 0.18,-0.79 0.13,-1.23 -0.05,-0.44 -0.21,-0.91 -0.48,-1.41 -0.27,-0.49 -0.66,-1 -1.19,-1.52 -0.5,-0.51 -0.97,-0.89 -1.41,-1.16 -0.44,-0.27 -0.84,-0.44 -1.21,-0.52 -0.38,-0.08 -0.72,-0.06 -1.03,0.04 -0.3,0.1 -0.58,0.28 -0.82,0.52 -0.15,0.15 -0.28,0.31 -0.38,0.49 -0.11,0.18 -0.19,0.38 -0.24,0.58 -0.05,0.21 -0.08,0.42 -0.09,0.66 0,0.23 0.01,0.47 0.04,0.74 -0.34,-0.11 -0.65,-0.14 -0.93,-0.07 -0.29,0.07 -0.53,0.2 -0.73,0.4 -0.29,0.29 -0.48,0.6 -0.59,0.93 -0.1,0.34 -0.16,0.68 -0.16,1.03 -0.32,0.02 -0.62,0.1 -0.92,0.23 -0.3,0.14 -0.6,0.35 -0.9,0.66 -0.36,0.35 -0.61,0.73 -0.78,1.13 -0.16,0.4 -0.23,0.81 -0.21,1.21 0.02,0.41 0.12,0.81 0.32,1.22 0.19,0.4 0.46,0.77 0.81,1.12 0.19,0.19 0.38,0.36 0.56,0.5 0.19,0.14 0.37,0.27 0.55,0.37 l 1.88,1.89 c 0.08,0.08 0.18,0.1 0.29,0.06 0.12,-0.04 0.26,-0.13 0.41,-0.29 z m -0.14,-3.43 c -0.43,0.43 -0.88,0.64 -1.35,0.65 -0.47,0 -0.92,-0.21 -1.34,-0.64 -0.23,-0.22 -0.38,-0.45 -0.47,-0.69 -0.09,-0.24 -0.13,-0.47 -0.11,-0.71 0.03,-0.24 0.09,-0.47 0.21,-0.69 0.11,-0.22 0.26,-0.42 0.45,-0.61 0.41,-0.41 0.85,-0.62 1.32,-0.62 0.46,0 0.91,0.21 1.33,0.63 0.22,0.22 0.38,0.46 0.48,0.69 0.09,0.24 0.13,0.48 0.11,0.71 -0.02,0.24 -0.08,0.47 -0.19,0.68 -0.12,0.22 -0.26,0.42 -0.44,0.6 z m 5.5,-4.36 c -0.26,0.27 -0.58,0.37 -0.94,0.29 -0.37,-0.07 -0.74,-0.29 -1.12,-0.65 L 223.04,292 c -0.03,-0.26 -0.05,-0.49 -0.04,-0.69 0.01,-0.2 0.04,-0.37 0.08,-0.52 0.04,-0.15 0.09,-0.28 0.16,-0.4 0.07,-0.11 0.16,-0.22 0.25,-0.31 0.3,-0.3 0.68,-0.38 1.14,-0.23 0.46,0.15 0.96,0.5 1.51,1.04 0.34,0.35 0.6,0.67 0.77,0.97 0.16,0.3 0.26,0.58 0.29,0.83 0.04,0.26 0.01,0.49 -0.07,0.69 -0.08,0.21 -0.2,0.39 -0.36,0.54 z" /></g></g><g
             id="g176"><g
               id="g174"
               clip-path="url(#clipPath58)"><path
                 id="path172"
                 style="fill:#595959;fill-opacity:1;fill-rule:nonzero;stroke:none"
                 d="m 253.23,243.36 c 0.45,-0.45 0.78,-0.93 0.99,-1.43 0.21,-0.51 0.31,-1.03 0.29,-1.56 -0.02,-0.53 -0.16,-1.06 -0.42,-1.6 -0.26,-0.53 -0.67,-1.08 -1.22,-1.63 l -1.02,-1.02 3.22,-3.22 c 0.04,-0.04 0.06,-0.08 0.07,-0.13 0.01,-0.05 -0.01,-0.1 -0.03,-0.16 -0.03,-0.06 -0.08,-0.14 -0.14,-0.23 -0.07,-0.08 -0.16,-0.18 -0.27,-0.3 -0.12,-0.12 -0.22,-0.21 -0.31,-0.27 -0.08,-0.06 -0.16,-0.11 -0.22,-0.14 -0.06,-0.03 -0.12,-0.04 -0.16,-0.03 -0.05,0.01 -0.09,0.03 -0.13,0.07 l -8.26,8.26 c -0.18,0.18 -0.27,0.36 -0.25,0.54 0.02,0.17 0.09,0.32 0.21,0.44 l 1.92,1.92 c 0.19,0.19 0.38,0.37 0.58,0.53 0.19,0.16 0.44,0.34 0.73,0.53 0.3,0.18 0.64,0.33 1.04,0.44 0.4,0.1 0.79,0.14 1.17,0.1 0.39,-0.03 0.77,-0.15 1.15,-0.33 0.37,-0.18 0.73,-0.45 1.06,-0.78 z m -1.15,-1.35 c -0.37,0.36 -0.74,0.6 -1.12,0.71 -0.38,0.11 -0.73,0.12 -1.05,0.04 -0.32,-0.08 -0.61,-0.21 -0.85,-0.39 -0.25,-0.19 -0.48,-0.38 -0.68,-0.58 l -1.1,-1.1 3.59,-3.59 1.08,1.07 c 0.35,0.36 0.61,0.7 0.75,1.03 0.15,0.33 0.22,0.66 0.22,0.99 -0.01,0.32 -0.08,0.64 -0.22,0.95 -0.15,0.31 -0.36,0.6 -0.62,0.87 z m 11.58,5.83 c 0.51,-0.51 0.91,-1.04 1.2,-1.6 0.3,-0.56 0.47,-1.13 0.51,-1.7 0.04,-0.58 -0.05,-1.15 -0.27,-1.72 -0.23,-0.58 -0.61,-1.13 -1.13,-1.65 -0.51,-0.51 -1.04,-0.88 -1.57,-1.11 -0.53,-0.23 -1.07,-0.33 -1.61,-0.29 -0.55,0.04 -1.09,0.2 -1.63,0.49 -0.54,0.29 -1.07,0.7 -1.6,1.23 -0.51,0.5 -0.91,1.04 -1.2,1.6 -0.3,0.55 -0.47,1.12 -0.51,1.69 -0.05,0.58 0.05,1.15 0.27,1.72 0.23,0.56 0.61,1.11 1.14,1.64 0.51,0.52 1.03,0.89 1.56,1.11 0.54,0.23 1.08,0.33 1.62,0.29 0.54,-0.04 1.09,-0.2 1.63,-0.49 0.54,-0.28 1.07,-0.69 1.59,-1.21 z m -1.1,-1.26 c -0.34,0.34 -0.69,0.62 -1.05,0.86 -0.37,0.24 -0.73,0.4 -1.1,0.48 -0.37,0.08 -0.75,0.06 -1.12,-0.05 -0.38,-0.12 -0.76,-0.36 -1.12,-0.73 -0.34,-0.34 -0.58,-0.69 -0.7,-1.05 -0.12,-0.37 -0.16,-0.74 -0.1,-1.11 0.07,-0.38 0.21,-0.76 0.43,-1.14 0.22,-0.37 0.51,-0.74 0.87,-1.09 0.34,-0.34 0.69,-0.63 1.05,-0.87 0.37,-0.24 0.73,-0.39 1.1,-0.47 0.37,-0.08 0.75,-0.06 1.13,0.06 0.37,0.11 0.75,0.35 1.12,0.72 0.33,0.33 0.56,0.69 0.69,1.05 0.12,0.37 0.16,0.74 0.1,1.11 -0.06,0.38 -0.2,0.75 -0.43,1.13 -0.22,0.37 -0.51,0.74 -0.87,1.1 z m 8.18,5.36 c 0.31,-0.32 0.54,-0.66 0.67,-1.03 0.13,-0.37 0.18,-0.74 0.13,-1.13 -0.05,-0.39 -0.18,-0.78 -0.39,-1.16 -0.21,-0.39 -0.5,-0.77 -0.86,-1.13 -0.22,-0.22 -0.45,-0.41 -0.68,-0.58 -0.24,-0.16 -0.46,-0.3 -0.67,-0.4 -0.21,-0.11 -0.41,-0.19 -0.57,-0.24 -0.17,-0.06 -0.3,-0.09 -0.4,-0.09 -0.1,0 -0.2,0.02 -0.31,0.08 -0.1,0.06 -0.23,0.16 -0.37,0.31 -0.09,0.08 -0.16,0.16 -0.21,0.23 -0.05,0.07 -0.08,0.13 -0.11,0.18 -0.02,0.05 -0.03,0.1 -0.02,0.14 0.01,0.04 0.03,0.08 0.06,0.11 0.05,0.05 0.16,0.1 0.32,0.13 0.16,0.04 0.35,0.09 0.57,0.17 0.22,0.07 0.46,0.17 0.72,0.31 0.26,0.13 0.52,0.33 0.78,0.59 0.19,0.19 0.35,0.39 0.46,0.59 0.12,0.2 0.19,0.39 0.23,0.59 0.03,0.19 0.02,0.39 -0.04,0.57 -0.06,0.19 -0.18,0.37 -0.35,0.54 -0.18,0.17 -0.37,0.28 -0.58,0.31 -0.21,0.03 -0.43,0.01 -0.67,-0.04 -0.24,-0.06 -0.49,-0.14 -0.75,-0.25 -0.25,-0.12 -0.52,-0.23 -0.79,-0.35 -0.28,-0.12 -0.56,-0.22 -0.84,-0.31 -0.29,-0.09 -0.58,-0.13 -0.87,-0.14 -0.29,0 -0.58,0.05 -0.87,0.16 -0.29,0.11 -0.57,0.3 -0.84,0.58 -0.25,0.24 -0.44,0.52 -0.57,0.84 -0.12,0.32 -0.18,0.66 -0.16,1.02 0.02,0.35 0.12,0.72 0.31,1.11 0.18,0.38 0.46,0.77 0.84,1.14 0.16,0.17 0.34,0.32 0.54,0.46 0.19,0.14 0.38,0.25 0.55,0.35 0.18,0.09 0.33,0.16 0.48,0.2 0.14,0.05 0.25,0.08 0.34,0.09 0.09,0.01 0.15,0.01 0.19,0 0.05,-0.01 0.09,-0.03 0.13,-0.06 0.04,-0.03 0.09,-0.06 0.15,-0.11 0.06,-0.04 0.12,-0.1 0.2,-0.17 0.08,-0.08 0.14,-0.15 0.19,-0.22 0.05,-0.06 0.09,-0.12 0.11,-0.17 0.02,-0.06 0.03,-0.1 0.02,-0.14 -0.01,-0.04 -0.02,-0.07 -0.05,-0.1 -0.04,-0.04 -0.13,-0.08 -0.26,-0.11 -0.13,-0.02 -0.28,-0.07 -0.47,-0.14 -0.18,-0.06 -0.38,-0.16 -0.6,-0.27 -0.22,-0.12 -0.43,-0.29 -0.65,-0.51 -0.19,-0.19 -0.34,-0.38 -0.45,-0.57 -0.1,-0.19 -0.16,-0.38 -0.17,-0.55 -0.02,-0.18 0.01,-0.35 0.07,-0.5 0.06,-0.16 0.16,-0.31 0.29,-0.44 0.18,-0.18 0.37,-0.28 0.59,-0.31 0.21,-0.03 0.44,-0.02 0.68,0.04 0.24,0.05 0.49,0.14 0.75,0.25 0.27,0.12 0.53,0.23 0.81,0.35 0.27,0.12 0.56,0.23 0.84,0.32 0.29,0.09 0.58,0.15 0.86,0.16 0.29,0 0.58,-0.04 0.86,-0.15 0.28,-0.1 0.56,-0.29 0.83,-0.55 z m 6.08,3.6 c 0.13,-0.13 0.23,-0.25 0.29,-0.34 0.06,-0.1 0.09,-0.19 0.09,-0.26 0,-0.07 -0.02,-0.16 -0.06,-0.27 -0.04,-0.11 -0.1,-0.22 -0.18,-0.33 -0.07,-0.12 -0.15,-0.23 -0.24,-0.35 -0.1,-0.12 -0.2,-0.24 -0.3,-0.34 -0.33,-0.33 -0.64,-0.56 -0.96,-0.71 -0.32,-0.14 -0.63,-0.2 -0.96,-0.18 -0.32,0.03 -0.64,0.14 -0.97,0.34 -0.34,0.2 -0.68,0.48 -1.04,0.84 l -3.64,3.64 -0.87,-0.88 c -0.07,-0.06 -0.16,-0.08 -0.28,-0.05 -0.12,0.03 -0.26,0.13 -0.42,0.3 -0.09,0.08 -0.16,0.16 -0.21,0.24 -0.04,0.07 -0.08,0.13 -0.1,0.19 -0.02,0.06 -0.02,0.11 -0.01,0.16 0.01,0.04 0.04,0.08 0.08,0.12 l 0.86,0.86 -1.48,1.49 c -0.03,0.03 -0.05,0.07 -0.07,0.11 -0.01,0.04 0,0.1 0.02,0.16 0.02,0.07 0.07,0.14 0.13,0.22 0.07,0.09 0.15,0.18 0.27,0.29 0.11,0.12 0.21,0.21 0.29,0.27 0.09,0.07 0.16,0.11 0.22,0.13 0.06,0.02 0.12,0.03 0.16,0.02 0.05,-0.01 0.09,-0.03 0.12,-0.06 l 1.48,-1.48 1.6,1.59 c 0.04,0.04 0.08,0.07 0.12,0.08 0.05,0.01 0.1,0.01 0.16,-0.01 0.06,-0.02 0.12,-0.06 0.19,-0.11 0.07,-0.05 0.15,-0.12 0.24,-0.2 0.16,-0.17 0.26,-0.31 0.29,-0.43 0.04,-0.11 0.02,-0.2 -0.05,-0.27 l -1.6,-1.6 3.47,-3.48 c 0.43,-0.42 0.82,-0.68 1.17,-0.78 0.34,-0.09 0.68,0.03 1.01,0.36 0.1,0.1 0.19,0.21 0.25,0.31 0.06,0.1 0.11,0.2 0.15,0.29 0.05,0.09 0.08,0.16 0.1,0.23 0.03,0.07 0.06,0.12 0.1,0.16 0.02,0.02 0.05,0.03 0.08,0.04 0.03,0.01 0.07,0.01 0.12,-0.01 0.04,-0.02 0.09,-0.06 0.16,-0.1 0.06,-0.05 0.14,-0.11 0.22,-0.2 z m 1.23,12.21 c 0.16,-0.17 0.26,-0.3 0.28,-0.42 0.03,-0.11 0.01,-0.21 -0.06,-0.28 l -0.89,-0.89 c 0.33,0 0.62,-0.07 0.89,-0.21 0.26,-0.14 0.5,-0.31 0.72,-0.53 0.36,-0.36 0.62,-0.73 0.78,-1.13 0.16,-0.39 0.23,-0.79 0.21,-1.19 -0.02,-0.41 -0.13,-0.81 -0.33,-1.21 -0.19,-0.39 -0.47,-0.77 -0.83,-1.13 -0.25,-0.26 -0.52,-0.46 -0.82,-0.63 -0.29,-0.16 -0.56,-0.25 -0.78,-0.27 0,-0.17 0.03,-0.33 0.08,-0.49 0.05,-0.16 0.15,-0.31 0.29,-0.45 0.16,-0.16 0.37,-0.22 0.62,-0.17 0.26,0.04 0.51,0.18 0.77,0.42 l 1.7,1.56 c 0.32,0.3 0.64,0.54 0.98,0.72 0.33,0.19 0.66,0.3 0.99,0.35 0.33,0.05 0.65,0.02 0.97,-0.08 0.31,-0.1 0.6,-0.28 0.87,-0.55 0.29,-0.29 0.5,-0.62 0.64,-1 0.14,-0.38 0.18,-0.79 0.13,-1.23 -0.05,-0.44 -0.21,-0.91 -0.48,-1.41 -0.27,-0.5 -0.67,-1 -1.19,-1.53 -0.5,-0.5 -0.97,-0.88 -1.41,-1.15 -0.44,-0.27 -0.84,-0.44 -1.22,-0.52 -0.37,-0.08 -0.71,-0.07 -1.02,0.04 -0.31,0.1 -0.58,0.27 -0.82,0.51 -0.15,0.16 -0.28,0.32 -0.39,0.5 -0.1,0.18 -0.18,0.37 -0.23,0.58 -0.06,0.2 -0.09,0.42 -0.09,0.65 -0.01,0.23 0.01,0.48 0.04,0.74 -0.34,-0.11 -0.65,-0.13 -0.94,-0.06 -0.28,0.06 -0.52,0.2 -0.73,0.4 -0.28,0.28 -0.47,0.59 -0.58,0.93 -0.1,0.34 -0.16,0.68 -0.16,1.02 -0.32,0.03 -0.62,0.11 -0.92,0.24 -0.3,0.13 -0.6,0.35 -0.9,0.66 -0.36,0.35 -0.62,0.73 -0.78,1.13 -0.16,0.4 -0.23,0.81 -0.21,1.21 0.01,0.41 0.12,0.81 0.31,1.21 0.2,0.4 0.47,0.78 0.82,1.13 0.19,0.19 0.38,0.36 0.56,0.5 0.19,0.14 0.37,0.27 0.55,0.37 l 1.88,1.88 c 0.08,0.08 0.18,0.1 0.29,0.07 0.12,-0.04 0.25,-0.14 0.41,-0.29 z m -0.15,-3.43 c -0.42,0.43 -0.87,0.64 -1.34,0.64 -0.47,0.01 -0.92,-0.2 -1.35,-0.63 -0.22,-0.22 -0.37,-0.45 -0.46,-0.69 -0.09,-0.24 -0.13,-0.48 -0.11,-0.71 0.02,-0.24 0.09,-0.47 0.21,-0.69 0.11,-0.22 0.26,-0.43 0.45,-0.61 0.41,-0.41 0.85,-0.62 1.31,-0.62 0.47,0 0.92,0.21 1.34,0.63 0.22,0.22 0.38,0.45 0.48,0.69 0.09,0.24 0.13,0.48 0.11,0.71 -0.02,0.24 -0.08,0.46 -0.2,0.68 -0.11,0.22 -0.26,0.42 -0.44,0.6 z m 5.51,-4.36 c -0.27,0.27 -0.58,0.37 -0.95,0.29 -0.36,-0.07 -0.73,-0.29 -1.12,-0.65 l -1.66,-1.56 c -0.04,-0.26 -0.05,-0.5 -0.04,-0.69 0.01,-0.2 0.03,-0.38 0.07,-0.53 0.04,-0.15 0.1,-0.28 0.17,-0.39 0.07,-0.11 0.15,-0.22 0.25,-0.32 0.3,-0.29 0.68,-0.37 1.14,-0.22 0.46,0.15 0.96,0.5 1.5,1.04 0.35,0.35 0.61,0.67 0.77,0.97 0.17,0.3 0.27,0.58 0.3,0.83 0.03,0.25 0.01,0.48 -0.07,0.69 -0.08,0.2 -0.2,0.39 -0.36,0.54 z m -0.18,12.72 c 0.1,-0.11 0.18,-0.19 0.25,-0.27 0.06,-0.07 0.11,-0.13 0.13,-0.19 0.03,-0.05 0.04,-0.1 0.04,-0.14 0,-0.04 -0.02,-0.08 -0.05,-0.12 -0.04,-0.03 -0.1,-0.07 -0.17,-0.1 -0.07,-0.03 -0.16,-0.07 -0.24,-0.12 -0.09,-0.04 -0.19,-0.1 -0.29,-0.16 -0.1,-0.07 -0.2,-0.15 -0.29,-0.25 -0.12,-0.11 -0.21,-0.25 -0.27,-0.4 -0.07,-0.16 -0.11,-0.35 -0.13,-0.58 -0.01,-0.23 0,-0.5 0.04,-0.81 0.04,-0.31 0.11,-0.67 0.2,-1.08 l 4.1,-4.1 c 0.04,-0.04 0.06,-0.08 0.07,-0.12 0,-0.05 -0.01,-0.1 -0.03,-0.16 -0.02,-0.06 -0.07,-0.13 -0.13,-0.21 -0.06,-0.08 -0.15,-0.18 -0.27,-0.3 -0.11,-0.11 -0.21,-0.2 -0.29,-0.26 -0.08,-0.07 -0.16,-0.11 -0.22,-0.14 -0.06,-0.02 -0.11,-0.03 -0.15,-0.02 -0.05,0.01 -0.09,0.03 -0.12,0.07 l -6.23,6.23 c -0.04,0.03 -0.06,0.07 -0.07,0.11 -0.01,0.04 -0.01,0.09 0.01,0.15 0.02,0.06 0.06,0.13 0.12,0.2 0.06,0.07 0.14,0.16 0.25,0.27 0.1,0.1 0.18,0.18 0.26,0.24 0.07,0.06 0.14,0.1 0.2,0.11 0.05,0.02 0.1,0.02 0.14,0.02 0.05,-0.01 0.08,-0.04 0.12,-0.07 l 0.91,-0.91 c -0.08,0.42 -0.12,0.78 -0.13,1.09 -0.01,0.31 0.01,0.57 0.06,0.8 0.04,0.22 0.11,0.41 0.21,0.58 0.09,0.17 0.21,0.32 0.34,0.45 0.06,0.06 0.13,0.12 0.22,0.19 0.08,0.07 0.17,0.14 0.27,0.2 0.11,0.07 0.2,0.12 0.29,0.17 0.09,0.04 0.16,0.06 0.21,0.07 0.05,0 0.09,0 0.12,-0.01 0.03,-0.01 0.07,-0.03 0.11,-0.06 0.04,-0.02 0.09,-0.06 0.15,-0.12 0.07,-0.06 0.15,-0.15 0.26,-0.25 z m 9.11,4.24 c 0.18,-0.18 0.27,-0.35 0.25,-0.52 -0.01,-0.16 -0.08,-0.31 -0.19,-0.42 l -4.1,-4.1 c 0.34,-0.35 0.69,-0.63 1.04,-0.83 0.34,-0.21 0.7,-0.33 1.06,-0.37 0.36,-0.03 0.72,0.03 1.09,0.18 0.36,0.15 0.73,0.42 1.11,0.79 0.29,0.3 0.53,0.59 0.72,0.87 0.18,0.28 0.33,0.53 0.44,0.76 0.1,0.23 0.19,0.42 0.25,0.58 0.06,0.16 0.12,0.27 0.17,0.32 0.04,0.03 0.07,0.05 0.12,0.06 0.04,0.01 0.08,0.01 0.13,-0.01 0.04,-0.02 0.1,-0.05 0.16,-0.1 0.07,-0.05 0.14,-0.12 0.22,-0.2 0.06,-0.06 0.11,-0.12 0.15,-0.17 0.04,-0.05 0.08,-0.09 0.1,-0.13 0.03,-0.04 0.05,-0.09 0.06,-0.13 0.01,-0.04 0.02,-0.09 0.02,-0.14 0,-0.05 -0.03,-0.17 -0.1,-0.35 -0.07,-0.18 -0.17,-0.4 -0.32,-0.66 -0.14,-0.25 -0.32,-0.53 -0.53,-0.83 -0.22,-0.31 -0.48,-0.61 -0.77,-0.9 -0.51,-0.51 -1.03,-0.89 -1.56,-1.13 -0.53,-0.25 -1.07,-0.36 -1.61,-0.34 -0.55,0.02 -1.1,0.17 -1.66,0.46 -0.55,0.3 -1.11,0.72 -1.68,1.28 -0.53,0.54 -0.94,1.09 -1.23,1.66 -0.29,0.56 -0.45,1.12 -0.49,1.68 -0.04,0.56 0.05,1.1 0.26,1.63 0.21,0.53 0.54,1.02 1,1.48 0.49,0.49 0.98,0.82 1.48,1.01 0.5,0.19 1,0.26 1.48,0.21 0.49,-0.04 0.97,-0.19 1.43,-0.44 0.46,-0.26 0.89,-0.59 1.3,-0.99 z m -1.48,-0.81 c -0.59,0.62 -1.19,0.95 -1.81,1.01 -0.63,0.06 -1.21,-0.18 -1.77,-0.73 -0.28,-0.29 -0.47,-0.59 -0.58,-0.91 -0.11,-0.32 -0.15,-0.64 -0.12,-0.96 0.04,-0.32 0.13,-0.63 0.28,-0.94 0.16,-0.31 0.36,-0.6 0.6,-0.87 z m 9.11,6.35 c 0.42,-0.42 0.72,-0.87 0.89,-1.35 0.18,-0.48 0.24,-0.98 0.19,-1.48 -0.04,-0.5 -0.19,-1 -0.45,-1.48 -0.26,-0.49 -0.6,-0.95 -1.03,-1.38 -0.3,-0.3 -0.6,-0.55 -0.91,-0.75 -0.3,-0.21 -0.59,-0.38 -0.87,-0.5 -0.27,-0.13 -0.52,-0.22 -0.73,-0.28 -0.22,-0.06 -0.38,-0.08 -0.49,-0.08 -0.11,0 -0.21,0.03 -0.33,0.09 -0.11,0.06 -0.23,0.16 -0.38,0.31 -0.1,0.1 -0.18,0.19 -0.23,0.26 -0.06,0.08 -0.1,0.15 -0.13,0.21 -0.02,0.06 -0.02,0.11 -0.01,0.15 0.01,0.05 0.03,0.09 0.07,0.12 0.06,0.07 0.19,0.12 0.39,0.16 0.2,0.04 0.43,0.1 0.71,0.2 0.28,0.09 0.59,0.22 0.93,0.4 0.34,0.18 0.68,0.44 1.02,0.79 0.26,0.25 0.46,0.53 0.61,0.81 0.14,0.28 0.23,0.57 0.26,0.85 0.02,0.28 -0.01,0.55 -0.12,0.82 -0.1,0.27 -0.26,0.52 -0.5,0.75 -0.25,0.26 -0.53,0.42 -0.82,0.48 -0.3,0.07 -0.61,0.07 -0.93,0.02 -0.33,-0.05 -0.67,-0.15 -1.02,-0.27 -0.36,-0.13 -0.72,-0.27 -1.09,-0.4 -0.38,-0.14 -0.75,-0.25 -1.14,-0.35 -0.38,-0.1 -0.76,-0.14 -1.14,-0.14 -0.39,0 -0.77,0.08 -1.15,0.22 -0.37,0.14 -0.75,0.4 -1.11,0.76 -0.37,0.38 -0.64,0.78 -0.8,1.21 -0.15,0.43 -0.21,0.86 -0.17,1.3 0.05,0.44 0.19,0.88 0.42,1.32 0.23,0.44 0.54,0.85 0.92,1.24 0.2,0.2 0.42,0.38 0.65,0.54 0.24,0.17 0.47,0.31 0.71,0.43 0.23,0.12 0.46,0.22 0.67,0.28 0.21,0.07 0.36,0.1 0.44,0.1 0.09,0 0.15,0 0.19,-0.01 0.04,-0.02 0.09,-0.04 0.14,-0.07 0.04,-0.03 0.1,-0.07 0.16,-0.12 0.06,-0.05 0.13,-0.12 0.22,-0.2 0.08,-0.09 0.15,-0.17 0.21,-0.24 0.06,-0.07 0.1,-0.13 0.13,-0.19 0.03,-0.06 0.04,-0.11 0.04,-0.16 0,-0.04 -0.02,-0.08 -0.06,-0.11 -0.05,-0.05 -0.16,-0.1 -0.33,-0.15 -0.17,-0.04 -0.38,-0.1 -0.62,-0.18 -0.23,-0.07 -0.49,-0.18 -0.78,-0.33 -0.28,-0.15 -0.55,-0.36 -0.82,-0.62 -0.25,-0.25 -0.43,-0.5 -0.55,-0.75 -0.12,-0.26 -0.18,-0.5 -0.19,-0.73 -0.01,-0.23 0.03,-0.45 0.13,-0.66 0.09,-0.21 0.22,-0.41 0.39,-0.58 0.25,-0.25 0.52,-0.4 0.82,-0.47 0.29,-0.06 0.6,-0.07 0.93,-0.01 0.33,0.05 0.68,0.14 1.04,0.27 0.36,0.13 0.72,0.26 1.1,0.4 0.37,0.13 0.74,0.25 1.13,0.36 0.39,0.1 0.77,0.15 1.15,0.15 0.38,0 0.77,-0.07 1.14,-0.21 0.38,-0.14 0.75,-0.39 1.1,-0.75 z m 13.63,7.03 c 0.11,-0.11 0.19,-0.2 0.25,-0.29 0.06,-0.08 0.1,-0.15 0.11,-0.22 0.02,-0.06 0.02,-0.11 0.01,-0.15 -0.02,-0.04 -0.04,-0.08 -0.07,-0.11 -0.09,-0.09 -0.28,-0.2 -0.56,-0.33 -0.28,-0.13 -0.62,-0.25 -1.04,-0.37 -0.41,-0.13 -0.87,-0.24 -1.39,-0.33 -0.51,-0.1 -1.04,-0.15 -1.61,-0.16 -0.08,-0.37 -0.25,-0.77 -0.5,-1.22 -0.24,-0.45 -0.59,-0.9 -1.05,-1.36 -0.67,-0.67 -1.35,-1.15 -2.04,-1.45 -0.69,-0.29 -1.39,-0.4 -2.09,-0.34 -0.7,0.06 -1.42,0.3 -2.15,0.71 -0.72,0.41 -1.46,0.99 -2.19,1.73 -0.71,0.71 -1.27,1.44 -1.67,2.18 -0.41,0.75 -0.64,1.49 -0.7,2.24 -0.07,0.74 0.05,1.48 0.34,2.21 0.3,0.73 0.78,1.44 1.47,2.12 0.64,0.64 1.3,1.11 1.99,1.39 0.68,0.29 1.38,0.41 2.09,0.36 0.71,-0.05 1.43,-0.27 2.15,-0.66 0.72,-0.4 1.45,-0.95 2.17,-1.68 0.38,-0.37 0.71,-0.75 1.01,-1.14 0.3,-0.38 0.55,-0.77 0.76,-1.17 0.21,-0.4 0.37,-0.8 0.49,-1.2 0.11,-0.4 0.18,-0.81 0.19,-1.21 0.62,0.06 1.13,0.14 1.54,0.24 0.4,0.1 0.73,0.19 0.97,0.28 0.25,0.09 0.43,0.16 0.56,0.22 0.13,0.06 0.24,0.09 0.33,0.09 0.09,0 0.18,-0.03 0.28,-0.09 0.1,-0.06 0.22,-0.16 0.35,-0.29 z m -7.65,2.94 c -0.5,0.5 -1.02,0.93 -1.54,1.27 -0.53,0.35 -1.05,0.57 -1.58,0.68 -0.53,0.12 -1.06,0.09 -1.59,-0.09 -0.54,-0.17 -1.06,-0.51 -1.58,-1.03 -0.51,-0.51 -0.85,-1.04 -1.01,-1.58 -0.16,-0.55 -0.18,-1.09 -0.08,-1.63 0.11,-0.55 0.33,-1.08 0.66,-1.61 0.34,-0.52 0.74,-1.02 1.22,-1.5 0.53,-0.53 1.06,-0.97 1.58,-1.32 0.53,-0.35 1.06,-0.59 1.59,-0.7 0.53,-0.12 1.06,-0.09 1.59,0.08 0.52,0.17 1.05,0.52 1.57,1.05 0.53,0.52 0.87,1.05 1.03,1.6 0.16,0.55 0.18,1.1 0.07,1.65 -0.11,0.54 -0.34,1.08 -0.68,1.61 -0.35,0.53 -0.76,1.03 -1.25,1.52 z m 11.89,3.91 c 0.09,-0.09 0.16,-0.17 0.22,-0.25 0.05,-0.07 0.09,-0.14 0.11,-0.2 0.02,-0.06 0.03,-0.12 0.02,-0.17 -0.01,-0.05 -0.03,-0.1 -0.08,-0.14 l -3.95,-3.96 c -0.11,-0.11 -0.25,-0.17 -0.41,-0.19 -0.17,-0.03 -0.34,0.05 -0.52,0.23 l -8.29,8.29 c -0.04,0.04 -0.06,0.08 -0.07,0.13 -0.01,0.04 0,0.1 0.03,0.16 0.03,0.06 0.08,0.14 0.15,0.23 0.06,0.09 0.15,0.19 0.26,0.3 0.12,0.11 0.22,0.2 0.31,0.27 0.09,0.06 0.16,0.11 0.22,0.14 0.07,0.03 0.12,0.04 0.17,0.03 0.04,-0.01 0.08,-0.03 0.12,-0.07 l 7.74,-7.74 3.21,3.21 c 0.04,0.04 0.09,0.07 0.14,0.08 0.05,0 0.11,0 0.17,-0.02 0.06,-0.02 0.12,-0.05 0.2,-0.11 0.07,-0.05 0.16,-0.13 0.25,-0.22 z" /></g></g><g
             id="g182"><g
               id="g180"
               clip-path="url(#clipPath62)"><path
                 id="path178"
                 style="fill:#595959;fill-opacity:1;fill-rule:nonzero;stroke:none"
                 d="m 379.75,271.13 c 0.36,-0.36 0.65,-0.71 0.88,-1.07 0.23,-0.36 0.37,-0.72 0.42,-1.09 0.06,-0.36 0.01,-0.73 -0.13,-1.1 -0.15,-0.37 -0.41,-0.74 -0.79,-1.12 -0.12,-0.13 -0.26,-0.25 -0.41,-0.35 -0.15,-0.11 -0.29,-0.2 -0.43,-0.27 -0.14,-0.07 -0.27,-0.13 -0.39,-0.17 -0.12,-0.03 -0.2,-0.05 -0.26,-0.05 -0.05,0 -0.1,0.01 -0.14,0.02 -0.05,0.01 -0.09,0.03 -0.14,0.06 -0.05,0.03 -0.11,0.07 -0.17,0.12 -0.07,0.05 -0.14,0.12 -0.22,0.2 -0.1,0.11 -0.18,0.19 -0.24,0.27 -0.06,0.07 -0.1,0.14 -0.12,0.19 -0.03,0.06 -0.03,0.11 -0.02,0.15 0.01,0.04 0.03,0.08 0.07,0.12 0.03,0.04 0.1,0.07 0.19,0.09 0.09,0.02 0.2,0.05 0.32,0.09 0.13,0.04 0.26,0.1 0.4,0.17 0.14,0.07 0.28,0.18 0.42,0.32 0.16,0.16 0.27,0.31 0.35,0.46 0.07,0.15 0.09,0.32 0.05,0.5 -0.03,0.18 -0.12,0.38 -0.27,0.6 -0.15,0.23 -0.37,0.49 -0.67,0.79 l -6.41,6.4 c -0.03,0.04 -0.05,0.08 -0.06,0.12 -0.01,0.05 0,0.1 0.02,0.17 0.03,0.06 0.08,0.14 0.15,0.22 0.06,0.09 0.15,0.19 0.27,0.3 0.11,0.11 0.21,0.2 0.3,0.27 0.08,0.07 0.16,0.12 0.22,0.15 0.06,0.02 0.12,0.03 0.17,0.02 0.05,0 0.09,-0.02 0.12,-0.06 z m 8.99,4.81 c 0.06,-0.06 0.08,-0.12 0.07,-0.18 -0.01,-0.07 -0.04,-0.14 -0.09,-0.22 -0.05,-0.07 -0.14,-0.18 -0.26,-0.3 -0.12,-0.12 -0.22,-0.21 -0.31,-0.27 -0.09,-0.05 -0.16,-0.09 -0.22,-0.09 -0.06,0 -0.12,0.02 -0.17,0.08 l -0.62,0.62 c 0.02,-0.56 -0.06,-1.09 -0.24,-1.59 -0.17,-0.5 -0.44,-0.93 -0.82,-1.3 -0.32,-0.33 -0.66,-0.58 -1.01,-0.76 -0.35,-0.18 -0.7,-0.29 -1.05,-0.31 -0.35,-0.03 -0.69,0.03 -1.03,0.16 -0.34,0.13 -0.66,0.34 -0.96,0.64 -0.35,0.35 -0.58,0.73 -0.7,1.13 -0.11,0.4 -0.12,0.82 -0.03,1.26 0.1,0.44 0.3,0.89 0.6,1.37 0.3,0.47 0.7,0.95 1.18,1.43 l 0.86,0.86 -0.48,0.49 c -0.24,0.23 -0.48,0.42 -0.72,0.56 -0.23,0.13 -0.47,0.2 -0.7,0.21 -0.24,0.01 -0.48,-0.04 -0.72,-0.16 -0.24,-0.12 -0.49,-0.31 -0.76,-0.57 -0.28,-0.28 -0.5,-0.57 -0.65,-0.86 -0.16,-0.29 -0.28,-0.56 -0.37,-0.81 -0.09,-0.25 -0.16,-0.46 -0.2,-0.64 -0.05,-0.18 -0.1,-0.3 -0.15,-0.36 -0.04,-0.03 -0.08,-0.06 -0.13,-0.07 -0.04,-0.01 -0.1,0 -0.15,0.01 -0.06,0.02 -0.12,0.05 -0.19,0.1 -0.07,0.05 -0.14,0.11 -0.2,0.18 -0.12,0.11 -0.2,0.21 -0.25,0.29 -0.05,0.09 -0.08,0.19 -0.08,0.31 0.01,0.12 0.04,0.3 0.11,0.54 0.08,0.23 0.18,0.48 0.31,0.74 0.13,0.27 0.29,0.54 0.48,0.82 0.19,0.28 0.41,0.54 0.65,0.78 0.45,0.45 0.88,0.77 1.29,0.99 0.42,0.21 0.82,0.31 1.21,0.31 0.39,0 0.78,-0.1 1.15,-0.31 0.38,-0.2 0.76,-0.49 1.15,-0.88 z m -3.98,1.71 -0.97,-0.98 c -0.32,-0.31 -0.56,-0.61 -0.74,-0.89 -0.18,-0.29 -0.29,-0.56 -0.34,-0.81 -0.05,-0.26 -0.03,-0.5 0.04,-0.71 0.07,-0.22 0.21,-0.42 0.39,-0.61 0.33,-0.32 0.69,-0.48 1.08,-0.47 0.4,0.02 0.78,0.21 1.15,0.58 0.3,0.3 0.5,0.65 0.61,1.06 0.1,0.41 0.14,0.91 0.1,1.51 z m 4.94,11.74 c 0.02,-0.02 0.03,-0.04 0.05,-0.06 0.02,-0.03 0.04,-0.05 0.06,-0.08 0.02,-0.03 0.04,-0.06 0.06,-0.09 0.02,-0.04 0.04,-0.07 0.06,-0.12 l 3.79,-8.04 c 0.04,-0.07 0.05,-0.13 0.06,-0.19 0,-0.07 -0.02,-0.14 -0.06,-0.21 -0.04,-0.08 -0.11,-0.17 -0.19,-0.27 -0.09,-0.1 -0.2,-0.22 -0.34,-0.36 -0.14,-0.14 -0.26,-0.25 -0.36,-0.33 -0.1,-0.08 -0.19,-0.14 -0.26,-0.18 -0.08,-0.04 -0.15,-0.06 -0.22,-0.06 -0.06,0 -0.13,0.01 -0.19,0.04 l -8.03,3.8 c -0.08,0.04 -0.14,0.07 -0.19,0.1 -0.06,0.03 -0.09,0.05 -0.12,0.07 -0.02,0.02 -0.04,0.04 -0.05,0.05 -0.04,0.04 -0.06,0.08 -0.07,0.12 -0.01,0.05 0,0.1 0.03,0.16 0.02,0.06 0.07,0.13 0.14,0.21 0.06,0.07 0.15,0.17 0.26,0.27 0.13,0.13 0.24,0.24 0.33,0.31 0.09,0.08 0.16,0.13 0.22,0.15 0.07,0.03 0.12,0.04 0.17,0.03 0.05,-0.01 0.1,-0.02 0.16,-0.05 l 6.89,-3.37 0.12,-0.06 -0.07,0.11 -3.39,6.87 c -0.04,0.05 -0.06,0.1 -0.06,0.15 0,0.05 0.01,0.11 0.03,0.17 0.03,0.06 0.07,0.13 0.14,0.22 0.07,0.08 0.17,0.18 0.29,0.31 0.11,0.1 0.2,0.19 0.27,0.25 0.08,0.07 0.14,0.11 0.2,0.13 0.06,0.02 0.11,0.03 0.15,0.02 0.04,-0.01 0.08,-0.03 0.12,-0.07 z m 12.19,-0.3 c 0.06,-0.05 0.08,-0.11 0.07,-0.18 -0.01,-0.06 -0.04,-0.14 -0.09,-0.21 -0.05,-0.08 -0.14,-0.18 -0.26,-0.31 -0.12,-0.12 -0.22,-0.21 -0.31,-0.26 -0.08,-0.06 -0.16,-0.09 -0.22,-0.1 -0.06,0 -0.11,0.02 -0.17,0.08 l -0.62,0.62 c 0.02,-0.56 -0.06,-1.09 -0.23,-1.59 -0.18,-0.49 -0.45,-0.93 -0.82,-1.3 -0.33,-0.33 -0.67,-0.58 -1.02,-0.76 -0.35,-0.18 -0.7,-0.29 -1.05,-0.31 -0.35,-0.03 -0.69,0.03 -1.03,0.16 -0.34,0.13 -0.66,0.35 -0.96,0.65 -0.35,0.35 -0.58,0.72 -0.7,1.12 -0.11,0.4 -0.12,0.82 -0.02,1.26 0.09,0.44 0.29,0.9 0.59,1.37 0.31,0.47 0.7,0.95 1.18,1.43 l 0.86,0.86 -0.48,0.49 c -0.24,0.24 -0.48,0.42 -0.71,0.56 -0.24,0.13 -0.48,0.2 -0.71,0.21 -0.24,0.01 -0.47,-0.04 -0.72,-0.16 -0.24,-0.12 -0.49,-0.31 -0.75,-0.57 -0.29,-0.28 -0.5,-0.57 -0.66,-0.86 -0.16,-0.29 -0.28,-0.56 -0.37,-0.81 -0.09,-0.25 -0.15,-0.46 -0.2,-0.64 -0.05,-0.18 -0.1,-0.3 -0.15,-0.36 -0.04,-0.03 -0.08,-0.06 -0.13,-0.06 -0.04,-0.01 -0.09,-0.01 -0.15,0.01 -0.06,0.01 -0.12,0.04 -0.19,0.09 -0.07,0.05 -0.13,0.11 -0.2,0.18 -0.12,0.11 -0.2,0.21 -0.25,0.3 -0.05,0.08 -0.08,0.18 -0.07,0.3 0,0.13 0.03,0.3 0.11,0.54 0.07,0.23 0.17,0.48 0.3,0.74 0.13,0.27 0.29,0.54 0.49,0.82 0.19,0.28 0.4,0.54 0.64,0.78 0.45,0.45 0.88,0.78 1.3,0.99 0.41,0.21 0.81,0.32 1.2,0.31 0.39,0 0.78,-0.1 1.16,-0.3 0.37,-0.21 0.76,-0.5 1.14,-0.89 z m -3.97,1.71 -0.98,-0.98 c -0.31,-0.31 -0.56,-0.61 -0.74,-0.89 -0.17,-0.29 -0.29,-0.56 -0.34,-0.81 -0.04,-0.26 -0.03,-0.49 0.04,-0.71 0.08,-0.22 0.21,-0.42 0.4,-0.61 0.32,-0.32 0.68,-0.48 1.08,-0.46 0.39,0.01 0.78,0.2 1.14,0.57 0.3,0.3 0.51,0.65 0.61,1.06 0.1,0.41 0.14,0.91 0.11,1.51 z m 9.59,5.82 c 0.08,-0.08 0.15,-0.15 0.2,-0.21 0.05,-0.06 0.09,-0.12 0.12,-0.17 0.03,-0.05 0.05,-0.1 0.06,-0.15 0.02,-0.04 0.02,-0.12 0.02,-0.24 0,-0.11 -0.02,-0.28 -0.08,-0.51 -0.05,-0.22 -0.13,-0.45 -0.23,-0.69 -0.11,-0.24 -0.24,-0.48 -0.41,-0.73 -0.16,-0.24 -0.35,-0.47 -0.56,-0.69 -0.45,-0.45 -0.92,-0.77 -1.41,-0.97 -0.5,-0.2 -1,-0.27 -1.52,-0.22 -0.52,0.05 -1.04,0.22 -1.58,0.51 -0.53,0.29 -1.07,0.71 -1.61,1.25 -0.61,0.61 -1.06,1.21 -1.36,1.8 -0.29,0.59 -0.44,1.16 -0.46,1.7 -0.02,0.54 0.07,1.06 0.29,1.55 0.22,0.49 0.53,0.94 0.94,1.35 0.2,0.19 0.41,0.37 0.64,0.52 0.22,0.15 0.44,0.27 0.66,0.37 0.21,0.1 0.42,0.17 0.62,0.21 0.2,0.04 0.36,0.07 0.47,0.07 0.11,0 0.19,-0.01 0.25,-0.02 0.05,-0.01 0.1,-0.03 0.16,-0.06 0.06,-0.03 0.12,-0.07 0.18,-0.12 0.06,-0.06 0.13,-0.12 0.21,-0.21 0.18,-0.18 0.29,-0.32 0.32,-0.44 0.03,-0.11 0.01,-0.19 -0.05,-0.25 -0.07,-0.07 -0.18,-0.12 -0.35,-0.13 -0.17,-0.01 -0.37,-0.04 -0.6,-0.09 -0.23,-0.05 -0.48,-0.13 -0.75,-0.25 -0.27,-0.12 -0.54,-0.31 -0.81,-0.58 -0.55,-0.55 -0.76,-1.18 -0.63,-1.9 0.13,-0.71 0.6,-1.47 1.4,-2.27 0.4,-0.4 0.79,-0.72 1.17,-0.94 0.38,-0.23 0.74,-0.37 1.09,-0.42 0.35,-0.06 0.68,-0.03 1,0.09 0.31,0.11 0.61,0.31 0.88,0.58 0.27,0.27 0.46,0.54 0.57,0.82 0.12,0.28 0.2,0.54 0.24,0.79 0.05,0.24 0.08,0.46 0.1,0.64 0.02,0.18 0.05,0.29 0.11,0.35 0.03,0.03 0.07,0.05 0.11,0.05 0.04,0.01 0.09,0 0.15,-0.03 0.06,-0.03 0.13,-0.07 0.2,-0.13 0.08,-0.06 0.16,-0.14 0.25,-0.23 z" /></g></g><g
             id="g188"><g
               id="g186"
               clip-path="url(#clipPath66)"><path
                 id="path184"
                 style="fill:#595959;fill-opacity:1;fill-rule:nonzero;stroke:none"
                 d="m 468.65,274.13 c 0.77,-0.78 1.35,-1.55 1.73,-2.33 0.38,-0.78 0.57,-1.55 0.57,-2.31 0,-0.76 -0.18,-1.51 -0.55,-2.25 -0.36,-0.75 -0.93,-1.5 -1.69,-2.27 l -1.9,-1.89 c -0.1,-0.11 -0.24,-0.17 -0.41,-0.2 -0.16,-0.02 -0.33,0.06 -0.51,0.24 l -7.99,7.98 c -0.18,0.18 -0.26,0.36 -0.23,0.52 0.02,0.17 0.08,0.31 0.19,0.41 l 2.03,2.03 c 0.77,0.77 1.53,1.33 2.26,1.66 0.74,0.34 1.48,0.5 2.21,0.48 0.74,-0.01 1.47,-0.19 2.19,-0.54 0.73,-0.35 1.42,-0.86 2.1,-1.53 z m -1.21,-1.3 c -0.48,0.48 -0.99,0.87 -1.53,1.17 -0.54,0.3 -1.09,0.47 -1.65,0.52 -0.56,0.05 -1.12,-0.04 -1.68,-0.26 -0.56,-0.22 -1.15,-0.64 -1.77,-1.26 l -1.21,-1.21 6.96,-6.97 1.23,1.23 c 0.57,0.57 0.98,1.12 1.23,1.66 0.25,0.53 0.36,1.08 0.33,1.64 -0.04,0.56 -0.21,1.12 -0.52,1.7 -0.32,0.58 -0.78,1.17 -1.39,1.78 z m 9.3,7.28 c 0.18,-0.18 0.26,-0.35 0.24,-0.52 -0.01,-0.16 -0.07,-0.3 -0.19,-0.42 l -4.1,-4.1 c 0.34,-0.35 0.69,-0.62 1.04,-0.83 0.34,-0.21 0.7,-0.33 1.06,-0.36 0.36,-0.04 0.72,0.02 1.09,0.17 0.36,0.15 0.73,0.42 1.11,0.79 0.29,0.3 0.53,0.59 0.72,0.87 0.18,0.28 0.33,0.53 0.44,0.76 0.11,0.23 0.19,0.43 0.25,0.58 0.06,0.16 0.12,0.27 0.18,0.32 0.03,0.04 0.07,0.06 0.11,0.07 0.04,0.01 0.08,0 0.13,-0.02 0.04,-0.02 0.1,-0.05 0.16,-0.1 0.07,-0.05 0.14,-0.12 0.23,-0.2 0.06,-0.06 0.11,-0.12 0.15,-0.16 0.03,-0.05 0.07,-0.1 0.1,-0.14 0.02,-0.04 0.04,-0.08 0.05,-0.13 0.02,-0.04 0.02,-0.09 0.02,-0.14 0,-0.05 -0.03,-0.17 -0.1,-0.35 -0.07,-0.18 -0.17,-0.4 -0.31,-0.65 -0.15,-0.26 -0.33,-0.54 -0.54,-0.84 -0.22,-0.3 -0.48,-0.6 -0.77,-0.9 -0.51,-0.51 -1.03,-0.89 -1.56,-1.13 -0.53,-0.24 -1.07,-0.35 -1.61,-0.34 -0.54,0.02 -1.1,0.18 -1.65,0.47 -0.56,0.29 -1.12,0.71 -1.69,1.28 -0.53,0.53 -0.94,1.08 -1.23,1.65 -0.29,0.56 -0.45,1.12 -0.49,1.68 -0.04,0.56 0.05,1.1 0.26,1.63 0.21,0.53 0.54,1.02 1,1.48 0.49,0.49 0.98,0.83 1.49,1.01 0.5,0.19 0.99,0.26 1.48,0.22 0.48,-0.05 0.96,-0.2 1.42,-0.45 0.46,-0.25 0.89,-0.58 1.3,-0.99 z m -1.49,-0.81 c -0.59,0.62 -1.19,0.96 -1.81,1.02 -0.63,0.06 -1.21,-0.19 -1.76,-0.74 -0.29,-0.28 -0.48,-0.59 -0.59,-0.91 -0.11,-0.32 -0.15,-0.63 -0.11,-0.95 0.03,-0.32 0.12,-0.64 0.27,-0.95 0.16,-0.31 0.36,-0.6 0.6,-0.86 z m 4.33,8.53 c 0.11,-0.1 0.19,-0.19 0.25,-0.26 0.07,-0.07 0.11,-0.14 0.14,-0.19 0.02,-0.05 0.04,-0.1 0.04,-0.14 0,-0.04 -0.02,-0.08 -0.06,-0.12 -0.04,-0.04 -0.09,-0.07 -0.17,-0.1 -0.07,-0.04 -0.15,-0.07 -0.24,-0.12 -0.09,-0.05 -0.18,-0.1 -0.28,-0.17 -0.1,-0.06 -0.2,-0.14 -0.3,-0.24 -0.11,-0.11 -0.2,-0.25 -0.27,-0.41 -0.06,-0.15 -0.1,-0.35 -0.12,-0.58 -0.02,-0.22 0,-0.49 0.04,-0.8 0.04,-0.31 0.11,-0.67 0.2,-1.09 l 4.1,-4.09 c 0.03,-0.04 0.05,-0.08 0.06,-0.12 0.01,-0.05 0,-0.1 -0.02,-0.16 -0.03,-0.06 -0.07,-0.13 -0.13,-0.21 -0.07,-0.09 -0.16,-0.19 -0.27,-0.3 -0.12,-0.11 -0.21,-0.2 -0.3,-0.27 -0.08,-0.06 -0.15,-0.1 -0.21,-0.13 -0.07,-0.03 -0.12,-0.03 -0.16,-0.02 -0.04,0 -0.08,0.03 -0.12,0.06 l -6.22,6.23 c -0.04,0.04 -0.06,0.08 -0.08,0.12 -0.01,0.04 0,0.09 0.02,0.15 0.02,0.06 0.06,0.13 0.12,0.2 0.05,0.07 0.13,0.16 0.24,0.27 0.1,0.1 0.19,0.18 0.26,0.24 0.08,0.06 0.14,0.1 0.2,0.11 0.06,0.02 0.11,0.02 0.15,0.01 0.04,-0.01 0.08,-0.03 0.12,-0.07 l 0.9,-0.9 c -0.07,0.42 -0.12,0.78 -0.12,1.09 -0.01,0.3 0.01,0.57 0.05,0.79 0.04,0.23 0.12,0.42 0.21,0.59 0.1,0.16 0.21,0.31 0.35,0.45 0.06,0.06 0.13,0.12 0.21,0.19 0.09,0.07 0.18,0.14 0.28,0.2 0.1,0.07 0.2,0.12 0.29,0.16 0.09,0.05 0.16,0.07 0.21,0.08 0.05,0 0.09,0 0.12,-0.01 0.03,-0.02 0.06,-0.03 0.1,-0.06 0.04,-0.03 0.09,-0.07 0.16,-0.13 0.06,-0.06 0.15,-0.14 0.25,-0.25 z m 9.72,4.48 c 0.54,-0.54 0.97,-1.09 1.28,-1.64 0.32,-0.55 0.51,-1.09 0.59,-1.62 0.07,-0.53 0.03,-1.04 -0.14,-1.54 -0.18,-0.49 -0.48,-0.95 -0.9,-1.38 -0.2,-0.2 -0.41,-0.36 -0.61,-0.49 -0.21,-0.13 -0.44,-0.23 -0.69,-0.31 -0.25,-0.07 -0.52,-0.12 -0.81,-0.15 -0.3,-0.03 -0.63,-0.04 -1,-0.03 l 0.76,-0.76 c 0.04,-0.04 0.06,-0.08 0.07,-0.12 0.01,-0.05 0,-0.1 -0.02,-0.16 -0.03,-0.06 -0.07,-0.12 -0.12,-0.19 -0.06,-0.07 -0.13,-0.16 -0.23,-0.26 -0.09,-0.09 -0.17,-0.16 -0.25,-0.22 -0.07,-0.05 -0.14,-0.09 -0.19,-0.12 -0.06,-0.02 -0.11,-0.03 -0.15,-0.02 -0.04,0.02 -0.08,0.04 -0.12,0.08 l -9.24,9.25 c -0.04,0.03 -0.07,0.07 -0.08,0.12 -0.01,0.04 0,0.09 0.02,0.16 0.03,0.06 0.07,0.13 0.14,0.21 0.06,0.09 0.15,0.18 0.26,0.29 0.12,0.12 0.22,0.21 0.3,0.27 0.08,0.07 0.15,0.11 0.21,0.14 0.06,0.02 0.12,0.03 0.16,0.02 0.05,-0.01 0.09,-0.04 0.13,-0.07 l 3.73,-3.73 c -0.01,0.37 0.01,0.71 0.06,1.01 0.04,0.3 0.1,0.58 0.19,0.82 0.08,0.25 0.19,0.48 0.32,0.68 0.13,0.2 0.29,0.4 0.47,0.58 0.45,0.45 0.93,0.75 1.43,0.89 0.5,0.14 1,0.16 1.51,0.06 0.5,-0.1 1,-0.31 1.5,-0.62 0.5,-0.32 0.97,-0.7 1.42,-1.15 z m -1.05,-1.32 c -0.32,0.32 -0.65,0.61 -1,0.86 -0.35,0.25 -0.7,0.43 -1.05,0.54 -0.35,0.11 -0.7,0.13 -1.04,0.07 -0.34,-0.05 -0.66,-0.23 -0.95,-0.53 -0.15,-0.15 -0.28,-0.31 -0.38,-0.5 -0.1,-0.19 -0.18,-0.4 -0.23,-0.65 -0.05,-0.24 -0.08,-0.52 -0.09,-0.83 -0.01,-0.32 0.01,-0.68 0.06,-1.09 l 2.49,-2.48 c 0.7,-0.07 1.29,-0.06 1.78,0.03 0.49,0.08 0.89,0.28 1.2,0.59 0.28,0.29 0.46,0.61 0.53,0.95 0.06,0.34 0.05,0.69 -0.06,1.05 -0.1,0.35 -0.26,0.7 -0.48,1.04 -0.23,0.35 -0.49,0.66 -0.78,0.95 z m 8.91,2.44 1.46,-3.12 c 0.05,-0.1 0.03,-0.23 -0.04,-0.38 -0.07,-0.16 -0.23,-0.35 -0.46,-0.58 -0.12,-0.12 -0.22,-0.21 -0.3,-0.27 -0.09,-0.06 -0.17,-0.1 -0.23,-0.11 -0.07,-0.01 -0.13,0 -0.18,0.04 -0.05,0.04 -0.09,0.11 -0.13,0.2 l -1.31,3.03 c -0.06,-0.03 -0.13,-0.04 -0.21,-0.03 -0.07,0 -0.14,0.02 -0.2,0.05 l -8.17,3.73 c -0.14,0.06 -0.23,0.12 -0.29,0.18 -0.05,0.05 -0.08,0.11 -0.07,0.18 0,0.07 0.04,0.15 0.11,0.25 0.07,0.09 0.18,0.21 0.31,0.35 0.14,0.14 0.25,0.24 0.34,0.31 0.09,0.08 0.16,0.12 0.22,0.15 0.07,0.03 0.13,0.04 0.18,0.02 0.06,-0.01 0.13,-0.04 0.21,-0.07 l 6.78,-3.22 0.02,0.02 -3.31,6.74 c -0.06,0.12 -0.08,0.21 -0.07,0.27 0.01,0.06 0.05,0.14 0.12,0.23 0.07,0.09 0.18,0.21 0.32,0.36 0.13,0.13 0.24,0.23 0.34,0.3 0.09,0.07 0.18,0.11 0.25,0.12 0.07,0 0.13,-0.02 0.19,-0.08 0.05,-0.05 0.11,-0.13 0.16,-0.25 z" /></g></g><g
             id="g194"><g
               id="g192"
               clip-path="url(#clipPath70)"><path
                 id="path190"
                 style="fill:#595959;fill-opacity:1;fill-rule:nonzero;stroke:none"
                 d="m 554.21,260.86 c 0.09,-0.09 0.16,-0.19 0.19,-0.28 0.03,-0.1 0.05,-0.19 0.04,-0.28 -0.01,-0.09 -0.04,-0.18 -0.08,-0.26 -0.04,-0.08 -0.1,-0.15 -0.16,-0.21 l -0.39,-0.4 c -0.13,-0.12 -0.25,-0.22 -0.37,-0.29 -0.11,-0.06 -0.25,-0.11 -0.4,-0.12 -0.15,-0.02 -0.32,-0.01 -0.52,0.02 -0.2,0.03 -0.44,0.09 -0.71,0.18 l -7.83,2.36 c -0.4,0.12 -0.82,0.25 -1.25,0.39 -0.44,0.15 -0.85,0.29 -1.25,0.44 l -0.01,-0.01 c 0.34,-0.33 0.68,-0.66 1.03,-1 0.36,-0.34 0.7,-0.68 1.04,-1.02 l 5.41,-5.41 c 0.03,-0.03 0.05,-0.07 0.06,-0.12 0.01,-0.05 0,-0.11 -0.03,-0.17 -0.03,-0.06 -0.08,-0.14 -0.14,-0.22 -0.06,-0.09 -0.15,-0.19 -0.27,-0.31 -0.12,-0.11 -0.22,-0.21 -0.31,-0.27 -0.08,-0.06 -0.16,-0.11 -0.22,-0.14 -0.06,-0.02 -0.11,-0.03 -0.16,-0.02 -0.05,0.01 -0.09,0.03 -0.12,0.06 l -8.27,8.26 c -0.18,0.19 -0.26,0.37 -0.23,0.55 0.02,0.19 0.1,0.34 0.22,0.47 l 0.59,0.58 c 0.14,0.14 0.26,0.24 0.38,0.31 0.12,0.07 0.24,0.12 0.36,0.14 0.13,0.02 0.28,0.02 0.44,-0.01 0.16,-0.02 0.35,-0.07 0.57,-0.14 l 6.03,-1.83 c 0.37,-0.11 0.73,-0.22 1.08,-0.33 0.35,-0.1 0.69,-0.21 1.02,-0.32 0.33,-0.11 0.66,-0.22 0.99,-0.33 0.32,-0.1 0.64,-0.21 0.97,-0.32 v 0.01 c -0.37,0.35 -0.75,0.73 -1.15,1.12 -0.4,0.39 -0.78,0.77 -1.14,1.13 l -4.86,4.86 c -0.03,0.03 -0.05,0.07 -0.06,0.12 -0.01,0.05 0,0.1 0.03,0.17 0.02,0.07 0.07,0.14 0.13,0.23 0.07,0.08 0.16,0.19 0.28,0.31 0.11,0.11 0.21,0.19 0.3,0.26 0.08,0.07 0.16,0.12 0.22,0.14 0.07,0.02 0.12,0.03 0.17,0.02 0.05,-0.01 0.09,-0.03 0.12,-0.06 z m 5.19,10.92 c 0.51,-0.51 0.91,-1.04 1.2,-1.6 0.3,-0.56 0.47,-1.13 0.51,-1.7 0.04,-0.58 -0.05,-1.15 -0.27,-1.72 -0.23,-0.57 -0.61,-1.12 -1.13,-1.65 -0.51,-0.51 -1.04,-0.88 -1.57,-1.11 -0.53,-0.23 -1.07,-0.32 -1.61,-0.29 -0.55,0.04 -1.09,0.2 -1.63,0.5 -0.54,0.29 -1.07,0.69 -1.6,1.22 -0.51,0.51 -0.91,1.04 -1.2,1.6 -0.3,0.56 -0.47,1.12 -0.51,1.7 -0.04,0.57 0.05,1.14 0.27,1.71 0.23,0.57 0.61,1.12 1.14,1.65 0.51,0.51 1.03,0.88 1.56,1.11 0.54,0.23 1.08,0.32 1.62,0.28 0.54,-0.03 1.09,-0.2 1.63,-0.48 0.54,-0.29 1.07,-0.7 1.59,-1.22 z m -1.1,-1.26 c -0.34,0.34 -0.69,0.63 -1.05,0.86 -0.36,0.24 -0.73,0.4 -1.1,0.48 -0.37,0.08 -0.75,0.07 -1.12,-0.05 -0.38,-0.11 -0.75,-0.36 -1.12,-0.72 -0.34,-0.34 -0.57,-0.7 -0.7,-1.06 -0.12,-0.36 -0.16,-0.73 -0.09,-1.11 0.06,-0.38 0.2,-0.76 0.42,-1.13 0.22,-0.38 0.51,-0.75 0.87,-1.1 0.34,-0.34 0.69,-0.63 1.05,-0.87 0.37,-0.24 0.73,-0.39 1.1,-0.47 0.37,-0.08 0.75,-0.06 1.13,0.06 0.38,0.11 0.75,0.35 1.12,0.72 0.33,0.34 0.56,0.69 0.69,1.05 0.13,0.37 0.16,0.74 0.1,1.12 -0.06,0.37 -0.2,0.75 -0.42,1.12 -0.23,0.38 -0.52,0.74 -0.88,1.1 z m 11.21,5 c 0.04,-0.03 0.06,-0.07 0.08,-0.12 0.01,-0.04 0,-0.09 -0.02,-0.15 -0.02,-0.05 -0.06,-0.12 -0.12,-0.19 -0.05,-0.07 -0.13,-0.16 -0.22,-0.25 -0.1,-0.09 -0.18,-0.17 -0.26,-0.23 -0.07,-0.05 -0.14,-0.09 -0.19,-0.12 -0.06,-0.02 -0.11,-0.03 -0.16,-0.02 -0.05,0.01 -0.09,0.03 -0.12,0.07 l -0.83,0.82 c 0.03,-0.68 -0.03,-1.3 -0.19,-1.85 -0.15,-0.55 -0.44,-1.04 -0.86,-1.46 -0.46,-0.45 -0.93,-0.75 -1.44,-0.9 -0.5,-0.14 -1,-0.17 -1.5,-0.07 -0.5,0.11 -1,0.31 -1.51,0.63 -0.5,0.32 -0.97,0.7 -1.42,1.15 -0.54,0.54 -0.96,1.08 -1.28,1.63 -0.32,0.54 -0.51,1.08 -0.59,1.61 -0.08,0.53 -0.03,1.05 0.14,1.54 0.17,0.5 0.47,0.97 0.91,1.41 0.36,0.36 0.78,0.62 1.24,0.76 0.46,0.14 0.99,0.21 1.6,0.19 l -3.62,3.62 c -0.03,0.03 -0.06,0.07 -0.07,0.12 -0.02,0.05 -0.01,0.1 0.02,0.16 0.03,0.06 0.08,0.14 0.14,0.22 0.06,0.08 0.14,0.18 0.25,0.29 0.12,0.12 0.22,0.21 0.3,0.27 0.09,0.06 0.16,0.1 0.22,0.13 0.06,0.02 0.11,0.03 0.16,0.02 0.05,-0.01 0.09,-0.03 0.13,-0.06 z m -5.53,3.24 c -0.69,0.07 -1.28,0.06 -1.77,-0.02 -0.49,-0.09 -0.89,-0.29 -1.2,-0.61 -0.29,-0.29 -0.47,-0.6 -0.53,-0.94 -0.07,-0.35 -0.05,-0.69 0.05,-1.05 0.1,-0.35 0.26,-0.7 0.49,-1.04 0.23,-0.34 0.49,-0.66 0.78,-0.96 0.32,-0.31 0.65,-0.6 1,-0.85 0.35,-0.25 0.7,-0.43 1.05,-0.54 0.35,-0.12 0.7,-0.14 1.04,-0.09 0.34,0.06 0.66,0.24 0.96,0.54 0.15,0.15 0.27,0.32 0.37,0.5 0.1,0.18 0.18,0.4 0.23,0.64 0.05,0.25 0.08,0.53 0.08,0.84 0.01,0.32 -0.01,0.68 -0.05,1.08 z m 9.6,7.59 c 0.18,-0.18 0.26,-0.35 0.24,-0.52 -0.01,-0.16 -0.08,-0.3 -0.19,-0.42 l -4.1,-4.1 c 0.34,-0.35 0.69,-0.62 1.04,-0.83 0.34,-0.21 0.7,-0.33 1.06,-0.36 0.36,-0.04 0.72,0.02 1.09,0.17 0.36,0.15 0.73,0.42 1.11,0.79 0.29,0.3 0.53,0.59 0.72,0.87 0.18,0.28 0.33,0.53 0.44,0.76 0.11,0.23 0.19,0.43 0.25,0.58 0.06,0.16 0.12,0.27 0.18,0.32 0.03,0.04 0.06,0.06 0.11,0.07 0.04,0.01 0.08,0 0.13,-0.02 0.04,-0.02 0.1,-0.05 0.16,-0.1 0.07,-0.05 0.14,-0.12 0.23,-0.2 0.06,-0.06 0.11,-0.12 0.14,-0.16 0.04,-0.05 0.08,-0.1 0.1,-0.14 0.03,-0.04 0.05,-0.08 0.06,-0.13 0.02,-0.04 0.02,-0.09 0.02,-0.14 0,-0.05 -0.03,-0.17 -0.1,-0.35 -0.07,-0.18 -0.17,-0.4 -0.31,-0.65 -0.15,-0.26 -0.33,-0.54 -0.54,-0.84 -0.22,-0.3 -0.48,-0.6 -0.77,-0.9 -0.51,-0.51 -1.03,-0.89 -1.56,-1.13 -0.53,-0.24 -1.07,-0.35 -1.61,-0.34 -0.55,0.02 -1.1,0.18 -1.65,0.47 -0.56,0.29 -1.12,0.71 -1.69,1.28 -0.53,0.53 -0.94,1.08 -1.23,1.65 -0.29,0.56 -0.45,1.12 -0.49,1.68 -0.04,0.56 0.05,1.1 0.26,1.63 0.21,0.53 0.54,1.02 1,1.48 0.49,0.49 0.98,0.83 1.48,1.01 0.51,0.19 1,0.26 1.49,0.22 0.48,-0.05 0.96,-0.19 1.42,-0.45 0.46,-0.25 0.89,-0.58 1.3,-0.99 z m -1.49,-0.81 c -0.59,0.62 -1.19,0.96 -1.81,1.02 -0.63,0.06 -1.21,-0.19 -1.77,-0.74 -0.28,-0.28 -0.47,-0.59 -0.58,-0.91 -0.11,-0.32 -0.15,-0.63 -0.12,-0.95 0.04,-0.32 0.13,-0.64 0.28,-0.95 0.16,-0.31 0.36,-0.6 0.6,-0.86 z m 7.49,1.21 c 0.33,-0.32 0.49,-0.59 0.49,-0.81 0,-0.22 -0.14,-0.47 -0.43,-0.76 -0.27,-0.27 -0.52,-0.41 -0.73,-0.41 -0.21,0 -0.48,0.16 -0.8,0.48 -0.32,0.32 -0.49,0.6 -0.49,0.81 0,0.22 0.15,0.47 0.43,0.76 0.28,0.27 0.52,0.41 0.73,0.41 0.22,0 0.48,-0.16 0.8,-0.48 z m 4.22,2.51 c 0.46,-0.46 0.8,-0.87 1.02,-1.22 0.21,-0.35 0.34,-0.7 0.39,-1.04 0.04,-0.34 0,-0.68 -0.13,-1.01 -0.13,-0.33 -0.36,-0.66 -0.69,-0.99 -0.15,-0.14 -0.28,-0.26 -0.41,-0.34 -0.12,-0.09 -0.22,-0.15 -0.3,-0.18 -0.07,-0.03 -0.14,-0.05 -0.19,-0.04 -0.05,0.01 -0.1,0.03 -0.15,0.06 -0.05,0.03 -0.09,0.07 -0.14,0.11 -0.04,0.04 -0.09,0.09 -0.15,0.15 -0.09,0.08 -0.15,0.15 -0.21,0.22 -0.05,0.07 -0.09,0.13 -0.11,0.18 -0.02,0.05 -0.03,0.1 -0.02,0.14 0,0.03 0.02,0.07 0.05,0.1 0.03,0.03 0.09,0.08 0.18,0.14 0.1,0.07 0.2,0.16 0.3,0.27 0.15,0.15 0.26,0.3 0.32,0.46 0.07,0.15 0.08,0.32 0.04,0.49 -0.03,0.17 -0.11,0.36 -0.25,0.56 -0.13,0.19 -0.37,0.46 -0.7,0.8 l -6.5,6.5 c -0.03,0.03 -0.05,0.07 -0.06,0.11 -0.01,0.05 0,0.1 0.02,0.17 0.03,0.06 0.07,0.13 0.14,0.21 0.06,0.09 0.15,0.18 0.26,0.29 0.11,0.11 0.21,0.2 0.29,0.27 0.08,0.06 0.16,0.11 0.22,0.13 0.06,0.03 0.11,0.04 0.16,0.03 0.05,-0.01 0.09,-0.03 0.12,-0.07 z m -8.47,8.74 c 0.26,-0.27 0.39,-0.5 0.39,-0.7 0,-0.2 -0.14,-0.43 -0.42,-0.71 -0.26,-0.26 -0.49,-0.4 -0.68,-0.4 -0.19,0 -0.42,0.13 -0.69,0.39 -0.26,0.27 -0.4,0.5 -0.39,0.7 0,0.19 0.14,0.43 0.41,0.7 0.27,0.27 0.5,0.41 0.69,0.41 0.2,0 0.42,-0.13 0.69,-0.39 z m 12.53,-0.74 c 0.32,-0.32 0.54,-0.66 0.67,-1.03 0.14,-0.36 0.18,-0.74 0.13,-1.13 -0.04,-0.38 -0.17,-0.77 -0.38,-1.16 -0.22,-0.39 -0.5,-0.76 -0.86,-1.12 -0.22,-0.22 -0.45,-0.42 -0.69,-0.58 -0.23,-0.17 -0.46,-0.3 -0.67,-0.41 -0.21,-0.11 -0.4,-0.19 -0.57,-0.24 -0.17,-0.05 -0.3,-0.08 -0.4,-0.08 -0.09,-0.01 -0.2,0.02 -0.3,0.08 -0.11,0.06 -0.23,0.16 -0.38,0.3 -0.08,0.09 -0.15,0.17 -0.2,0.24 -0.05,0.07 -0.09,0.13 -0.11,0.18 -0.03,0.05 -0.03,0.09 -0.02,0.14 0,0.04 0.03,0.07 0.06,0.11 0.05,0.05 0.15,0.09 0.32,0.13 0.16,0.04 0.35,0.09 0.57,0.16 0.22,0.07 0.46,0.18 0.72,0.31 0.26,0.14 0.52,0.34 0.77,0.59 0.2,0.2 0.35,0.39 0.47,0.59 0.11,0.2 0.19,0.4 0.22,0.59 0.04,0.2 0.02,0.39 -0.04,0.58 -0.06,0.18 -0.18,0.36 -0.35,0.53 -0.17,0.18 -0.37,0.28 -0.58,0.31 -0.21,0.03 -0.43,0.02 -0.67,-0.04 -0.24,-0.05 -0.49,-0.14 -0.74,-0.25 -0.26,-0.11 -0.53,-0.23 -0.8,-0.34 -0.27,-0.12 -0.55,-0.22 -0.84,-0.31 -0.29,-0.09 -0.57,-0.14 -0.87,-0.14 -0.29,-0.01 -0.58,0.05 -0.86,0.16 -0.29,0.1 -0.57,0.3 -0.85,0.57 -0.25,0.25 -0.43,0.53 -0.56,0.85 -0.13,0.32 -0.19,0.65 -0.16,1.01 0.02,0.36 0.12,0.73 0.3,1.11 0.18,0.39 0.46,0.77 0.84,1.15 0.17,0.17 0.35,0.32 0.54,0.46 0.19,0.13 0.38,0.25 0.55,0.34 0.18,0.09 0.34,0.16 0.48,0.21 0.14,0.05 0.26,0.07 0.34,0.09 0.09,0.01 0.15,0.01 0.2,0 0.04,-0.02 0.08,-0.03 0.13,-0.06 0.04,-0.03 0.09,-0.07 0.14,-0.11 0.06,-0.04 0.13,-0.1 0.2,-0.18 0.08,-0.07 0.14,-0.15 0.2,-0.21 0.05,-0.07 0.08,-0.12 0.1,-0.18 0.02,-0.05 0.03,-0.1 0.02,-0.14 0,-0.03 -0.02,-0.07 -0.05,-0.1 -0.04,-0.04 -0.13,-0.07 -0.25,-0.1 -0.13,-0.03 -0.29,-0.07 -0.47,-0.14 -0.18,-0.07 -0.38,-0.16 -0.6,-0.28 -0.22,-0.12 -0.44,-0.28 -0.66,-0.5 -0.19,-0.19 -0.34,-0.39 -0.44,-0.58 -0.11,-0.19 -0.17,-0.37 -0.18,-0.55 -0.01,-0.17 0.01,-0.34 0.07,-0.5 0.06,-0.16 0.16,-0.3 0.29,-0.43 0.18,-0.18 0.38,-0.29 0.59,-0.32 0.22,-0.03 0.44,-0.01 0.68,0.04 0.24,0.06 0.49,0.14 0.76,0.26 0.26,0.11 0.53,0.23 0.8,0.35 0.28,0.11 0.56,0.22 0.85,0.32 0.29,0.09 0.57,0.14 0.86,0.15 0.28,0.01 0.57,-0.04 0.85,-0.14 0.29,-0.1 0.56,-0.29 0.83,-0.56 z" /></g></g><g
             id="g200"><g
               id="g198"
               clip-path="url(#clipPath74)"><path
                 id="path196"
                 style="fill:#595959;fill-opacity:1;fill-rule:nonzero;stroke:none"
                 d="m 651.17,266.6 c 0.04,-0.04 0.06,-0.08 0.07,-0.13 0.01,-0.04 0,-0.1 -0.03,-0.16 -0.03,-0.06 -0.08,-0.14 -0.14,-0.22 -0.06,-0.09 -0.15,-0.19 -0.27,-0.31 -0.11,-0.11 -0.21,-0.2 -0.3,-0.26 -0.09,-0.07 -0.17,-0.12 -0.23,-0.15 -0.06,-0.03 -0.11,-0.04 -0.16,-0.03 -0.05,0.01 -0.09,0.03 -0.13,0.07 l -7.79,7.8 -0.02,-0.02 4.68,-10.98 c 0.02,-0.05 0.03,-0.1 0.02,-0.15 0,-0.04 -0.02,-0.1 -0.05,-0.16 -0.03,-0.07 -0.08,-0.14 -0.14,-0.21 -0.06,-0.08 -0.13,-0.16 -0.22,-0.25 -0.1,-0.1 -0.19,-0.18 -0.27,-0.24 -0.08,-0.06 -0.15,-0.1 -0.21,-0.13 -0.06,-0.03 -0.12,-0.05 -0.16,-0.05 -0.05,0 -0.1,0.01 -0.13,0.02 l -10.85,4.82 -0.01,-0.01 7.8,-7.79 c 0.04,-0.04 0.06,-0.08 0.07,-0.13 0.01,-0.05 -0.01,-0.1 -0.04,-0.17 -0.03,-0.06 -0.08,-0.14 -0.14,-0.22 -0.07,-0.09 -0.16,-0.19 -0.28,-0.31 -0.11,-0.12 -0.21,-0.21 -0.3,-0.27 -0.09,-0.06 -0.16,-0.11 -0.22,-0.14 -0.06,-0.03 -0.12,-0.04 -0.16,-0.03 -0.04,0.01 -0.08,0.04 -0.12,0.07 l -8.24,8.24 c -0.19,0.19 -0.28,0.38 -0.26,0.57 0.02,0.18 0.1,0.34 0.22,0.47 l 0.73,0.73 c 0.15,0.15 0.3,0.27 0.44,0.35 0.14,0.08 0.28,0.14 0.43,0.16 0.14,0.03 0.29,0.02 0.44,-0.01 0.14,-0.04 0.3,-0.1 0.47,-0.18 l 9.04,-3.92 0.04,0.03 -3.8,9.13 c -0.09,0.19 -0.15,0.36 -0.19,0.52 -0.03,0.16 -0.04,0.3 -0.03,0.43 0.02,0.13 0.06,0.25 0.12,0.37 0.06,0.11 0.15,0.23 0.27,0.34 l 0.77,0.77 c 0.07,0.07 0.14,0.13 0.23,0.17 0.08,0.04 0.17,0.06 0.26,0.06 0.09,0.01 0.18,-0.01 0.27,-0.05 0.1,-0.04 0.19,-0.11 0.29,-0.21 z m 5.29,4.92 1.46,-3.12 c 0.04,-0.1 0.03,-0.22 -0.04,-0.38 -0.08,-0.15 -0.23,-0.34 -0.46,-0.57 -0.12,-0.12 -0.22,-0.21 -0.31,-0.27 -0.08,-0.07 -0.16,-0.1 -0.23,-0.11 -0.06,-0.02 -0.12,0 -0.17,0.04 -0.05,0.04 -0.1,0.11 -0.13,0.2 l -1.31,3.02 c -0.06,-0.02 -0.13,-0.03 -0.21,-0.02 -0.08,0 -0.15,0.02 -0.21,0.05 l -8.17,3.73 c -0.13,0.06 -0.23,0.12 -0.28,0.17 -0.06,0.06 -0.08,0.12 -0.08,0.19 0.01,0.07 0.04,0.15 0.12,0.25 0.07,0.09 0.17,0.21 0.31,0.35 0.14,0.13 0.25,0.24 0.34,0.31 0.08,0.07 0.16,0.12 0.22,0.15 0.07,0.03 0.13,0.03 0.18,0.02 0.06,-0.01 0.13,-0.04 0.21,-0.08 l 6.77,-3.21 0.02,0.02 -3.3,6.74 c -0.06,0.11 -0.09,0.2 -0.07,0.27 0.01,0.06 0.05,0.14 0.12,0.23 0.06,0.09 0.17,0.21 0.32,0.36 0.13,0.12 0.24,0.22 0.33,0.3 0.1,0.07 0.18,0.11 0.25,0.11 0.08,0.01 0.14,-0.01 0.19,-0.07 0.06,-0.05 0.11,-0.14 0.17,-0.25 z m 5.95,10.98 c 0.42,-0.42 0.72,-0.87 0.89,-1.35 0.18,-0.48 0.24,-0.97 0.19,-1.48 -0.04,-0.5 -0.19,-0.99 -0.45,-1.48 -0.26,-0.49 -0.6,-0.95 -1.03,-1.37 -0.3,-0.3 -0.6,-0.56 -0.91,-0.76 -0.3,-0.21 -0.59,-0.37 -0.87,-0.5 -0.27,-0.13 -0.52,-0.22 -0.73,-0.28 -0.22,-0.05 -0.38,-0.08 -0.49,-0.08 -0.11,0 -0.22,0.03 -0.33,0.09 -0.11,0.06 -0.23,0.17 -0.38,0.31 -0.1,0.1 -0.18,0.19 -0.23,0.26 -0.06,0.08 -0.1,0.15 -0.13,0.21 -0.02,0.06 -0.02,0.11 -0.01,0.15 0.01,0.05 0.03,0.09 0.07,0.13 0.06,0.06 0.19,0.11 0.39,0.15 0.2,0.04 0.43,0.11 0.71,0.2 0.28,0.09 0.59,0.23 0.93,0.41 0.34,0.18 0.68,0.44 1.02,0.78 0.26,0.26 0.46,0.53 0.61,0.81 0.14,0.29 0.23,0.57 0.26,0.85 0.02,0.28 -0.01,0.55 -0.12,0.82 -0.1,0.27 -0.27,0.52 -0.5,0.76 -0.25,0.25 -0.53,0.41 -0.82,0.47 -0.3,0.07 -0.61,0.07 -0.93,0.02 -0.33,-0.05 -0.67,-0.14 -1.02,-0.27 -0.36,-0.13 -0.72,-0.26 -1.09,-0.4 -0.38,-0.14 -0.75,-0.25 -1.14,-0.35 -0.38,-0.1 -0.76,-0.14 -1.14,-0.14 -0.39,0.01 -0.77,0.08 -1.15,0.22 -0.37,0.15 -0.75,0.4 -1.11,0.76 -0.37,0.38 -0.64,0.78 -0.8,1.21 -0.15,0.43 -0.21,0.86 -0.17,1.3 0.05,0.44 0.19,0.88 0.42,1.32 0.23,0.44 0.54,0.85 0.92,1.24 0.2,0.2 0.42,0.38 0.65,0.55 0.24,0.16 0.47,0.31 0.71,0.43 0.23,0.12 0.46,0.21 0.67,0.28 0.21,0.06 0.36,0.1 0.44,0.1 0.09,0 0.15,-0.01 0.19,-0.02 0.04,-0.01 0.09,-0.03 0.14,-0.06 0.04,-0.03 0.1,-0.07 0.16,-0.12 0.06,-0.06 0.13,-0.12 0.22,-0.21 0.08,-0.09 0.15,-0.16 0.21,-0.23 0.06,-0.08 0.1,-0.14 0.13,-0.2 0.03,-0.06 0.04,-0.11 0.04,-0.15 0,-0.05 -0.02,-0.09 -0.06,-0.12 -0.05,-0.05 -0.16,-0.1 -0.33,-0.14 -0.17,-0.05 -0.38,-0.11 -0.62,-0.18 -0.23,-0.08 -0.49,-0.19 -0.78,-0.34 -0.28,-0.15 -0.55,-0.35 -0.82,-0.62 -0.25,-0.25 -0.43,-0.5 -0.55,-0.75 -0.12,-0.25 -0.18,-0.49 -0.19,-0.73 -0.01,-0.23 0.03,-0.45 0.13,-0.66 0.09,-0.21 0.22,-0.4 0.39,-0.57 0.25,-0.25 0.52,-0.41 0.82,-0.47 0.29,-0.07 0.6,-0.07 0.93,-0.02 0.33,0.05 0.68,0.14 1.04,0.27 0.36,0.13 0.72,0.26 1.1,0.4 0.37,0.14 0.74,0.26 1.13,0.36 0.39,0.1 0.77,0.16 1.15,0.16 0.38,0 0.77,-0.08 1.14,-0.22 0.38,-0.14 0.75,-0.39 1.1,-0.75 z m 13.63,7.03 c 0.11,-0.11 0.19,-0.2 0.25,-0.29 0.06,-0.08 0.1,-0.15 0.11,-0.21 0.02,-0.07 0.02,-0.12 0.01,-0.16 -0.02,-0.04 -0.04,-0.08 -0.07,-0.1 -0.09,-0.09 -0.28,-0.21 -0.56,-0.33 -0.28,-0.13 -0.63,-0.26 -1.04,-0.38 -0.41,-0.12 -0.87,-0.23 -1.39,-0.33 -0.51,-0.1 -1.04,-0.15 -1.61,-0.16 -0.08,-0.36 -0.25,-0.77 -0.5,-1.22 -0.24,-0.44 -0.59,-0.9 -1.05,-1.35 -0.67,-0.68 -1.35,-1.16 -2.04,-1.45 -0.69,-0.3 -1.39,-0.41 -2.09,-0.35 -0.7,0.06 -1.42,0.3 -2.15,0.71 -0.72,0.42 -1.46,0.99 -2.19,1.73 -0.71,0.71 -1.27,1.44 -1.67,2.18 -0.41,0.75 -0.64,1.49 -0.7,2.24 -0.07,0.74 0.05,1.48 0.34,2.21 0.3,0.73 0.78,1.44 1.47,2.12 0.64,0.64 1.3,1.11 1.99,1.4 0.68,0.29 1.38,0.4 2.09,0.35 0.71,-0.05 1.43,-0.27 2.15,-0.66 0.72,-0.39 1.45,-0.95 2.17,-1.68 0.38,-0.37 0.71,-0.75 1.01,-1.13 0.3,-0.39 0.55,-0.78 0.76,-1.18 0.21,-0.4 0.37,-0.8 0.49,-1.2 0.11,-0.4 0.18,-0.8 0.19,-1.2 0.62,0.06 1.13,0.14 1.54,0.23 0.4,0.1 0.73,0.2 0.97,0.28 0.25,0.09 0.43,0.16 0.56,0.22 0.13,0.06 0.24,0.09 0.33,0.09 0.09,0 0.18,-0.03 0.28,-0.09 0.1,-0.06 0.22,-0.16 0.35,-0.29 z m -7.65,2.94 c -0.5,0.51 -1.02,0.93 -1.54,1.28 -0.53,0.34 -1.05,0.57 -1.58,0.68 -0.53,0.11 -1.06,0.08 -1.6,-0.09 -0.53,-0.17 -1.05,-0.52 -1.57,-1.03 -0.51,-0.52 -0.85,-1.05 -1.01,-1.59 -0.16,-0.54 -0.19,-1.09 -0.08,-1.63 0.11,-0.55 0.33,-1.08 0.66,-1.6 0.34,-0.53 0.74,-1.03 1.22,-1.51 0.53,-0.52 1.06,-0.96 1.58,-1.32 0.53,-0.35 1.06,-0.58 1.59,-0.7 0.53,-0.11 1.06,-0.09 1.59,0.08 0.52,0.18 1.05,0.52 1.57,1.05 0.53,0.52 0.87,1.06 1.03,1.6 0.16,0.55 0.18,1.1 0.07,1.65 -0.11,0.54 -0.34,1.08 -0.68,1.61 -0.35,0.53 -0.76,1.03 -1.25,1.52 z m 11.89,3.91 c 0.09,-0.09 0.16,-0.17 0.22,-0.24 0.05,-0.08 0.09,-0.14 0.11,-0.21 0.02,-0.06 0.03,-0.12 0.02,-0.17 -0.01,-0.05 -0.03,-0.1 -0.08,-0.14 l -3.95,-3.96 c -0.11,-0.1 -0.25,-0.17 -0.41,-0.19 -0.17,-0.02 -0.34,0.05 -0.52,0.23 l -8.29,8.29 c -0.04,0.04 -0.06,0.08 -0.07,0.13 -0.01,0.04 0,0.1 0.03,0.16 0.03,0.06 0.08,0.14 0.15,0.23 0.06,0.09 0.15,0.19 0.26,0.3 0.12,0.12 0.22,0.21 0.31,0.27 0.09,0.06 0.16,0.11 0.22,0.14 0.07,0.03 0.12,0.04 0.17,0.03 0.04,-0.01 0.08,-0.03 0.12,-0.07 l 7.74,-7.74 3.21,3.21 c 0.04,0.04 0.09,0.07 0.14,0.08 0.05,0.01 0.11,0 0.17,-0.02 0.06,-0.01 0.12,-0.05 0.2,-0.11 0.07,-0.05 0.16,-0.13 0.25,-0.22 z" /></g></g><g
             id="g208"><g
               id="g206"
               clip-path="url(#clipPath78)"><text
                 id="text204"
                 style="font-variant:normal;font-weight:bold;font-size:20.04000092px;font-family:Calibri;-inkscape-font-specification:Calibri-Bold;writing-mode:lr-tb;fill:#595959;fill-opacity:1;fill-rule:nonzero;stroke:none"
                 transform="matrix(-4.4e-8,1,1,4.4e-8,81.936,322.22)"><tspan
                   id="tspan202"
                   y="0"
                   x="0 10.3206 20.22036 29.39868 39.478802 44.007839 52.444679 62.34444 73.105919 78.035759 88.115883 92.524681 109.9194 119.81916 124.68888 134.30807 138.83711 149.43828 158.65668 167.0334 171.96324 182.04337">Page Table Walk Cycles</tspan></text>
</g></g><g
             id="g216"><g
               id="g214"
               clip-path="url(#clipPath82)"><text
                 id="text212"
                 style="font-variant:normal;font-weight:bold;font-size:20.04000092px;font-family:Calibri;-inkscape-font-specification:Calibri-Bold;writing-mode:lr-tb;fill:#595959;fill-opacity:1;fill-rule:nonzero;stroke:none"
                 transform="matrix(-4.4e-8,1,1,4.4e-8,106.3,296.78)"><tspan
                   id="tspan210"
                   y="0"
                   x="0 13.20636 23.987881 31.102079 47.3946 57.294361 62.164082 67.093918 74.649002 84.729118 95.490601 99.839279 106.55268 117.3342 121.86324 131.34216 138.11568 148.8972 157.27393 166.89313 171.36205 180.56039 187.43411 197.51424 207.59436 218.83681 228.31572">Normalized to Stock FreeBSD</tspan></text>
</g></g><path
             id="path218"
             style="fill:#7f7f7f;fill-opacity:1;fill-rule:evenodd;stroke:none"
             d="m 196.59,515.51 h 10.987 v 10.987 H 196.59 Z" /><path
             id="path220"
             style="fill:none;stroke:#000000;stroke-width:0.75;stroke-linecap:butt;stroke-linejoin:round;stroke-miterlimit:10;stroke-dasharray:none;stroke-opacity:1"
             d="m 196.59,515.51 h 10.987 v 10.987 H 196.59 Z" /><g
             id="g228"><g
               id="g226"
               clip-path="url(#clipPath86)"><text
                 id="text224"
                 style="font-variant:normal;font-weight:normal;font-size:20.06399918px;font-family:Calibri;-inkscape-font-specification:Calibri;writing-mode:lr-tb;fill:#595959;fill-opacity:1;fill-rule:nonzero;stroke:none"
                 transform="matrix(1,0,0,-1,212.74,515.23)"><tspan
                   id="tspan222"
                   y="0"
                   x="0 5.056128 15.589728 23.434752">Inst</tspan></text>
</g></g><path
             id="path230"
             style="fill:#000000;fill-opacity:1;fill-rule:evenodd;stroke:none"
             d="m 256.1,515.51 h 10.987 v 10.987 H 256.1 Z" /><path
             id="path232"
             style="fill:none;stroke:#000000;stroke-width:0.75;stroke-linecap:butt;stroke-linejoin:round;stroke-miterlimit:10;stroke-dasharray:none;stroke-opacity:1"
             d="m 256.1,515.51 h 10.987 v 10.987 H 256.1 Z" /><g
             id="g240"><g
               id="g238"
               clip-path="url(#clipPath90)"><text
                 id="text236"
                 style="font-variant:normal;font-weight:normal;font-size:20.06399918px;font-family:Calibri;-inkscape-font-specification:Calibri;writing-mode:lr-tb;fill:#595959;fill-opacity:1;fill-rule:nonzero;stroke:none"
                 transform="matrix(1,0,0,-1,272.23,515.23)"><tspan
                   id="tspan234"
                   y="0"
                   x="0 12.33936 21.849695 28.571136">Data</tspan></text>
</g></g></g></g></g></g></svg>